%TF.GenerationSoftware,KiCad,Pcbnew,(6.0.0)*%
%TF.CreationDate,2022-05-29T15:36:19+02:00*%
%TF.ProjectId,LED_flasher,4c45445f-666c-4617-9368-65722e6b6963,rev?*%
%TF.SameCoordinates,Original*%
%TF.FileFunction,Legend,Top*%
%TF.FilePolarity,Positive*%
%FSLAX46Y46*%
G04 Gerber Fmt 4.6, Leading zero omitted, Abs format (unit mm)*
G04 Created by KiCad (PCBNEW (6.0.0)) date 2022-05-29 15:36:19*
%MOMM*%
%LPD*%
G01*
G04 APERTURE LIST*
G04 Aperture macros list*
%AMRoundRect*
0 Rectangle with rounded corners*
0 $1 Rounding radius*
0 $2 $3 $4 $5 $6 $7 $8 $9 X,Y pos of 4 corners*
0 Add a 4 corners polygon primitive as box body*
4,1,4,$2,$3,$4,$5,$6,$7,$8,$9,$2,$3,0*
0 Add four circle primitives for the rounded corners*
1,1,$1+$1,$2,$3*
1,1,$1+$1,$4,$5*
1,1,$1+$1,$6,$7*
1,1,$1+$1,$8,$9*
0 Add four rect primitives between the rounded corners*
20,1,$1+$1,$2,$3,$4,$5,0*
20,1,$1+$1,$4,$5,$6,$7,0*
20,1,$1+$1,$6,$7,$8,$9,0*
20,1,$1+$1,$8,$9,$2,$3,0*%
%AMRotRect*
0 Rectangle, with rotation*
0 The origin of the aperture is its center*
0 $1 length*
0 $2 width*
0 $3 Rotation angle, in degrees counterclockwise*
0 Add horizontal line*
21,1,$1,$2,0,0,$3*%
G04 Aperture macros list end*
%ADD10C,0.120000*%
%ADD11RoundRect,0.250000X0.450000X-0.350000X0.450000X0.350000X-0.450000X0.350000X-0.450000X-0.350000X0*%
%ADD12RotRect,2.000000X2.000000X225.000000*%
%ADD13RoundRect,0.250000X-0.450000X0.325000X-0.450000X-0.325000X0.450000X-0.325000X0.450000X0.325000X0*%
%ADD14RoundRect,0.250000X-0.425000X0.450000X-0.425000X-0.450000X0.425000X-0.450000X0.425000X0.450000X0*%
%ADD15R,0.800000X1.900000*%
%ADD16RoundRect,0.250000X-0.337500X-0.475000X0.337500X-0.475000X0.337500X0.475000X-0.337500X0.475000X0*%
%ADD17RoundRect,0.250000X0.350000X0.450000X-0.350000X0.450000X-0.350000X-0.450000X0.350000X-0.450000X0*%
%ADD18RoundRect,0.250000X-0.350000X-0.450000X0.350000X-0.450000X0.350000X0.450000X-0.350000X0.450000X0*%
%ADD19RoundRect,0.250000X0.325000X0.450000X-0.325000X0.450000X-0.325000X-0.450000X0.325000X-0.450000X0*%
%ADD20RoundRect,0.250000X0.337500X0.475000X-0.337500X0.475000X-0.337500X-0.475000X0.337500X-0.475000X0*%
%ADD21RoundRect,0.250000X-0.325000X-0.450000X0.325000X-0.450000X0.325000X0.450000X-0.325000X0.450000X0*%
G04 APERTURE END LIST*
D10*
%TO.C,R3*%
X54129000Y-41883064D02*
X54129000Y-41428936D01*
X55599000Y-41883064D02*
X55599000Y-41428936D01*
%TO.C,SW1*%
X42459476Y-41579970D02*
X42959401Y-42079894D01*
X40843030Y-39963524D02*
X40343106Y-39463599D01*
X40343106Y-39463599D02*
X44670599Y-35136106D01*
X47286894Y-37752401D02*
X42959401Y-42079894D01*
X46786970Y-37252476D02*
X47286894Y-37752401D01*
X44670599Y-35136106D02*
X45170524Y-35636030D01*
%TO.C,D4*%
X65222000Y-49133000D02*
X65222000Y-46273000D01*
X65222000Y-46273000D02*
X63302000Y-46273000D01*
X63302000Y-46273000D02*
X63302000Y-49133000D01*
%TO.C,G\u002A\u002A\u002A*%
G36*
X54259417Y-52736664D02*
G01*
X54259525Y-52734108D01*
X54265676Y-52608525D01*
X54273346Y-52502335D01*
X54283905Y-52405690D01*
X54298722Y-52308742D01*
X54319169Y-52201642D01*
X54346616Y-52074542D01*
X54358831Y-52020427D01*
X54377718Y-51932830D01*
X54392655Y-51854683D01*
X54402329Y-51793559D01*
X54405427Y-51757031D01*
X54405143Y-51753351D01*
X54399930Y-51737705D01*
X54387788Y-51737119D01*
X54364164Y-51754540D01*
X54324504Y-51792911D01*
X54291409Y-51826913D01*
X54235633Y-51886317D01*
X54183140Y-51944888D01*
X54143195Y-51992217D01*
X54135475Y-52002097D01*
X54092567Y-52051790D01*
X54045984Y-52096164D01*
X54035626Y-52104444D01*
X53998738Y-52133541D01*
X53945012Y-52177424D01*
X53883916Y-52228327D01*
X53860242Y-52248315D01*
X53762327Y-52331046D01*
X53685055Y-52395489D01*
X53622859Y-52446020D01*
X53570169Y-52487016D01*
X53521419Y-52522854D01*
X53471038Y-52557909D01*
X53437877Y-52580276D01*
X53313539Y-52662809D01*
X53217125Y-52725268D01*
X53148411Y-52767793D01*
X53107175Y-52790523D01*
X53094935Y-52794749D01*
X53073863Y-52803106D01*
X53032351Y-52825014D01*
X52979413Y-52855714D01*
X52917578Y-52889975D01*
X52837571Y-52930108D01*
X52747991Y-52972254D01*
X52657438Y-53012549D01*
X52574515Y-53047133D01*
X52507820Y-53072142D01*
X52476034Y-53081733D01*
X52424443Y-53098392D01*
X52368286Y-53122202D01*
X52363662Y-53124474D01*
X52307161Y-53147985D01*
X52223818Y-53176573D01*
X52120718Y-53208283D01*
X52004950Y-53241157D01*
X51883600Y-53273241D01*
X51763757Y-53302577D01*
X51652507Y-53327210D01*
X51575326Y-53342063D01*
X51428660Y-53365958D01*
X51288039Y-53384730D01*
X51148198Y-53398559D01*
X51003871Y-53407625D01*
X50849793Y-53412106D01*
X50680698Y-53412181D01*
X50491322Y-53408029D01*
X50276399Y-53399830D01*
X50110272Y-53391898D01*
X50015134Y-53382584D01*
X49894126Y-53363799D01*
X49754225Y-53337107D01*
X49602408Y-53304076D01*
X49445652Y-53266273D01*
X49290933Y-53225264D01*
X49145229Y-53182615D01*
X49067850Y-53157829D01*
X48948220Y-53115077D01*
X48817113Y-53063193D01*
X48682134Y-53005624D01*
X48550891Y-52945817D01*
X48430990Y-52887219D01*
X48330036Y-52833276D01*
X48266049Y-52794486D01*
X48102508Y-52685941D01*
X47964364Y-52593425D01*
X47847930Y-52514126D01*
X47749517Y-52445234D01*
X47665438Y-52383941D01*
X47592005Y-52327436D01*
X47525530Y-52272910D01*
X47462325Y-52217552D01*
X47398703Y-52158554D01*
X47330976Y-52093105D01*
X47281794Y-52044572D01*
X47121531Y-51881552D01*
X46982329Y-51730205D01*
X46857189Y-51581873D01*
X46739115Y-51427897D01*
X46621106Y-51259618D01*
X46508757Y-51088133D01*
X46357802Y-50830627D01*
X46218872Y-50551737D01*
X46095705Y-50260641D01*
X45992036Y-49966517D01*
X45911601Y-49678546D01*
X45883876Y-49552886D01*
X45867099Y-49472098D01*
X45850893Y-49398858D01*
X45837514Y-49343134D01*
X45831354Y-49320875D01*
X45821907Y-49277620D01*
X45812647Y-49213367D01*
X45805524Y-49141724D01*
X45805315Y-49138951D01*
X45797725Y-49058375D01*
X45786314Y-48961884D01*
X45773274Y-48867688D01*
X45770381Y-48848926D01*
X45758646Y-48749594D01*
X45750633Y-48630117D01*
X45746458Y-48500659D01*
X45746444Y-48492241D01*
X46115540Y-48492241D01*
X46121585Y-48733640D01*
X46139242Y-48958923D01*
X46157555Y-49095636D01*
X46195186Y-49310205D01*
X46236207Y-49502225D01*
X46283793Y-49683094D01*
X46341121Y-49864210D01*
X46411366Y-50056973D01*
X46459242Y-50178515D01*
X46615606Y-50530068D01*
X46792101Y-50855964D01*
X46991275Y-51159614D01*
X47215673Y-51444429D01*
X47467842Y-51713817D01*
X47750328Y-51971190D01*
X47873257Y-52072238D01*
X48002286Y-52174641D01*
X48110499Y-52258471D01*
X48203553Y-52327518D01*
X48287105Y-52385568D01*
X48366814Y-52436409D01*
X48448335Y-52483827D01*
X48537328Y-52531610D01*
X48629896Y-52578765D01*
X48682976Y-52605670D01*
X48725962Y-52627998D01*
X48742516Y-52636971D01*
X48779995Y-52656558D01*
X48832851Y-52682109D01*
X48891859Y-52709434D01*
X48947797Y-52734348D01*
X48991443Y-52752661D01*
X49013573Y-52760186D01*
X49013918Y-52760204D01*
X49038665Y-52767608D01*
X49071711Y-52782836D01*
X49150336Y-52816755D01*
X49258954Y-52853137D01*
X49393091Y-52890860D01*
X49548274Y-52928798D01*
X49720030Y-52965829D01*
X49903885Y-53000828D01*
X50015981Y-53020030D01*
X50158638Y-53039157D01*
X50320930Y-53053747D01*
X50493155Y-53063477D01*
X50665612Y-53068022D01*
X50828601Y-53067060D01*
X50972419Y-53060268D01*
X51038218Y-53054116D01*
X51123906Y-53044612D01*
X51214553Y-53035144D01*
X51289446Y-53027865D01*
X51361812Y-53018578D01*
X51454811Y-53002630D01*
X51562313Y-52981474D01*
X51678184Y-52956566D01*
X51796295Y-52929360D01*
X51910512Y-52901311D01*
X52014706Y-52873873D01*
X52102743Y-52848502D01*
X52168493Y-52826651D01*
X52204073Y-52810881D01*
X52236381Y-52796381D01*
X52289042Y-52777597D01*
X52334198Y-52763511D01*
X52387229Y-52745355D01*
X52423568Y-52727864D01*
X52434487Y-52716782D01*
X52418985Y-52703815D01*
X52380171Y-52691518D01*
X52359994Y-52687664D01*
X52295247Y-52673157D01*
X52208247Y-52647877D01*
X52108397Y-52615154D01*
X52005096Y-52578315D01*
X51907748Y-52540689D01*
X51825752Y-52505605D01*
X51776843Y-52481221D01*
X51656589Y-52404310D01*
X51531994Y-52307729D01*
X51410479Y-52198538D01*
X51299462Y-52083797D01*
X51206361Y-51970568D01*
X51147956Y-51882700D01*
X51113240Y-51826262D01*
X51076759Y-51772191D01*
X51070238Y-51763244D01*
X51029322Y-51694766D01*
X50986299Y-51599319D01*
X50943542Y-51484298D01*
X50903427Y-51357095D01*
X50868325Y-51225103D01*
X50840611Y-51095715D01*
X50825668Y-51001503D01*
X50817596Y-50880345D01*
X50820158Y-50737175D01*
X50825694Y-50666528D01*
X51205213Y-50666528D01*
X51215408Y-50858886D01*
X51247683Y-51053701D01*
X51300079Y-51245261D01*
X51370641Y-51427855D01*
X51457411Y-51595770D01*
X51558433Y-51743295D01*
X51671749Y-51864716D01*
X51701297Y-51889940D01*
X51752124Y-51932572D01*
X51797290Y-51972762D01*
X51817633Y-51992340D01*
X51900939Y-52063283D01*
X52010335Y-52134305D01*
X52137570Y-52200838D01*
X52274394Y-52258315D01*
X52337672Y-52280259D01*
X52409367Y-52303577D01*
X52474620Y-52325105D01*
X52521490Y-52340896D01*
X52528259Y-52343248D01*
X52568188Y-52350184D01*
X52637946Y-52354432D01*
X52732801Y-52355838D01*
X52848024Y-52354248D01*
X52857454Y-52354001D01*
X53134671Y-52346506D01*
X53273280Y-52254154D01*
X53434210Y-52143165D01*
X53575894Y-52036344D01*
X53706485Y-51926573D01*
X53834139Y-51806733D01*
X53967009Y-51669705D01*
X54063133Y-51564599D01*
X54187232Y-51422912D01*
X54288571Y-51299151D01*
X54370738Y-51188736D01*
X54437318Y-51087086D01*
X54438185Y-51085657D01*
X54481630Y-51018186D01*
X54531937Y-50945956D01*
X54556899Y-50912396D01*
X54584550Y-50870562D01*
X54622591Y-50804956D01*
X54667701Y-50722165D01*
X54716558Y-50628775D01*
X54765841Y-50531371D01*
X54812230Y-50436539D01*
X54852403Y-50350866D01*
X54883038Y-50280937D01*
X54900815Y-50233338D01*
X54902576Y-50226911D01*
X54905109Y-50198026D01*
X54894522Y-50168649D01*
X54866409Y-50130556D01*
X54828366Y-50088303D01*
X54694262Y-49921932D01*
X54579074Y-49732118D01*
X54534674Y-49640816D01*
X54504763Y-49579512D01*
X54477913Y-49533478D01*
X54458322Y-49509559D01*
X54453058Y-49507813D01*
X54435192Y-49525575D01*
X54409324Y-49564822D01*
X54390325Y-49599310D01*
X54354655Y-49658601D01*
X54301274Y-49734705D01*
X54236516Y-49819482D01*
X54166715Y-49904795D01*
X54098204Y-49982503D01*
X54064813Y-50017587D01*
X53965278Y-50109249D01*
X53843893Y-50206407D01*
X53710981Y-50301679D01*
X53576863Y-50387686D01*
X53451862Y-50457047D01*
X53446540Y-50459696D01*
X53218271Y-50554187D01*
X52973338Y-50621393D01*
X52716825Y-50661007D01*
X52453814Y-50672724D01*
X52189387Y-50656239D01*
X51928627Y-50611245D01*
X51748587Y-50561853D01*
X51568458Y-50489866D01*
X51383104Y-50386971D01*
X51368131Y-50377476D01*
X51316838Y-50347321D01*
X51276464Y-50328449D01*
X51256213Y-50324909D01*
X51246980Y-50345232D01*
X51235361Y-50391415D01*
X51223364Y-50454946D01*
X51219055Y-50482339D01*
X51205213Y-50666528D01*
X50825694Y-50666528D01*
X50832272Y-50582591D01*
X50852858Y-50427193D01*
X50880833Y-50281578D01*
X50910430Y-50170819D01*
X50927643Y-50112636D01*
X50939424Y-50065877D01*
X50942925Y-50044095D01*
X50949732Y-50016021D01*
X50967269Y-49968789D01*
X50983733Y-49930508D01*
X51011318Y-49866356D01*
X51036093Y-49803104D01*
X51045718Y-49775684D01*
X51068566Y-49728138D01*
X51097487Y-49713279D01*
X51135671Y-49730651D01*
X51166330Y-49758358D01*
X51328513Y-49903497D01*
X51510086Y-50026664D01*
X51715710Y-50130759D01*
X51852016Y-50185068D01*
X51959920Y-50222746D01*
X52048402Y-50249111D01*
X52129631Y-50267088D01*
X52215775Y-50279603D01*
X52267841Y-50285047D01*
X52362970Y-50291710D01*
X52461812Y-50294731D01*
X52549547Y-50293816D01*
X52588900Y-50291420D01*
X52669203Y-50284168D01*
X52751002Y-50276816D01*
X52811723Y-50271390D01*
X52886237Y-50259315D01*
X52964011Y-50238695D01*
X52989956Y-50229485D01*
X53044495Y-50210176D01*
X53089542Y-50198008D01*
X53105764Y-50195841D01*
X53138968Y-50187335D01*
X53194830Y-50164158D01*
X53266509Y-50129822D01*
X53347163Y-50087836D01*
X53429951Y-50041713D01*
X53508032Y-49994963D01*
X53550496Y-49967592D01*
X53636001Y-49903501D01*
X53730593Y-49821194D01*
X53825448Y-49729347D01*
X53911742Y-49636637D01*
X53980650Y-49551739D01*
X53996816Y-49528788D01*
X54061321Y-49425933D01*
X54091543Y-49371597D01*
X54875940Y-49371597D01*
X54883854Y-49422929D01*
X54905104Y-49494908D01*
X54935947Y-49578025D01*
X54972642Y-49662776D01*
X55011448Y-49739653D01*
X55038488Y-49784630D01*
X55147160Y-49917767D01*
X55283543Y-50034344D01*
X55443753Y-50132041D01*
X55623909Y-50208536D01*
X55820128Y-50261506D01*
X55843268Y-50265933D01*
X55918386Y-50273658D01*
X56015821Y-50275201D01*
X56123913Y-50271171D01*
X56231000Y-50262181D01*
X56325421Y-50248842D01*
X56374644Y-50238085D01*
X56513601Y-50189673D01*
X57232284Y-50189673D01*
X57240304Y-50216550D01*
X57262393Y-50267934D01*
X57295592Y-50338153D01*
X57336943Y-50421533D01*
X57383487Y-50512402D01*
X57432264Y-50605085D01*
X57480318Y-50693912D01*
X57524689Y-50773208D01*
X57562419Y-50837300D01*
X57590549Y-50880516D01*
X57596936Y-50888883D01*
X57629851Y-50930238D01*
X57678071Y-50992372D01*
X57736205Y-51068272D01*
X57798866Y-51150920D01*
X57829839Y-51192089D01*
X57895858Y-51277836D01*
X57963691Y-51362060D01*
X58026892Y-51437011D01*
X58079016Y-51494937D01*
X58096358Y-51512621D01*
X58154435Y-51570756D01*
X58212639Y-51631268D01*
X58258006Y-51680656D01*
X58306036Y-51730261D01*
X58367595Y-51787359D01*
X58422597Y-51834029D01*
X58474050Y-51876122D01*
X58515759Y-51911711D01*
X58539388Y-51933664D01*
X58540401Y-51934794D01*
X58569915Y-51962343D01*
X58619449Y-52002164D01*
X58680013Y-52047572D01*
X58742621Y-52091884D01*
X58798283Y-52128414D01*
X58811437Y-52136359D01*
X58872378Y-52176411D01*
X58933250Y-52222710D01*
X58947549Y-52234894D01*
X58974775Y-52257218D01*
X59002612Y-52273987D01*
X59036465Y-52286097D01*
X59081737Y-52294443D01*
X59143831Y-52299920D01*
X59228151Y-52303423D01*
X59340101Y-52305847D01*
X59379821Y-52306497D01*
X59476375Y-52306742D01*
X59550822Y-52302957D01*
X59615614Y-52293638D01*
X59683204Y-52277282D01*
X59726342Y-52264664D01*
X59867965Y-52214029D01*
X60017612Y-52147429D01*
X60159215Y-52072435D01*
X60238355Y-52023427D01*
X60307371Y-51970404D01*
X60388844Y-51896956D01*
X60475235Y-51810960D01*
X60559006Y-51720293D01*
X60632621Y-51632833D01*
X60688540Y-51556456D01*
X60695211Y-51546001D01*
X60752755Y-51448024D01*
X60798638Y-51355432D01*
X60837866Y-51256475D01*
X60875446Y-51139401D01*
X60890069Y-51088668D01*
X60910535Y-51012124D01*
X60924383Y-50947068D01*
X60932838Y-50882973D01*
X60937121Y-50809316D01*
X60938456Y-50715570D01*
X60938444Y-50672307D01*
X60935892Y-50553731D01*
X60929291Y-50444810D01*
X60919309Y-50351155D01*
X60906615Y-50278377D01*
X60891878Y-50232087D01*
X60884724Y-50221360D01*
X60866010Y-50224866D01*
X60826061Y-50244155D01*
X60772273Y-50275486D01*
X60750736Y-50289128D01*
X60601470Y-50378547D01*
X60453946Y-50451037D01*
X60301683Y-50508512D01*
X60138200Y-50552886D01*
X59957017Y-50586072D01*
X59751654Y-50609983D01*
X59631943Y-50619471D01*
X59565495Y-50619368D01*
X59474967Y-50612899D01*
X59370062Y-50601411D01*
X59260485Y-50586249D01*
X59155939Y-50568760D01*
X59066126Y-50550289D01*
X59000751Y-50532182D01*
X58999542Y-50531755D01*
X58824413Y-50464238D01*
X58655135Y-50388899D01*
X58499220Y-50309499D01*
X58364182Y-50229802D01*
X58280510Y-50171632D01*
X58209234Y-50111457D01*
X58125033Y-50031066D01*
X58035238Y-49938355D01*
X57947182Y-49841221D01*
X57868195Y-49747562D01*
X57805610Y-49665276D01*
X57792281Y-49645739D01*
X57749906Y-49584960D01*
X57712215Y-49537027D01*
X57684415Y-49508251D01*
X57674397Y-49502799D01*
X57655963Y-49517856D01*
X57634675Y-49556338D01*
X57623206Y-49586160D01*
X57585453Y-49675596D01*
X57528526Y-49779727D01*
X57458218Y-49889224D01*
X57380326Y-49994758D01*
X57336710Y-50047322D01*
X57290647Y-50102573D01*
X57254964Y-50149756D01*
X57234866Y-50181776D01*
X57232284Y-50189673D01*
X56513601Y-50189673D01*
X56552629Y-50176076D01*
X56716341Y-50090724D01*
X56862490Y-49985311D01*
X56987787Y-49863120D01*
X57088943Y-49727434D01*
X57162668Y-49581535D01*
X57205674Y-49428705D01*
X57209313Y-49405081D01*
X57219668Y-49329538D01*
X54875940Y-49329538D01*
X54875940Y-49371597D01*
X54091543Y-49371597D01*
X54123216Y-49314652D01*
X54177797Y-49204358D01*
X54220361Y-49104466D01*
X54243517Y-49034995D01*
X54265806Y-48952734D01*
X54290691Y-48862168D01*
X54305272Y-48809756D01*
X54317927Y-48744635D01*
X54327795Y-48654858D01*
X54334694Y-48549082D01*
X54338442Y-48435965D01*
X54338469Y-48428583D01*
X54858614Y-48428583D01*
X57232284Y-48428583D01*
X57232284Y-48358173D01*
X57752065Y-48358173D01*
X57758586Y-48483663D01*
X57776620Y-48626029D01*
X57803873Y-48773559D01*
X57838053Y-48914538D01*
X57876867Y-49037255D01*
X57893042Y-49078288D01*
X58010072Y-49313378D01*
X58151287Y-49523843D01*
X58317184Y-49710350D01*
X58455174Y-49832569D01*
X58521748Y-49881632D01*
X58604589Y-49936397D01*
X58695617Y-49992164D01*
X58786750Y-50044233D01*
X58869909Y-50087904D01*
X58937013Y-50118478D01*
X58962086Y-50127404D01*
X59018144Y-50144134D01*
X59085403Y-50164157D01*
X59112161Y-50172109D01*
X59180001Y-50188557D01*
X59267846Y-50204706D01*
X59365181Y-50219173D01*
X59461491Y-50230571D01*
X59546260Y-50237516D01*
X59608975Y-50238623D01*
X59614617Y-50238291D01*
X59663562Y-50234790D01*
X59734567Y-50229727D01*
X59815124Y-50223992D01*
X59846306Y-50221775D01*
X59920853Y-50215621D01*
X59983730Y-50207551D01*
X60043049Y-50195441D01*
X60106920Y-50177165D01*
X60183456Y-50150597D01*
X60280767Y-50113611D01*
X60324985Y-50096342D01*
X60511832Y-50010705D01*
X60681647Y-49905311D01*
X60844630Y-49773634D01*
X60879511Y-49741497D01*
X60935966Y-49689118D01*
X60983560Y-49646279D01*
X61016408Y-49618201D01*
X61027853Y-49609958D01*
X61042927Y-49621713D01*
X61066019Y-49661519D01*
X61095121Y-49724259D01*
X61128226Y-49804815D01*
X61163328Y-49898068D01*
X61198419Y-49998900D01*
X61231492Y-50102192D01*
X61260541Y-50202826D01*
X61260993Y-50204504D01*
X61277644Y-50269647D01*
X61290151Y-50329076D01*
X61299288Y-50390108D01*
X61305828Y-50460060D01*
X61310546Y-50546251D01*
X61314215Y-50655997D01*
X61315953Y-50724286D01*
X61324227Y-51070807D01*
X61253519Y-51303716D01*
X61224380Y-51394427D01*
X61194489Y-51478460D01*
X61166998Y-51547505D01*
X61145061Y-51593249D01*
X61141452Y-51599122D01*
X61109829Y-51650901D01*
X61073532Y-51715985D01*
X61052682Y-51756049D01*
X60987466Y-51863442D01*
X60897704Y-51979100D01*
X60790076Y-52096267D01*
X60671264Y-52208190D01*
X60547948Y-52308114D01*
X60426811Y-52389284D01*
X60425652Y-52389967D01*
X60329485Y-52440180D01*
X60210482Y-52492639D01*
X60079848Y-52543111D01*
X59948788Y-52587362D01*
X59828506Y-52621160D01*
X59790978Y-52629747D01*
X59758173Y-52642766D01*
X59748461Y-52659175D01*
X59766355Y-52671277D01*
X59809514Y-52690238D01*
X59869907Y-52713314D01*
X59939505Y-52737758D01*
X60010277Y-52760826D01*
X60074194Y-52779771D01*
X60123226Y-52791848D01*
X60144968Y-52794749D01*
X60178424Y-52801280D01*
X60227846Y-52817744D01*
X60249913Y-52826606D01*
X60304650Y-52844966D01*
X60378638Y-52863541D01*
X60456702Y-52878565D01*
X60463593Y-52879642D01*
X60538340Y-52892306D01*
X60607718Y-52906185D01*
X60658168Y-52918537D01*
X60662843Y-52919955D01*
X60727072Y-52934237D01*
X60820021Y-52946714D01*
X60935795Y-52957176D01*
X61068499Y-52965413D01*
X61212236Y-52971214D01*
X61361113Y-52974370D01*
X61509233Y-52974669D01*
X61650702Y-52971901D01*
X61779624Y-52965856D01*
X61834792Y-52961774D01*
X61967822Y-52946814D01*
X62123349Y-52923327D01*
X62292040Y-52893210D01*
X62464562Y-52858359D01*
X62631583Y-52820671D01*
X62783770Y-52782044D01*
X62911791Y-52744374D01*
X62923893Y-52740405D01*
X63013845Y-52707469D01*
X63122657Y-52662910D01*
X63241313Y-52610871D01*
X63360799Y-52555497D01*
X63472102Y-52500931D01*
X63566206Y-52451318D01*
X63616936Y-52421806D01*
X63669356Y-52390534D01*
X63713452Y-52366301D01*
X63733248Y-52357002D01*
X63772435Y-52337046D01*
X63830569Y-52301219D01*
X63899441Y-52255179D01*
X63970842Y-52204581D01*
X64036564Y-52155080D01*
X64088399Y-52112333D01*
X64088575Y-52112177D01*
X64137403Y-52069914D01*
X64203456Y-52014346D01*
X64276840Y-51953739D01*
X64327304Y-51912717D01*
X64429690Y-51823844D01*
X64545716Y-51712564D01*
X64669687Y-51585228D01*
X64795907Y-51448187D01*
X64918683Y-51307791D01*
X65032319Y-51170391D01*
X65131122Y-51042337D01*
X65209397Y-50929980D01*
X65211590Y-50926573D01*
X65409921Y-50585795D01*
X65580034Y-50226349D01*
X65720888Y-49851070D01*
X65831440Y-49462789D01*
X65910647Y-49064342D01*
X65920268Y-49000343D01*
X65929282Y-48924472D01*
X65935918Y-48836342D01*
X65940337Y-48731148D01*
X65942699Y-48604086D01*
X65943166Y-48450352D01*
X65942523Y-48333290D01*
X65941192Y-48188166D01*
X65939456Y-48071144D01*
X65936814Y-47975674D01*
X65932765Y-47895205D01*
X65926809Y-47823188D01*
X65918445Y-47753073D01*
X65907173Y-47678308D01*
X65892490Y-47592345D01*
X65880929Y-47527628D01*
X65836397Y-47308638D01*
X65782009Y-47096085D01*
X65714641Y-46879180D01*
X65631168Y-46647133D01*
X65609959Y-46592021D01*
X65575855Y-46504947D01*
X65547340Y-46434888D01*
X65520826Y-46374729D01*
X65492724Y-46317355D01*
X65459445Y-46255651D01*
X65417401Y-46182503D01*
X65363005Y-46090795D01*
X65325955Y-46028924D01*
X65253387Y-45909122D01*
X65188618Y-45805854D01*
X65127840Y-45714342D01*
X65067239Y-45629812D01*
X65003007Y-45547487D01*
X64931330Y-45462590D01*
X64848399Y-45370345D01*
X64750402Y-45265976D01*
X64633528Y-45144707D01*
X64561206Y-45070493D01*
X64450534Y-44960393D01*
X64344884Y-44862871D01*
X64236647Y-44771719D01*
X64118215Y-44680729D01*
X63981977Y-44583693D01*
X63876827Y-44512124D01*
X63756453Y-44435935D01*
X63617501Y-44355685D01*
X63467062Y-44274863D01*
X63312228Y-44196957D01*
X63160090Y-44125456D01*
X63017739Y-44063849D01*
X62892266Y-44015624D01*
X62819937Y-43992178D01*
X62641896Y-43942030D01*
X62478396Y-43898952D01*
X62332193Y-43863508D01*
X62206042Y-43836264D01*
X62102698Y-43817784D01*
X62024915Y-43808635D01*
X61975449Y-43809381D01*
X61959540Y-43815679D01*
X61957643Y-43832728D01*
X61984472Y-43855074D01*
X62016546Y-43872706D01*
X62197171Y-43979964D01*
X62375089Y-44115622D01*
X62543700Y-44273648D01*
X62696406Y-44448010D01*
X62796137Y-44585286D01*
X62850604Y-44669761D01*
X62903273Y-44755799D01*
X62948223Y-44833467D01*
X62979538Y-44892831D01*
X62980129Y-44894067D01*
X63030106Y-45014072D01*
X63078947Y-45159771D01*
X63124032Y-45322241D01*
X63162737Y-45492557D01*
X63175576Y-45559390D01*
X63188234Y-45632986D01*
X63197459Y-45699020D01*
X63203607Y-45764671D01*
X63207040Y-45837118D01*
X63208114Y-45923540D01*
X63207189Y-46031117D01*
X63205017Y-46148476D01*
X63200728Y-46304322D01*
X63194076Y-46434953D01*
X63183607Y-46549127D01*
X63167865Y-46655603D01*
X63145396Y-46763139D01*
X63114745Y-46880491D01*
X63074459Y-47016419D01*
X63045431Y-47109351D01*
X62941746Y-47394187D01*
X62810633Y-47683343D01*
X62656768Y-47968100D01*
X62484831Y-48239739D01*
X62315993Y-48468949D01*
X62260297Y-48534712D01*
X62185605Y-48616771D01*
X62097665Y-48709370D01*
X62002223Y-48806752D01*
X61905028Y-48903163D01*
X61811826Y-48992846D01*
X61728366Y-49070045D01*
X61660394Y-49129005D01*
X61642785Y-49143134D01*
X61596470Y-49180429D01*
X61544323Y-49224025D01*
X61532405Y-49234245D01*
X61477532Y-49278683D01*
X61397894Y-49338959D01*
X61297725Y-49411937D01*
X61181256Y-49494482D01*
X61177941Y-49496803D01*
X61130878Y-49524889D01*
X61104368Y-49530511D01*
X61100944Y-49514331D01*
X61119746Y-49481606D01*
X61236496Y-49305231D01*
X61326756Y-49132942D01*
X61395010Y-48957028D01*
X61438855Y-48803812D01*
X61469335Y-48655767D01*
X61484955Y-48521632D01*
X61485599Y-48427702D01*
X61481536Y-48358795D01*
X61476559Y-48270441D01*
X61471515Y-48177803D01*
X61469643Y-48142440D01*
X61443173Y-47941720D01*
X61386032Y-47736367D01*
X61300708Y-47531816D01*
X61189690Y-47333496D01*
X61055465Y-47146842D01*
X60967040Y-47045078D01*
X60876317Y-46960003D01*
X60760520Y-46870142D01*
X60627759Y-46780692D01*
X60486146Y-46696847D01*
X60343790Y-46623802D01*
X60237166Y-46577554D01*
X60185618Y-46561203D01*
X60109922Y-46542107D01*
X60020204Y-46522626D01*
X59926591Y-46505119D01*
X59925297Y-46504899D01*
X59670642Y-46477994D01*
X59421229Y-46484152D01*
X59179364Y-46522729D01*
X58947350Y-46593083D01*
X58727493Y-46694569D01*
X58522095Y-46826544D01*
X58392306Y-46932973D01*
X58260183Y-47059551D01*
X58150065Y-47183580D01*
X58056263Y-47313350D01*
X57973092Y-47457147D01*
X57894863Y-47623257D01*
X57858300Y-47711111D01*
X57831469Y-47793820D01*
X57806087Y-47901086D01*
X57783812Y-48022816D01*
X57766299Y-48148915D01*
X57755208Y-48269291D01*
X57752065Y-48358173D01*
X57232284Y-48358173D01*
X57232284Y-47510302D01*
X54858614Y-47510302D01*
X54858614Y-48428583D01*
X54338469Y-48428583D01*
X54338855Y-48324164D01*
X54335751Y-48222336D01*
X54328948Y-48139138D01*
X54320437Y-48090725D01*
X54248161Y-47848316D01*
X54165343Y-47634526D01*
X54069391Y-47444245D01*
X53957712Y-47272364D01*
X53827712Y-47113774D01*
X53820838Y-47106268D01*
X53727680Y-47018221D01*
X53609567Y-46926681D01*
X53475074Y-46836890D01*
X53332781Y-46754089D01*
X53191264Y-46683521D01*
X53059101Y-46630426D01*
X53023318Y-46618916D01*
X52784407Y-46563781D01*
X52541471Y-46539387D01*
X52299270Y-46545363D01*
X52062562Y-46581334D01*
X51836105Y-46646930D01*
X51654662Y-46725992D01*
X51425200Y-46860515D01*
X51223896Y-47014895D01*
X51050293Y-47189749D01*
X50903936Y-47385689D01*
X50784367Y-47603332D01*
X50691130Y-47843293D01*
X50623767Y-48106185D01*
X50621696Y-48116714D01*
X50599010Y-48308005D01*
X50600832Y-48516955D01*
X50626708Y-48737190D01*
X50676179Y-48962336D01*
X50684333Y-48991680D01*
X50708328Y-49059447D01*
X50745244Y-49144351D01*
X50790607Y-49237828D01*
X50839939Y-49331309D01*
X50888764Y-49416230D01*
X50932605Y-49484024D01*
X50959756Y-49518733D01*
X51008389Y-49574888D01*
X51030854Y-49608623D01*
X51026820Y-49620607D01*
X50995955Y-49611509D01*
X50937931Y-49581999D01*
X50930545Y-49577909D01*
X50869989Y-49542485D01*
X50808416Y-49502449D01*
X50740034Y-49453608D01*
X50659051Y-49391769D01*
X50559673Y-49312742D01*
X50521503Y-49281892D01*
X50404940Y-49187188D01*
X50310873Y-49110063D01*
X50234730Y-49046456D01*
X50171941Y-48992310D01*
X50117934Y-48943564D01*
X50068139Y-48896160D01*
X50017983Y-48846040D01*
X49962896Y-48789144D01*
X49942222Y-48767525D01*
X49879040Y-48700709D01*
X49825340Y-48641970D01*
X49776638Y-48585686D01*
X49728450Y-48526234D01*
X49676291Y-48457992D01*
X49615677Y-48375337D01*
X49542123Y-48272645D01*
X49498460Y-48211138D01*
X49395028Y-48050340D01*
X49291692Y-47861654D01*
X49191395Y-47651729D01*
X49097085Y-47427212D01*
X49011705Y-47194751D01*
X48938201Y-46960994D01*
X48926990Y-46921216D01*
X48898786Y-46803503D01*
X48873613Y-46668255D01*
X48852228Y-46523000D01*
X48835393Y-46375266D01*
X48823868Y-46232584D01*
X48818594Y-46106811D01*
X49220925Y-46106811D01*
X49223580Y-46353809D01*
X49245499Y-46603354D01*
X49264405Y-46730629D01*
X49301210Y-46901147D01*
X49354737Y-47085561D01*
X49422029Y-47277141D01*
X49500131Y-47469156D01*
X49586088Y-47654876D01*
X49676945Y-47827572D01*
X49769745Y-47980511D01*
X49861535Y-48106965D01*
X49876854Y-48125377D01*
X49927431Y-48188573D01*
X49978383Y-48258166D01*
X50005524Y-48298638D01*
X50045445Y-48356303D01*
X50090744Y-48413690D01*
X50135264Y-48463893D01*
X50172849Y-48500004D01*
X50197341Y-48515118D01*
X50198580Y-48515213D01*
X50211138Y-48500092D01*
X50221525Y-48463251D01*
X50222231Y-48458904D01*
X50227139Y-48416526D01*
X50233003Y-48350896D01*
X50238850Y-48273360D01*
X50241191Y-48237996D01*
X50265151Y-48028113D01*
X50309186Y-47818298D01*
X50370725Y-47617205D01*
X50447201Y-47433487D01*
X50518934Y-47302389D01*
X50595651Y-47181488D01*
X50660781Y-47084168D01*
X50719370Y-47003610D01*
X50776464Y-46932998D01*
X50837111Y-46865513D01*
X50860371Y-46841099D01*
X51055810Y-46663354D01*
X51276840Y-46508496D01*
X51522535Y-46377104D01*
X51753200Y-46283193D01*
X51846207Y-46250764D01*
X51920090Y-46227243D01*
X51984840Y-46210595D01*
X52050444Y-46198784D01*
X52126892Y-46189775D01*
X52224172Y-46181530D01*
X52268368Y-46178198D01*
X52505913Y-46168270D01*
X52721177Y-46176899D01*
X52922103Y-46205691D01*
X53116633Y-46256254D01*
X53312712Y-46330195D01*
X53518282Y-46429123D01*
X53524507Y-46432403D01*
X53603510Y-46474667D01*
X53677835Y-46515389D01*
X53738284Y-46549477D01*
X53771466Y-46569168D01*
X53815909Y-46601919D01*
X53875526Y-46652676D01*
X53944586Y-46715794D01*
X54017357Y-46785627D01*
X54088109Y-46856528D01*
X54151110Y-46922852D01*
X54200629Y-46978954D01*
X54230934Y-47019187D01*
X54234363Y-47025172D01*
X54254502Y-47062925D01*
X54273817Y-47091682D01*
X54297120Y-47112735D01*
X54329222Y-47127374D01*
X54374935Y-47136894D01*
X54439070Y-47142585D01*
X54526439Y-47145739D01*
X54641854Y-47147648D01*
X54692940Y-47148302D01*
X54830754Y-47149288D01*
X54935273Y-47148274D01*
X55007796Y-47145212D01*
X55049627Y-47140050D01*
X55061997Y-47134054D01*
X55058806Y-47110038D01*
X55044701Y-47063297D01*
X55022512Y-47002919D01*
X55016493Y-46987886D01*
X54986056Y-46912009D01*
X54949668Y-46819742D01*
X54913632Y-46727106D01*
X54901662Y-46695977D01*
X54838872Y-46545940D01*
X54762099Y-46384651D01*
X54676200Y-46220958D01*
X54586030Y-46063709D01*
X54496446Y-45921754D01*
X54412305Y-45803940D01*
X54411563Y-45802985D01*
X54190148Y-45531353D01*
X53972052Y-45290581D01*
X53754240Y-45077463D01*
X53585149Y-44930473D01*
X53520288Y-44878113D01*
X53447491Y-44821022D01*
X53372068Y-44763164D01*
X53299334Y-44708506D01*
X53234600Y-44661014D01*
X53183179Y-44624653D01*
X53150384Y-44603388D01*
X53141786Y-44599524D01*
X53122083Y-44590531D01*
X53080153Y-44566174D01*
X53022554Y-44530390D01*
X52968663Y-44495568D01*
X52901941Y-44453193D01*
X52844165Y-44419148D01*
X52802388Y-44397428D01*
X52785283Y-44391612D01*
X52758496Y-44383970D01*
X52710962Y-44363803D01*
X52652321Y-44335248D01*
X52644239Y-44331060D01*
X52553444Y-44287471D01*
X52438024Y-44237816D01*
X52306717Y-44185400D01*
X52168260Y-44133525D01*
X52031391Y-44085496D01*
X51904846Y-44044616D01*
X51826590Y-44021888D01*
X51745162Y-44000419D01*
X51678960Y-43985568D01*
X51618013Y-43976203D01*
X51552349Y-43971194D01*
X51471997Y-43969408D01*
X51366983Y-43969714D01*
X51366905Y-43969715D01*
X51258421Y-43971325D01*
X51173865Y-43975021D01*
X51102520Y-43982099D01*
X51033671Y-43993859D01*
X50956603Y-44011600D01*
X50899102Y-44026406D01*
X50719298Y-44078385D01*
X50553174Y-44135570D01*
X50405773Y-44195872D01*
X50282140Y-44257206D01*
X50187319Y-44317485D01*
X50177775Y-44324817D01*
X50124160Y-44362093D01*
X50068994Y-44393230D01*
X50055776Y-44399243D01*
X50008619Y-44428635D01*
X49946788Y-44481393D01*
X49875148Y-44552264D01*
X49798565Y-44635995D01*
X49721904Y-44727336D01*
X49650033Y-44821034D01*
X49604323Y-44886498D01*
X49484220Y-45083983D01*
X49389034Y-45280376D01*
X49325327Y-45448791D01*
X49272120Y-45647532D01*
X49237213Y-45869129D01*
X49220925Y-46106811D01*
X48818594Y-46106811D01*
X48818412Y-46102482D01*
X48819786Y-45992488D01*
X48826324Y-45923958D01*
X48838222Y-45840192D01*
X48849385Y-45749297D01*
X48855461Y-45691066D01*
X48870313Y-45590182D01*
X48897185Y-45466923D01*
X48933516Y-45330350D01*
X48976746Y-45189523D01*
X49024314Y-45053502D01*
X49063569Y-44954709D01*
X49084317Y-44913888D01*
X49119776Y-44852400D01*
X49165174Y-44778228D01*
X49215734Y-44699358D01*
X49221395Y-44690755D01*
X49304561Y-44575195D01*
X49403749Y-44454230D01*
X49512321Y-44334788D01*
X49623641Y-44223798D01*
X49731069Y-44128189D01*
X49827968Y-44054888D01*
X49835073Y-44050191D01*
X49911165Y-44000136D01*
X49962191Y-43965299D01*
X49992348Y-43942342D01*
X50005833Y-43927926D01*
X50006844Y-43918712D01*
X50004442Y-43915469D01*
X49979596Y-43911217D01*
X49926797Y-43916517D01*
X49850995Y-43930045D01*
X49757137Y-43950477D01*
X49650172Y-43976490D01*
X49535050Y-44006758D01*
X49416717Y-44039960D01*
X49300124Y-44074769D01*
X49190219Y-44109863D01*
X49091949Y-44143917D01*
X49010265Y-44175608D01*
X48976417Y-44190512D01*
X48807549Y-44269716D01*
X48664746Y-44338178D01*
X48542422Y-44399253D01*
X48434986Y-44456297D01*
X48336852Y-44512666D01*
X48242430Y-44571714D01*
X48146132Y-44636799D01*
X48042370Y-44711275D01*
X47925555Y-44798498D01*
X47790098Y-44901824D01*
X47783919Y-44906565D01*
X47701404Y-44975197D01*
X47603345Y-45065300D01*
X47495386Y-45170925D01*
X47383171Y-45286125D01*
X47272344Y-45404950D01*
X47168550Y-45521454D01*
X47077432Y-45629686D01*
X47004635Y-45723699D01*
X46992584Y-45740538D01*
X46896139Y-45883033D01*
X46799878Y-46035190D01*
X46707410Y-46190594D01*
X46622343Y-46342832D01*
X46548287Y-46485488D01*
X46488852Y-46612146D01*
X46454520Y-46696917D01*
X46391692Y-46871471D01*
X46340223Y-47021364D01*
X46298148Y-47153925D01*
X46263499Y-47276479D01*
X46234309Y-47396353D01*
X46208613Y-47520875D01*
X46184443Y-47657372D01*
X46166414Y-47770193D01*
X46138020Y-48000633D01*
X46121040Y-48244610D01*
X46115540Y-48492241D01*
X45746444Y-48492241D01*
X45746237Y-48371387D01*
X45750087Y-48252468D01*
X45758124Y-48154067D01*
X45762104Y-48125377D01*
X45771697Y-48054423D01*
X45780903Y-47967417D01*
X45787762Y-47882921D01*
X45787876Y-47881150D01*
X45802902Y-47738200D01*
X45830464Y-47570008D01*
X45869067Y-47383017D01*
X45917219Y-47183667D01*
X45973423Y-46978403D01*
X46036185Y-46773665D01*
X46064845Y-46687314D01*
X46110147Y-46565750D01*
X46167361Y-46430504D01*
X46233849Y-46286405D01*
X46306977Y-46138285D01*
X46384106Y-45990973D01*
X46462601Y-45849298D01*
X46539825Y-45718092D01*
X46613142Y-45602184D01*
X46679915Y-45506404D01*
X46737508Y-45435582D01*
X46760971Y-45412004D01*
X46792792Y-45379016D01*
X46838309Y-45326698D01*
X46890387Y-45263411D01*
X46923280Y-45221769D01*
X47045034Y-45077326D01*
X47192037Y-44923478D01*
X47358180Y-44765572D01*
X47537357Y-44608955D01*
X47723460Y-44458975D01*
X47910382Y-44320977D01*
X48084987Y-44204699D01*
X48222068Y-44122824D01*
X48370408Y-44041188D01*
X48523033Y-43963134D01*
X48672969Y-43892007D01*
X48813239Y-43831150D01*
X48936870Y-43783907D01*
X49012678Y-43759918D01*
X49070837Y-43743259D01*
X49147208Y-43720679D01*
X49226929Y-43696583D01*
X49240585Y-43692394D01*
X49346585Y-43662054D01*
X49467733Y-43631054D01*
X49595437Y-43601254D01*
X49721102Y-43574516D01*
X49836137Y-43552702D01*
X49931948Y-43537672D01*
X49978585Y-43532524D01*
X50052039Y-43525461D01*
X50144517Y-43514999D01*
X50240777Y-43502908D01*
X50283563Y-43497087D01*
X50434004Y-43482809D01*
X50609203Y-43477546D01*
X50800606Y-43480758D01*
X50999663Y-43491906D01*
X51197820Y-43510452D01*
X51386526Y-43535856D01*
X51557230Y-43567580D01*
X51614806Y-43580983D01*
X51661618Y-43590303D01*
X51692596Y-43592186D01*
X51697893Y-43590440D01*
X51694394Y-43572171D01*
X51676387Y-43533427D01*
X51651168Y-43488425D01*
X51612388Y-43422169D01*
X51573388Y-43353291D01*
X51553743Y-43317396D01*
X51510328Y-43237138D01*
X51467288Y-43159641D01*
X51416073Y-43069533D01*
X51409181Y-43057505D01*
X51377553Y-42996229D01*
X51344133Y-42922210D01*
X51325380Y-42875582D01*
X51295533Y-42801150D01*
X51259309Y-42717585D01*
X51233912Y-42662695D01*
X51206692Y-42598477D01*
X51173862Y-42509213D01*
X51138214Y-42403475D01*
X51102540Y-42289834D01*
X51069633Y-42176863D01*
X51043630Y-42078583D01*
X51029314Y-42024222D01*
X51009689Y-41953856D01*
X50993100Y-41896659D01*
X50975676Y-41829474D01*
X50963701Y-41767305D01*
X50960000Y-41728863D01*
X50956495Y-41684222D01*
X50947053Y-41619624D01*
X50933697Y-41548837D01*
X50933295Y-41546939D01*
X50913108Y-41442249D01*
X50897698Y-41337571D01*
X50886536Y-41226073D01*
X50879094Y-41100918D01*
X50874842Y-40955270D01*
X50874519Y-40920157D01*
X51236009Y-40920157D01*
X51236256Y-40986295D01*
X51238310Y-41019166D01*
X51245859Y-41076592D01*
X51255663Y-41155249D01*
X51266091Y-41241931D01*
X51270732Y-41281584D01*
X51289754Y-41440401D01*
X51306238Y-41566110D01*
X51320402Y-41660146D01*
X51332464Y-41723942D01*
X51342644Y-41758934D01*
X51343781Y-41761328D01*
X51355330Y-41793121D01*
X51370243Y-41846424D01*
X51383060Y-41899937D01*
X51408552Y-42009219D01*
X51435648Y-42115460D01*
X51462167Y-42210788D01*
X51485926Y-42287331D01*
X51503571Y-42334618D01*
X51520549Y-42374928D01*
X51545861Y-42437356D01*
X51575391Y-42511683D01*
X51592373Y-42555050D01*
X51626401Y-42638235D01*
X51663183Y-42721446D01*
X51696740Y-42791381D01*
X51709175Y-42814940D01*
X51742246Y-42874831D01*
X51784512Y-42951523D01*
X51828495Y-43031440D01*
X51842824Y-43057505D01*
X51884869Y-43132185D01*
X51927567Y-43205014D01*
X51963829Y-43263992D01*
X51974782Y-43280778D01*
X52015549Y-43342706D01*
X52059934Y-43411865D01*
X52077782Y-43440256D01*
X52114180Y-43494077D01*
X52163719Y-43561358D01*
X52216916Y-43629308D01*
X52227968Y-43642833D01*
X52257098Y-43677918D01*
X52283121Y-43707046D01*
X52309970Y-43732441D01*
X52341583Y-43756326D01*
X52381893Y-43780924D01*
X52434837Y-43808457D01*
X52504350Y-43841148D01*
X52594367Y-43881220D01*
X52708823Y-43930897D01*
X52831465Y-43983709D01*
X52907583Y-44018747D01*
X52984413Y-44057799D01*
X53045859Y-44092667D01*
X53048041Y-44094029D01*
X53115114Y-44135218D01*
X53187284Y-44178186D01*
X53218709Y-44196381D01*
X53272136Y-44229178D01*
X53340963Y-44274601D01*
X53412888Y-44324458D01*
X53435285Y-44340546D01*
X53503044Y-44388801D01*
X53569208Y-44434348D01*
X53622714Y-44469623D01*
X53637127Y-44478579D01*
X53737940Y-44550479D01*
X53852915Y-44653107D01*
X53923007Y-44723472D01*
X53969390Y-44770663D01*
X53998411Y-44796399D01*
X54016095Y-44804799D01*
X54028463Y-44799981D01*
X54031192Y-44797433D01*
X54030235Y-44777470D01*
X54017337Y-44736329D01*
X54001697Y-44697808D01*
X53976258Y-44634429D01*
X53947801Y-44555034D01*
X53922932Y-44478242D01*
X53898742Y-44400834D01*
X53873114Y-44322960D01*
X53851662Y-44261666D01*
X53836809Y-44217197D01*
X53814999Y-44146452D01*
X53788287Y-44056618D01*
X53758729Y-43954878D01*
X53728378Y-43848419D01*
X53699290Y-43744424D01*
X53673519Y-43650079D01*
X53653120Y-43572569D01*
X53643562Y-43533972D01*
X53626233Y-43468799D01*
X53605756Y-43401844D01*
X53603581Y-43395363D01*
X53590382Y-43347747D01*
X53574514Y-43277478D01*
X53558501Y-43196167D01*
X53550857Y-43152799D01*
X53534015Y-43054195D01*
X53514303Y-42940985D01*
X53495122Y-42832643D01*
X53488827Y-42797614D01*
X53456596Y-42596221D01*
X53429772Y-42382148D01*
X53409096Y-42164628D01*
X53395310Y-41952898D01*
X53389158Y-41756191D01*
X53389806Y-41705198D01*
X53755067Y-41705198D01*
X53763547Y-41967418D01*
X53787035Y-42250893D01*
X53825554Y-42558812D01*
X53879127Y-42894363D01*
X53886495Y-42936223D01*
X53916288Y-43097683D01*
X53944876Y-43237470D01*
X53975147Y-43368320D01*
X54009989Y-43502969D01*
X54037633Y-43602729D01*
X54060314Y-43685523D01*
X54079016Y-43758693D01*
X54091831Y-43814429D01*
X54096853Y-43844919D01*
X54096862Y-43845293D01*
X54102839Y-43876909D01*
X54118291Y-43931243D01*
X54140370Y-43998630D01*
X54150667Y-44027764D01*
X54177311Y-44103470D01*
X54210144Y-44199682D01*
X54244933Y-44303859D01*
X54276419Y-44400275D01*
X54304541Y-44486051D01*
X54330426Y-44562202D01*
X54351532Y-44621442D01*
X54365318Y-44656486D01*
X54367085Y-44660166D01*
X54381525Y-44695178D01*
X54400281Y-44750208D01*
X54415028Y-44798774D01*
X54436047Y-44866331D01*
X54458600Y-44930229D01*
X54472041Y-44963372D01*
X54496751Y-45023914D01*
X54530160Y-45114291D01*
X54571057Y-45231132D01*
X54612289Y-45353208D01*
X54647424Y-45442905D01*
X54697369Y-45543428D01*
X54764801Y-45659693D01*
X54852393Y-45796614D01*
X54859116Y-45806749D01*
X54936093Y-45930961D01*
X55019616Y-46080802D01*
X55105771Y-46248866D01*
X55190642Y-46427747D01*
X55210060Y-46470739D01*
X55230003Y-46520036D01*
X55257419Y-46594333D01*
X55289446Y-46685554D01*
X55323227Y-46785622D01*
X55343480Y-46847580D01*
X55374120Y-46939938D01*
X55402170Y-47019571D01*
X55425604Y-47081107D01*
X55442398Y-47119177D01*
X55449652Y-47129129D01*
X55456874Y-47113110D01*
X55463131Y-47070280D01*
X55467448Y-47008482D01*
X55468477Y-46977526D01*
X55470397Y-46884477D01*
X55472198Y-46782437D01*
X55473511Y-46692498D01*
X55473574Y-46687314D01*
X55475057Y-46616945D01*
X55477926Y-46525638D01*
X55481852Y-46420634D01*
X55486510Y-46309177D01*
X55491572Y-46198507D01*
X55496713Y-46095868D01*
X55501605Y-46008502D01*
X55505922Y-45943651D01*
X55508341Y-45916305D01*
X55510950Y-45880183D01*
X55514219Y-45816005D01*
X55517867Y-45730351D01*
X55521617Y-45629805D01*
X55525186Y-45520948D01*
X55525282Y-45517805D01*
X55534725Y-45249463D01*
X55547627Y-44950175D01*
X55563821Y-44623458D01*
X55583143Y-44272827D01*
X55586809Y-44209688D01*
X55593622Y-44082082D01*
X55600406Y-43935570D01*
X55606491Y-43785890D01*
X55611207Y-43648783D01*
X55612269Y-43611939D01*
X55615597Y-43503118D01*
X55619502Y-43397313D01*
X55623616Y-43303175D01*
X55627573Y-43229354D01*
X55629908Y-43196114D01*
X55639968Y-43065722D01*
X55648988Y-42926219D01*
X55657517Y-42768461D01*
X55664295Y-42624354D01*
X55667724Y-42549292D01*
X55672528Y-42446548D01*
X55678378Y-42323051D01*
X55684944Y-42185729D01*
X55691896Y-42041510D01*
X55698904Y-41897323D01*
X55699360Y-41887996D01*
X55709659Y-41676096D01*
X55718392Y-41493743D01*
X55725784Y-41335881D01*
X55732057Y-41197451D01*
X55737436Y-41073396D01*
X55742145Y-40958657D01*
X55746407Y-40848176D01*
X55750446Y-40736897D01*
X55751093Y-40718488D01*
X55754863Y-40620169D01*
X55760010Y-40499003D01*
X55766007Y-40366742D01*
X55772326Y-40235140D01*
X55776363Y-40155391D01*
X55782899Y-40020269D01*
X55789542Y-39867077D01*
X55795681Y-39710917D01*
X55800708Y-39566891D01*
X55802571Y-39505664D01*
X55806069Y-39392704D01*
X55810014Y-39281499D01*
X55814061Y-39180777D01*
X55817865Y-39099267D01*
X55820403Y-39055186D01*
X55823454Y-39001913D01*
X55827461Y-38920378D01*
X55832142Y-38816946D01*
X55837217Y-38697984D01*
X55842405Y-38569861D01*
X55846408Y-38466100D01*
X55852217Y-38316417D01*
X55858827Y-38153555D01*
X55865779Y-37988306D01*
X55872617Y-37831459D01*
X55878884Y-37693804D01*
X55881293Y-37643112D01*
X55887095Y-37518445D01*
X55892645Y-37390824D01*
X55897560Y-37269638D01*
X55901460Y-37164277D01*
X55903965Y-37084130D01*
X55903966Y-37084106D01*
X55907859Y-36997881D01*
X55914214Y-36928864D01*
X55922289Y-36883560D01*
X55928397Y-36869605D01*
X55938109Y-36864105D01*
X55946335Y-36871004D01*
X55953504Y-36893603D01*
X55960044Y-36935204D01*
X55966385Y-36999109D01*
X55972956Y-37088618D01*
X55980185Y-37207033D01*
X55986142Y-37313917D01*
X55993036Y-37437865D01*
X56000469Y-37566632D01*
X56007829Y-37689953D01*
X56014505Y-37797563D01*
X56019141Y-37868351D01*
X56023891Y-37939033D01*
X56030445Y-38037891D01*
X56038383Y-38158521D01*
X56047284Y-38294518D01*
X56056729Y-38439478D01*
X56066298Y-38586996D01*
X56069124Y-38630698D01*
X56084833Y-38873138D01*
X56099646Y-39100396D01*
X56113407Y-39310164D01*
X56125965Y-39500139D01*
X56137163Y-39668014D01*
X56146848Y-39811484D01*
X56154866Y-39928245D01*
X56161064Y-40015989D01*
X56165285Y-40072413D01*
X56166421Y-40086086D01*
X56170088Y-40133228D01*
X56174972Y-40203704D01*
X56180308Y-40286254D01*
X56183435Y-40337314D01*
X56189905Y-40440801D01*
X56198279Y-40567936D01*
X56207805Y-40707817D01*
X56217727Y-40849545D01*
X56227292Y-40982216D01*
X56235747Y-41094930D01*
X56236416Y-41103570D01*
X56240735Y-41165519D01*
X56245853Y-41248362D01*
X56250939Y-41338383D01*
X56253161Y-41380787D01*
X56258046Y-41468682D01*
X56263580Y-41555464D01*
X56268881Y-41627719D01*
X56271157Y-41654095D01*
X56274089Y-41691739D01*
X56278755Y-41759791D01*
X56284892Y-41854061D01*
X56292237Y-41970362D01*
X56300526Y-42104505D01*
X56309497Y-42252303D01*
X56318887Y-42409568D01*
X56323381Y-42485745D01*
X56332802Y-42643976D01*
X56341910Y-42792986D01*
X56350449Y-42928884D01*
X56358164Y-43047779D01*
X56364801Y-43145780D01*
X56370105Y-43218995D01*
X56373820Y-43263533D01*
X56375042Y-43274081D01*
X56377726Y-43301287D01*
X56382234Y-43359544D01*
X56388329Y-43445316D01*
X56395775Y-43555063D01*
X56404338Y-43685246D01*
X56413781Y-43832327D01*
X56423869Y-43992768D01*
X56434367Y-44163029D01*
X56436155Y-44192362D01*
X56446729Y-44365006D01*
X56456918Y-44529306D01*
X56466487Y-44681589D01*
X56475198Y-44818177D01*
X56482814Y-44935395D01*
X56489100Y-45029567D01*
X56493818Y-45097018D01*
X56496731Y-45134071D01*
X56496982Y-45136632D01*
X56499197Y-45158532D01*
X56501340Y-45181682D01*
X56503585Y-45208957D01*
X56506111Y-45243234D01*
X56509094Y-45287387D01*
X56512710Y-45344293D01*
X56517136Y-45416828D01*
X56522549Y-45507866D01*
X56529126Y-45620284D01*
X56537043Y-45756957D01*
X56546477Y-45920761D01*
X56557605Y-46114571D01*
X56565113Y-46245500D01*
X56574243Y-46406164D01*
X56582721Y-46558108D01*
X56590339Y-46697410D01*
X56596891Y-46820147D01*
X56602168Y-46922396D01*
X56605963Y-47000235D01*
X56608069Y-47049741D01*
X56608435Y-47064156D01*
X56613622Y-47109735D01*
X56626081Y-47127999D01*
X56641460Y-47116309D01*
X56641585Y-47115977D01*
X57028962Y-47115977D01*
X57029329Y-47118015D01*
X57047218Y-47122431D01*
X57093441Y-47125960D01*
X57161689Y-47128596D01*
X57245657Y-47130334D01*
X57339038Y-47131168D01*
X57435523Y-47131095D01*
X57528805Y-47130109D01*
X57612578Y-47128204D01*
X57680535Y-47125375D01*
X57726367Y-47121618D01*
X57741520Y-47118593D01*
X57760372Y-47100803D01*
X57789925Y-47062238D01*
X57817849Y-47020452D01*
X57853865Y-46971286D01*
X57909191Y-46905256D01*
X57977646Y-46828968D01*
X58053049Y-46749030D01*
X58129218Y-46672049D01*
X58199972Y-46604632D01*
X58240165Y-46569040D01*
X58288369Y-46532978D01*
X58350886Y-46492418D01*
X58393129Y-46467858D01*
X58460794Y-46430034D01*
X58530598Y-46389867D01*
X58566390Y-46368680D01*
X58629385Y-46333963D01*
X58702811Y-46297960D01*
X58739651Y-46281622D01*
X58793828Y-46257852D01*
X58835562Y-46237770D01*
X58852270Y-46228111D01*
X58882336Y-46214760D01*
X58939319Y-46197740D01*
X59015894Y-46178696D01*
X59104738Y-46159273D01*
X59198524Y-46141114D01*
X59289929Y-46125865D01*
X59337400Y-46119202D01*
X59420791Y-46110205D01*
X59500775Y-46105941D01*
X59587563Y-46106378D01*
X59691366Y-46111484D01*
X59779214Y-46117787D01*
X59888491Y-46126972D01*
X59973803Y-46136554D01*
X60045797Y-46148647D01*
X60115117Y-46165367D01*
X60192409Y-46188826D01*
X60273007Y-46215880D01*
X60486394Y-46295638D01*
X60671755Y-46380104D01*
X60835710Y-46473274D01*
X60984878Y-46579144D01*
X61125877Y-46701710D01*
X61200562Y-46775843D01*
X61287247Y-46866047D01*
X61356277Y-46940391D01*
X61412263Y-47005435D01*
X61459818Y-47067738D01*
X61503554Y-47133860D01*
X61548081Y-47210362D01*
X61598013Y-47303803D01*
X61657960Y-47420744D01*
X61668400Y-47441306D01*
X61722220Y-47567262D01*
X61770023Y-47717609D01*
X61809384Y-47882274D01*
X61837881Y-48051185D01*
X61852752Y-48207676D01*
X61858864Y-48302012D01*
X61866461Y-48364906D01*
X61877250Y-48399566D01*
X61892936Y-48409199D01*
X61915228Y-48397015D01*
X61940299Y-48372273D01*
X61971721Y-48334004D01*
X62018152Y-48271868D01*
X62075925Y-48191189D01*
X62141373Y-48097289D01*
X62210828Y-47995489D01*
X62280624Y-47891114D01*
X62347093Y-47789484D01*
X62406568Y-47695922D01*
X62409116Y-47691836D01*
X62476522Y-47570880D01*
X62545466Y-47424276D01*
X62612653Y-47260692D01*
X62674788Y-47088792D01*
X62728577Y-46917244D01*
X62770724Y-46754713D01*
X62777998Y-46721543D01*
X62792167Y-46646807D01*
X62802522Y-46571508D01*
X62809661Y-46487848D01*
X62814183Y-46388033D01*
X62816687Y-46264266D01*
X62817222Y-46210848D01*
X62817422Y-46041166D01*
X62814406Y-45899312D01*
X62807233Y-45778535D01*
X62794959Y-45672085D01*
X62776644Y-45573211D01*
X62751344Y-45475162D01*
X62718117Y-45371190D01*
X62688394Y-45287883D01*
X62579466Y-45039736D01*
X62443391Y-44811705D01*
X62281943Y-44605482D01*
X62096897Y-44422757D01*
X61890029Y-44265223D01*
X61663112Y-44134572D01*
X61417921Y-44032494D01*
X61347222Y-44009564D01*
X61204072Y-43967079D01*
X61085102Y-43935116D01*
X60981972Y-43912241D01*
X60886339Y-43897021D01*
X60789860Y-43888020D01*
X60684194Y-43883806D01*
X60610865Y-43882968D01*
X60504644Y-43883031D01*
X60424421Y-43884845D01*
X60361554Y-43889372D01*
X60307396Y-43897573D01*
X60253305Y-43910409D01*
X60190636Y-43928841D01*
X60186376Y-43930158D01*
X60018127Y-43983584D01*
X59873645Y-44032246D01*
X59755776Y-44075130D01*
X59667364Y-44111225D01*
X59636641Y-44125634D01*
X59570338Y-44156488D01*
X59494689Y-44188495D01*
X59459949Y-44202039D01*
X59393831Y-44229410D01*
X59315724Y-44265495D01*
X59250718Y-44298240D01*
X59179240Y-44338828D01*
X59093066Y-44391902D01*
X58998027Y-44453434D01*
X58899949Y-44519392D01*
X58804663Y-44585747D01*
X58717996Y-44648469D01*
X58645778Y-44703528D01*
X58593838Y-44746895D01*
X58575053Y-44765378D01*
X58553380Y-44784833D01*
X58512302Y-44818164D01*
X58460227Y-44858573D01*
X58453771Y-44863474D01*
X58338037Y-44958020D01*
X58219897Y-45068929D01*
X58094931Y-45200656D01*
X57958718Y-45357659D01*
X57933565Y-45387860D01*
X57815998Y-45533786D01*
X57711190Y-45673386D01*
X57614290Y-45814100D01*
X57520451Y-45963364D01*
X57424823Y-46128618D01*
X57322559Y-46317299D01*
X57301083Y-46358119D01*
X57275944Y-46411213D01*
X57244881Y-46484629D01*
X57209942Y-46572636D01*
X57173176Y-46669506D01*
X57136632Y-46769509D01*
X57102359Y-46866915D01*
X57072407Y-46955994D01*
X57048824Y-47031017D01*
X57033659Y-47086255D01*
X57028962Y-47115977D01*
X56641585Y-47115977D01*
X56651300Y-47090145D01*
X56663039Y-47046023D01*
X56677111Y-46992803D01*
X56677712Y-46990520D01*
X56705220Y-46890517D01*
X56736644Y-46783342D01*
X56769112Y-46678195D01*
X56799754Y-46584275D01*
X56825697Y-46510781D01*
X56834563Y-46488065D01*
X56873805Y-46396909D01*
X56921960Y-46292367D01*
X56975759Y-46180841D01*
X57031933Y-46068734D01*
X57087213Y-45962448D01*
X57138327Y-45868387D01*
X57182007Y-45792952D01*
X57214984Y-45742546D01*
X57215914Y-45741301D01*
X57259876Y-45680585D01*
X57297331Y-45622533D01*
X57330841Y-45561434D01*
X57362967Y-45491578D01*
X57396272Y-45407253D01*
X57433318Y-45302750D01*
X57476667Y-45172359D01*
X57491080Y-45127969D01*
X57521411Y-45036019D01*
X57551586Y-44947688D01*
X57578299Y-44872463D01*
X57598242Y-44819831D01*
X57599768Y-44816100D01*
X57618642Y-44764359D01*
X57642752Y-44689487D01*
X57668851Y-44601950D01*
X57691266Y-44521322D01*
X57715399Y-44435316D01*
X57739550Y-44356494D01*
X57760864Y-44293770D01*
X57776059Y-44256863D01*
X57798974Y-44201592D01*
X57817913Y-44137983D01*
X57820320Y-44127152D01*
X57835109Y-44064332D01*
X57854460Y-43992853D01*
X57862104Y-43967123D01*
X57881346Y-43901470D01*
X57903160Y-43822572D01*
X57917563Y-43767874D01*
X57937961Y-43688093D01*
X57961091Y-43597546D01*
X57977317Y-43533972D01*
X57992043Y-43471130D01*
X58010539Y-43384619D01*
X58030647Y-43284912D01*
X58050210Y-43182482D01*
X58054073Y-43161462D01*
X58072686Y-43060894D01*
X58091497Y-42961847D01*
X58108558Y-42874409D01*
X58121924Y-42808664D01*
X58124283Y-42797614D01*
X58143203Y-42701522D01*
X58158521Y-42602363D01*
X58170561Y-42495321D01*
X58179646Y-42375582D01*
X58186098Y-42238330D01*
X58190241Y-42078750D01*
X58192398Y-41892028D01*
X58192856Y-41775377D01*
X58193880Y-41212280D01*
X58129231Y-40943726D01*
X58085087Y-40769362D01*
X58038409Y-40604609D01*
X57986446Y-40441233D01*
X57926450Y-40270996D01*
X57855670Y-40085663D01*
X57780588Y-39899421D01*
X57641865Y-39572205D01*
X57497042Y-39250222D01*
X57348995Y-38939364D01*
X57200596Y-38645521D01*
X57054721Y-38374583D01*
X56935893Y-38168425D01*
X56905237Y-38116614D01*
X56862420Y-38043591D01*
X56812587Y-37958163D01*
X56760887Y-37869137D01*
X56748586Y-37847893D01*
X56674208Y-37721940D01*
X56591511Y-37586244D01*
X56506959Y-37451149D01*
X56427013Y-37326998D01*
X56365882Y-37235418D01*
X56339637Y-37192903D01*
X56308623Y-37137148D01*
X56296658Y-37114136D01*
X56269457Y-37065335D01*
X56229206Y-36998955D01*
X56182603Y-36925891D01*
X56158457Y-36889429D01*
X56110356Y-36816563D01*
X56064147Y-36744373D01*
X56026923Y-36684028D01*
X56013954Y-36661889D01*
X55983420Y-36614505D01*
X55954994Y-36580849D01*
X55942261Y-36571589D01*
X55930689Y-36568682D01*
X55918835Y-36571717D01*
X55904170Y-36584203D01*
X55884163Y-36609646D01*
X55856286Y-36651554D01*
X55818008Y-36713432D01*
X55766800Y-36798789D01*
X55712991Y-36889429D01*
X55650522Y-36994807D01*
X55577679Y-37117629D01*
X55501785Y-37245548D01*
X55430166Y-37366216D01*
X55399496Y-37417874D01*
X55305604Y-37576362D01*
X55226312Y-37711182D01*
X55158231Y-37828285D01*
X55097975Y-37933621D01*
X55042158Y-38033141D01*
X54987393Y-38132797D01*
X54930294Y-38238539D01*
X54896638Y-38301503D01*
X54810977Y-38462733D01*
X54739258Y-38599191D01*
X54678758Y-38716482D01*
X54626749Y-38820213D01*
X54580507Y-38915992D01*
X54537305Y-39009423D01*
X54494418Y-39106113D01*
X54449120Y-39211670D01*
X54416508Y-39289088D01*
X54381391Y-39371904D01*
X54344692Y-39456866D01*
X54312724Y-39529408D01*
X54303907Y-39548979D01*
X54282418Y-39597677D01*
X54257410Y-39657292D01*
X54227390Y-39731602D01*
X54190867Y-39824385D01*
X54146348Y-39939418D01*
X54092341Y-40080480D01*
X54047344Y-40198706D01*
X54013403Y-40293764D01*
X53979737Y-40397723D01*
X53951475Y-40494359D01*
X53940559Y-40536564D01*
X53919011Y-40623342D01*
X53895660Y-40713582D01*
X53874831Y-40790644D01*
X53870749Y-40805118D01*
X53819435Y-41014194D01*
X53783034Y-41231774D01*
X53761570Y-41461046D01*
X53755067Y-41705198D01*
X53389806Y-41705198D01*
X53391337Y-41584790D01*
X53406203Y-41391929D01*
X53434345Y-41179842D01*
X53473610Y-40960334D01*
X53521850Y-40745210D01*
X53576914Y-40546274D01*
X53585412Y-40519238D01*
X53603470Y-40460537D01*
X53626317Y-40383181D01*
X53649605Y-40301941D01*
X53654266Y-40285336D01*
X53681220Y-40196046D01*
X53713613Y-40099005D01*
X53744796Y-40014063D01*
X53747144Y-40008119D01*
X53786737Y-39909505D01*
X53831052Y-39800524D01*
X53877089Y-39688416D01*
X53921850Y-39580421D01*
X53962336Y-39483777D01*
X53995549Y-39405726D01*
X54016278Y-39358392D01*
X54042228Y-39299944D01*
X54075318Y-39224332D01*
X54109112Y-39146276D01*
X54114751Y-39133153D01*
X54145335Y-39065324D01*
X54187519Y-38976526D01*
X54237878Y-38873519D01*
X54292988Y-38763063D01*
X54349424Y-38651918D01*
X54403762Y-38546845D01*
X54452577Y-38454603D01*
X54492444Y-38381953D01*
X54513965Y-38345116D01*
X54542807Y-38295311D01*
X54580919Y-38225573D01*
X54622271Y-38147061D01*
X54645186Y-38102253D01*
X54687725Y-38020896D01*
X54741316Y-37922608D01*
X54798958Y-37820037D01*
X54851334Y-37729743D01*
X54904109Y-37639564D01*
X54957700Y-37546299D01*
X55005956Y-37460752D01*
X55042722Y-37393729D01*
X55043708Y-37391885D01*
X55080157Y-37325471D01*
X55123266Y-37250745D01*
X55175591Y-37163500D01*
X55239690Y-37059529D01*
X55318119Y-36934625D01*
X55401822Y-36802799D01*
X55451387Y-36724552D01*
X55510508Y-36630500D01*
X55570585Y-36534355D01*
X55608321Y-36473603D01*
X55665382Y-36382551D01*
X55724538Y-36290064D01*
X55781765Y-36202256D01*
X55833036Y-36125238D01*
X55874328Y-36065120D01*
X55901615Y-36028014D01*
X55902621Y-36026773D01*
X55919214Y-36018477D01*
X55942570Y-36033433D01*
X55969955Y-36063964D01*
X55997644Y-36100326D01*
X56040056Y-36159379D01*
X56092893Y-36234851D01*
X56151857Y-36320467D01*
X56212653Y-36409954D01*
X56270984Y-36497038D01*
X56322551Y-36575444D01*
X56355828Y-36627357D01*
X56394450Y-36687980D01*
X56449078Y-36772736D01*
X56516610Y-36876847D01*
X56593945Y-36995539D01*
X56677981Y-37124035D01*
X56718547Y-37185902D01*
X56759300Y-37248959D01*
X56791752Y-37300985D01*
X56811871Y-37335409D01*
X56816458Y-37345554D01*
X56825017Y-37364662D01*
X56848149Y-37406707D01*
X56882042Y-37465251D01*
X56922881Y-37533860D01*
X56966854Y-37606099D01*
X57010145Y-37675531D01*
X57035420Y-37715039D01*
X57064090Y-37761743D01*
X57104692Y-37831177D01*
X57152759Y-37915549D01*
X57203824Y-38007061D01*
X57228997Y-38052897D01*
X57281218Y-38147602D01*
X57333906Y-38241516D01*
X57382162Y-38326018D01*
X57421089Y-38392486D01*
X57434199Y-38414122D01*
X57463254Y-38464197D01*
X57504083Y-38538677D01*
X57553140Y-38630883D01*
X57606883Y-38734138D01*
X57661767Y-38841762D01*
X57673260Y-38864599D01*
X57725095Y-38967817D01*
X57773484Y-39064090D01*
X57815628Y-39147853D01*
X57848725Y-39213542D01*
X57869974Y-39255590D01*
X57873791Y-39263099D01*
X57891925Y-39301450D01*
X57919844Y-39363856D01*
X57954053Y-39442366D01*
X57991056Y-39529029D01*
X57999469Y-39548979D01*
X58037111Y-39637409D01*
X58073266Y-39720467D01*
X58104265Y-39789845D01*
X58126437Y-39837232D01*
X58129582Y-39843522D01*
X58152782Y-39894896D01*
X58184033Y-39972484D01*
X58220918Y-40069465D01*
X58261024Y-40179018D01*
X58301935Y-40294322D01*
X58341236Y-40408557D01*
X58376513Y-40514902D01*
X58405351Y-40606536D01*
X58425335Y-40676638D01*
X58427310Y-40684432D01*
X58447755Y-40766450D01*
X58468616Y-40849378D01*
X58485890Y-40917316D01*
X58488225Y-40926400D01*
X58521991Y-41091750D01*
X58546197Y-41285151D01*
X58560863Y-41501353D01*
X58566008Y-41735103D01*
X58561651Y-41981150D01*
X58547810Y-42234245D01*
X58524506Y-42489135D01*
X58491756Y-42740570D01*
X58481444Y-42806277D01*
X58453629Y-42974973D01*
X58430387Y-43111234D01*
X58411369Y-43216926D01*
X58396227Y-43293917D01*
X58384610Y-43344071D01*
X58376170Y-43369257D01*
X58376164Y-43369267D01*
X58365227Y-43401850D01*
X58354019Y-43452620D01*
X58350517Y-43473331D01*
X58334245Y-43560496D01*
X58309289Y-43670322D01*
X58278027Y-43792634D01*
X58263431Y-43845841D01*
X58245150Y-43913083D01*
X58227760Y-43980133D01*
X58222406Y-44001775D01*
X58208383Y-44052890D01*
X58187223Y-44122310D01*
X58163318Y-44195667D01*
X58161503Y-44201025D01*
X58135744Y-44277809D01*
X58110311Y-44355180D01*
X58090629Y-44416631D01*
X58090326Y-44417601D01*
X58070716Y-44479554D01*
X58045787Y-44557125D01*
X58022137Y-44629845D01*
X58004526Y-44689217D01*
X57994911Y-44733451D01*
X57994908Y-44754664D01*
X57996379Y-44755459D01*
X58014027Y-44743992D01*
X58050862Y-44712733D01*
X58101573Y-44666399D01*
X58160847Y-44609704D01*
X58163468Y-44607144D01*
X58245006Y-44532476D01*
X58340976Y-44452237D01*
X58436796Y-44378336D01*
X58488423Y-44341806D01*
X58574418Y-44283665D01*
X58667233Y-44220819D01*
X58753498Y-44162324D01*
X58800292Y-44130541D01*
X58880031Y-44079370D01*
X58974472Y-44024701D01*
X59087561Y-43964466D01*
X59223245Y-43896595D01*
X59385467Y-43819020D01*
X59467345Y-43780780D01*
X59543911Y-43743738D01*
X59602330Y-43710075D01*
X59651016Y-43672811D01*
X59698385Y-43624964D01*
X59752849Y-43559554D01*
X59787877Y-43514852D01*
X59874006Y-43394759D01*
X59966830Y-43249482D01*
X60062189Y-43086748D01*
X60155921Y-42914279D01*
X60243864Y-42739801D01*
X60321857Y-42571037D01*
X60385738Y-42415712D01*
X60398327Y-42381789D01*
X60426877Y-42302427D01*
X60448378Y-42240392D01*
X60466079Y-42185114D01*
X60483231Y-42126027D01*
X60503084Y-42052562D01*
X60523541Y-41974627D01*
X60542731Y-41902335D01*
X60560687Y-41836698D01*
X60574049Y-41789962D01*
X60575849Y-41784040D01*
X60597431Y-41695896D01*
X60617330Y-41579329D01*
X60635063Y-41440548D01*
X60650146Y-41285764D01*
X60662097Y-41121183D01*
X60670433Y-40953016D01*
X60674670Y-40787471D01*
X60674326Y-40630757D01*
X60671941Y-40548902D01*
X60664982Y-40427111D01*
X60653987Y-40295267D01*
X60639812Y-40159748D01*
X60623314Y-40026930D01*
X60605350Y-39903190D01*
X60586777Y-39794907D01*
X60568451Y-39708458D01*
X60551229Y-39650220D01*
X60551208Y-39650167D01*
X60536059Y-39606090D01*
X60515237Y-39538491D01*
X60491750Y-39457396D01*
X60473309Y-39390456D01*
X60448116Y-39301922D01*
X60421073Y-39215327D01*
X60395934Y-39142310D01*
X60381077Y-39104576D01*
X60352955Y-39036084D01*
X60326458Y-38965434D01*
X60315715Y-38933904D01*
X60298128Y-38889673D01*
X60267338Y-38822473D01*
X60227066Y-38739575D01*
X60181033Y-38648248D01*
X60132958Y-38555761D01*
X60086564Y-38469384D01*
X60045570Y-38396388D01*
X60014208Y-38344818D01*
X59987792Y-38304298D01*
X59948751Y-38244129D01*
X59903228Y-38173787D01*
X59873810Y-38128242D01*
X59761304Y-37960811D01*
X59649079Y-37809257D01*
X59529284Y-37663884D01*
X59394066Y-37514993D01*
X59291341Y-37408852D01*
X59163730Y-37281498D01*
X59051458Y-37174289D01*
X58947186Y-37081172D01*
X58843573Y-36996091D01*
X58733280Y-36912992D01*
X58608968Y-36825820D01*
X58479760Y-36739358D01*
X58411693Y-36694351D01*
X58349550Y-36653013D01*
X58302291Y-36621315D01*
X58285421Y-36609831D01*
X58171288Y-36539813D01*
X58025972Y-36465158D01*
X57852427Y-36387169D01*
X57653608Y-36307155D01*
X57432470Y-36226420D01*
X57367524Y-36204058D01*
X57162650Y-36138025D01*
X56976979Y-36086850D01*
X56799518Y-36048385D01*
X56619279Y-36020482D01*
X56425271Y-36000993D01*
X56279351Y-35991423D01*
X56142665Y-35984059D01*
X56033777Y-35978670D01*
X55945884Y-35975296D01*
X55872184Y-35973977D01*
X55805877Y-35974753D01*
X55740161Y-35977665D01*
X55668234Y-35982751D01*
X55583296Y-35990053D01*
X55519139Y-35995891D01*
X55222246Y-36034481D01*
X54924548Y-36096574D01*
X54620306Y-36183662D01*
X54303779Y-36297236D01*
X54202491Y-36337962D01*
X54074690Y-36391211D01*
X53971601Y-36435929D01*
X53885529Y-36475855D01*
X53808777Y-36514725D01*
X53733650Y-36556275D01*
X53652452Y-36604242D01*
X53645790Y-36608271D01*
X53579403Y-36649284D01*
X53505747Y-36696096D01*
X53431059Y-36744581D01*
X53361577Y-36790613D01*
X53303536Y-36830065D01*
X53263175Y-36858810D01*
X53247290Y-36871906D01*
X53230456Y-36886288D01*
X53192478Y-36916213D01*
X53139985Y-36956500D01*
X53108682Y-36980180D01*
X52916105Y-37135142D01*
X52718697Y-37312301D01*
X52526045Y-37502342D01*
X52347731Y-37695948D01*
X52239436Y-37825036D01*
X52201527Y-37875632D01*
X52151533Y-37947125D01*
X52095382Y-38030812D01*
X52039001Y-38117987D01*
X52027070Y-38136905D01*
X51973322Y-38222321D01*
X51920883Y-38305224D01*
X51874989Y-38377364D01*
X51840874Y-38430495D01*
X51834623Y-38440111D01*
X51762354Y-38563882D01*
X51687712Y-38715692D01*
X51613083Y-38889257D01*
X51540852Y-39078292D01*
X51473406Y-39276514D01*
X51413133Y-39477637D01*
X51362417Y-39675378D01*
X51357616Y-39696250D01*
X51334573Y-39799683D01*
X51316287Y-39888360D01*
X51301788Y-39969645D01*
X51290107Y-40050904D01*
X51280276Y-40139503D01*
X51271324Y-40242806D01*
X51262283Y-40368179D01*
X51255358Y-40473395D01*
X51247830Y-40600919D01*
X51241976Y-40721720D01*
X51237976Y-40830050D01*
X51236009Y-40920157D01*
X50874519Y-40920157D01*
X50873253Y-40782295D01*
X50873230Y-40770466D01*
X50877962Y-40490114D01*
X50893727Y-40231915D01*
X50921468Y-39984871D01*
X50961833Y-39739565D01*
X50978669Y-39654108D01*
X50995996Y-39575304D01*
X51015639Y-39496644D01*
X51039420Y-39411617D01*
X51069167Y-39313712D01*
X51106702Y-39196420D01*
X51153851Y-39053230D01*
X51156079Y-39046523D01*
X51191943Y-38946387D01*
X51237583Y-38830921D01*
X51290372Y-38705736D01*
X51347683Y-38576444D01*
X51406888Y-38448656D01*
X51465359Y-38327983D01*
X51520468Y-38220038D01*
X51569589Y-38130430D01*
X51610092Y-38064772D01*
X51625979Y-38043065D01*
X51663647Y-37993176D01*
X51710256Y-37927157D01*
X51756449Y-37858303D01*
X51761619Y-37850326D01*
X51858786Y-37710392D01*
X51975628Y-37559465D01*
X52106377Y-37403837D01*
X52245265Y-37249800D01*
X52386526Y-37103647D01*
X52524391Y-36971669D01*
X52653092Y-36860158D01*
X52710046Y-36815657D01*
X52787759Y-36756527D01*
X52867050Y-36694569D01*
X52937015Y-36638380D01*
X52974997Y-36606749D01*
X53055633Y-36544320D01*
X53162129Y-36471586D01*
X53288518Y-36391940D01*
X53428830Y-36308773D01*
X53577095Y-36225480D01*
X53727346Y-36145452D01*
X53873613Y-36072082D01*
X54009926Y-36008764D01*
X54078941Y-35979268D01*
X54191445Y-35934713D01*
X54311913Y-35889939D01*
X54432318Y-35847683D01*
X54544632Y-35810681D01*
X54640827Y-35781670D01*
X54711342Y-35763708D01*
X54861758Y-35731918D01*
X54982253Y-35706956D01*
X55076728Y-35688100D01*
X55149081Y-35674628D01*
X55203213Y-35665818D01*
X55243021Y-35660948D01*
X55272407Y-35659295D01*
X55275316Y-35659279D01*
X55324507Y-35656339D01*
X55394763Y-35648528D01*
X55473091Y-35637353D01*
X55495339Y-35633719D01*
X55648352Y-35614395D01*
X55819857Y-35603503D01*
X55995765Y-35601332D01*
X56161988Y-35608170D01*
X56262024Y-35618076D01*
X56350091Y-35628305D01*
X56436934Y-35636370D01*
X56509627Y-35641156D01*
X56539241Y-35641987D01*
X56600125Y-35645893D01*
X56680691Y-35656041D01*
X56766938Y-35670545D01*
X56799132Y-35676983D01*
X56890490Y-35696103D01*
X56987766Y-35716261D01*
X57073558Y-35733856D01*
X57093675Y-35737939D01*
X57164755Y-35753189D01*
X57229199Y-35768522D01*
X57273731Y-35780768D01*
X57275599Y-35781375D01*
X57317551Y-35795058D01*
X57379836Y-35815186D01*
X57449775Y-35837664D01*
X57457522Y-35840146D01*
X57836744Y-35979628D01*
X58208195Y-36152521D01*
X58570701Y-36358220D01*
X58923091Y-36596118D01*
X58930312Y-36601410D01*
X59182690Y-36797640D01*
X59417969Y-37002651D01*
X59632168Y-37212495D01*
X59821302Y-37423226D01*
X59981390Y-37630897D01*
X60007800Y-37669101D01*
X60061873Y-37747419D01*
X60115921Y-37823280D01*
X60163402Y-37887640D01*
X60195725Y-37928992D01*
X60245635Y-37996851D01*
X60305074Y-38089775D01*
X60370254Y-38200839D01*
X60437392Y-38323117D01*
X60502700Y-38449683D01*
X60562393Y-38573610D01*
X60612684Y-38687973D01*
X60618887Y-38703141D01*
X60647544Y-38772892D01*
X60672843Y-38832487D01*
X60691013Y-38873132D01*
X60696295Y-38883686D01*
X60710827Y-38917642D01*
X60732635Y-38978869D01*
X60759862Y-39061208D01*
X60790653Y-39158504D01*
X60823152Y-39264598D01*
X60855504Y-39373334D01*
X60885853Y-39478554D01*
X60912343Y-39574102D01*
X60933118Y-39653819D01*
X60946323Y-39711550D01*
X60947231Y-39716281D01*
X60976358Y-39895667D01*
X61000783Y-40092895D01*
X61020094Y-40300392D01*
X61033877Y-40510588D01*
X61041720Y-40715909D01*
X61043212Y-40908783D01*
X61037940Y-41081639D01*
X61028227Y-41203617D01*
X61017432Y-41304086D01*
X61005898Y-41415058D01*
X60995578Y-41517622D01*
X60992413Y-41550138D01*
X60982473Y-41632171D01*
X60969486Y-41710151D01*
X60955692Y-41771374D01*
X60950421Y-41788407D01*
X60932684Y-41847474D01*
X60914852Y-41921199D01*
X60905056Y-41970331D01*
X60889206Y-42049341D01*
X60868638Y-42130984D01*
X60841475Y-42221078D01*
X60805838Y-42325443D01*
X60759850Y-42449897D01*
X60702377Y-42598365D01*
X60643150Y-42743419D01*
X60580019Y-42888018D01*
X60516047Y-43025782D01*
X60454297Y-43150331D01*
X60397833Y-43255282D01*
X60349717Y-43334256D01*
X60347652Y-43337309D01*
X60311016Y-43397022D01*
X60283596Y-43452824D01*
X60268882Y-43496487D01*
X60270282Y-43519697D01*
X60291431Y-43521118D01*
X60334665Y-43513551D01*
X60372239Y-43503815D01*
X60408656Y-43493785D01*
X60447857Y-43484387D01*
X60495350Y-43474598D01*
X60556644Y-43463399D01*
X60637250Y-43449766D01*
X60742675Y-43432680D01*
X60836104Y-43417814D01*
X60916238Y-43408502D01*
X61022454Y-43401020D01*
X61146219Y-43395514D01*
X61279002Y-43392129D01*
X61412274Y-43391011D01*
X61537504Y-43392307D01*
X61646160Y-43396162D01*
X61728292Y-43402558D01*
X61818185Y-43412258D01*
X61910144Y-43421165D01*
X61989059Y-43427849D01*
X62014275Y-43429624D01*
X62071927Y-43435949D01*
X62153997Y-43448403D01*
X62252004Y-43465342D01*
X62357467Y-43485126D01*
X62461905Y-43506111D01*
X62556838Y-43526654D01*
X62633783Y-43545113D01*
X62681329Y-43558819D01*
X62720190Y-43570839D01*
X62782521Y-43588719D01*
X62858250Y-43609608D01*
X62906567Y-43622570D01*
X62984093Y-43643674D01*
X63051817Y-43663820D01*
X63115678Y-43685418D01*
X63181612Y-43710879D01*
X63255554Y-43742612D01*
X63343441Y-43783027D01*
X63451209Y-43834534D01*
X63564958Y-43889852D01*
X63774325Y-43997795D01*
X63953087Y-44102412D01*
X64076076Y-44184816D01*
X64158184Y-44243458D01*
X64239596Y-44301342D01*
X64311552Y-44352258D01*
X64365295Y-44389993D01*
X64370619Y-44393698D01*
X64443539Y-44447856D01*
X64527369Y-44515897D01*
X64618438Y-44594257D01*
X64713077Y-44679367D01*
X64807615Y-44767662D01*
X64898383Y-44855576D01*
X64981711Y-44939542D01*
X65053928Y-45015994D01*
X65111364Y-45081366D01*
X65150350Y-45132091D01*
X65167214Y-45164603D01*
X65167618Y-45168162D01*
X65179796Y-45188772D01*
X65210908Y-45221893D01*
X65234808Y-45243570D01*
X65269868Y-45276893D01*
X65313990Y-45323273D01*
X65361111Y-45375720D01*
X65405169Y-45427242D01*
X65440101Y-45470851D01*
X65459846Y-45499554D01*
X65462161Y-45505729D01*
X65470430Y-45522660D01*
X65493064Y-45563647D01*
X65526805Y-45622912D01*
X65568392Y-45694675D01*
X65577634Y-45710479D01*
X65617919Y-45779393D01*
X65650452Y-45835783D01*
X65678427Y-45885778D01*
X65705041Y-45935508D01*
X65733486Y-45991103D01*
X65766959Y-46058693D01*
X65808653Y-46144409D01*
X65861765Y-46254379D01*
X65870018Y-46271489D01*
X65928209Y-46401332D01*
X65987984Y-46553407D01*
X66050393Y-46730697D01*
X66116488Y-46936188D01*
X66187197Y-47172444D01*
X66201282Y-47229904D01*
X66218304Y-47313348D01*
X66236719Y-47414398D01*
X66254986Y-47524679D01*
X66268486Y-47614118D01*
X66282111Y-47710856D01*
X66292637Y-47792941D01*
X66300371Y-47866902D01*
X66305614Y-47939266D01*
X66308672Y-48016564D01*
X66309849Y-48105324D01*
X66309449Y-48212074D01*
X66307776Y-48343345D01*
X66306422Y-48428442D01*
X66301573Y-48639197D01*
X66294165Y-48820533D01*
X66283692Y-48977623D01*
X66269644Y-49115637D01*
X66251516Y-49239750D01*
X66228798Y-49355133D01*
X66206510Y-49446402D01*
X66170178Y-49582964D01*
X66140084Y-49693940D01*
X66113950Y-49787334D01*
X66089495Y-49871148D01*
X66064442Y-49953385D01*
X66039949Y-50031243D01*
X65991812Y-50167157D01*
X65929662Y-50318740D01*
X65856502Y-50480356D01*
X65775333Y-50646370D01*
X65689158Y-50811147D01*
X65600979Y-50969050D01*
X65513799Y-51114444D01*
X65430620Y-51241693D01*
X65354444Y-51345162D01*
X65315475Y-51391156D01*
X65262740Y-51451379D01*
X65205852Y-51519575D01*
X65176771Y-51555936D01*
X64964093Y-51806028D01*
X64723380Y-52047374D01*
X64452756Y-52281658D01*
X64150350Y-52510566D01*
X63998109Y-52615831D01*
X63912935Y-52668490D01*
X63803033Y-52729510D01*
X63676157Y-52795188D01*
X63540062Y-52861821D01*
X63402505Y-52925705D01*
X63271241Y-52983138D01*
X63154025Y-53030416D01*
X63062152Y-53062738D01*
X62975239Y-53089966D01*
X62893696Y-53115612D01*
X62826884Y-53136725D01*
X62785285Y-53149993D01*
X62737802Y-53163475D01*
X62667924Y-53181084D01*
X62587201Y-53199971D01*
X62544341Y-53209445D01*
X62470862Y-53225823D01*
X62410267Y-53240266D01*
X62370451Y-53250840D01*
X62359364Y-53254775D01*
X62338620Y-53258958D01*
X62289055Y-53265581D01*
X62216360Y-53273986D01*
X62126229Y-53283513D01*
X62028548Y-53293106D01*
X61849554Y-53306800D01*
X61657896Y-53315670D01*
X61461410Y-53319743D01*
X61267932Y-53319048D01*
X61085298Y-53313611D01*
X60921343Y-53303462D01*
X60784125Y-53288660D01*
X60625699Y-53264918D01*
X60479180Y-53240253D01*
X60349475Y-53215634D01*
X60241491Y-53192030D01*
X60160135Y-53170407D01*
X60126200Y-53158811D01*
X60071662Y-53139559D01*
X59997580Y-53116284D01*
X59918030Y-53093363D01*
X59900496Y-53088616D01*
X59820028Y-53065284D01*
X59740322Y-53039103D01*
X59676326Y-53015040D01*
X59666595Y-53010860D01*
X59608777Y-52985158D01*
X59533617Y-52951687D01*
X59455410Y-52916816D01*
X59439161Y-52909564D01*
X59227411Y-52805886D01*
X58996019Y-52675082D01*
X58744657Y-52516955D01*
X58472998Y-52331306D01*
X58393129Y-52274276D01*
X58350554Y-52240203D01*
X58289384Y-52186667D01*
X58215333Y-52118902D01*
X58134117Y-52042139D01*
X58051453Y-51961609D01*
X58050485Y-51960650D01*
X57974902Y-51886924D01*
X57907449Y-51823277D01*
X57851980Y-51773171D01*
X57812352Y-51740069D01*
X57792419Y-51727435D01*
X57791103Y-51727699D01*
X57790571Y-51748047D01*
X57797499Y-51795433D01*
X57810712Y-51863338D01*
X57829030Y-51945241D01*
X57834566Y-51968365D01*
X57881548Y-52185414D01*
X57918105Y-52403803D01*
X57943679Y-52617203D01*
X57957707Y-52819290D01*
X57959630Y-53003737D01*
X57948888Y-53164219D01*
X57943850Y-53201912D01*
X57923493Y-53315893D01*
X57896340Y-53437542D01*
X57865055Y-53556845D01*
X57832304Y-53663792D01*
X57800751Y-53748372D01*
X57794846Y-53761665D01*
X57766690Y-53828339D01*
X57735302Y-53911187D01*
X57707138Y-53993112D01*
X57705282Y-53998910D01*
X57685395Y-54051428D01*
X57651542Y-54129602D01*
X57606121Y-54228549D01*
X57551533Y-54343381D01*
X57490177Y-54469213D01*
X57424452Y-54601158D01*
X57356757Y-54734331D01*
X57289493Y-54863845D01*
X57225059Y-54984815D01*
X57186246Y-55055800D01*
X57086863Y-55234148D01*
X57000998Y-55385536D01*
X56926354Y-55513836D01*
X56860635Y-55622922D01*
X56801543Y-55716666D01*
X56746781Y-55798941D01*
X56737648Y-55812194D01*
X56692857Y-55878493D01*
X56652457Y-55941176D01*
X56623035Y-55989923D01*
X56616033Y-56002781D01*
X56589753Y-56049471D01*
X56550532Y-56113426D01*
X56501725Y-56189722D01*
X56446686Y-56273437D01*
X56388772Y-56359647D01*
X56331338Y-56443428D01*
X56277739Y-56519858D01*
X56231330Y-56584014D01*
X56195467Y-56630971D01*
X56173505Y-56655808D01*
X56169161Y-56658460D01*
X56149467Y-56645292D01*
X56115800Y-56610025D01*
X56073961Y-56559017D01*
X56052625Y-56530737D01*
X55960122Y-56403075D01*
X55874778Y-56281976D01*
X55800173Y-56172683D01*
X55739890Y-56080440D01*
X55698928Y-56012989D01*
X55659129Y-55947926D01*
X55610233Y-55874549D01*
X55574753Y-55824962D01*
X55528566Y-55759661D01*
X55469727Y-55671311D01*
X55402049Y-55566137D01*
X55329349Y-55450361D01*
X55255440Y-55330207D01*
X55184139Y-55211898D01*
X55119260Y-55101659D01*
X55064618Y-55005712D01*
X55024029Y-54930281D01*
X55014065Y-54910326D01*
X54979065Y-54842410D01*
X54935135Y-54763065D01*
X54893951Y-54693073D01*
X54855183Y-54626267D01*
X54807724Y-54539188D01*
X54755130Y-54438924D01*
X54700955Y-54332563D01*
X54648754Y-54227195D01*
X54602079Y-54129907D01*
X54564487Y-54047788D01*
X54539531Y-53987927D01*
X54537196Y-53981584D01*
X54517297Y-53929260D01*
X54500304Y-53889966D01*
X54493560Y-53877628D01*
X54484022Y-53855981D01*
X54465812Y-53807405D01*
X54441078Y-53737890D01*
X54411966Y-53653428D01*
X54392609Y-53596029D01*
X54340132Y-53430558D01*
X54301714Y-53286604D01*
X54275896Y-53154702D01*
X54261214Y-53025388D01*
X54258426Y-52949552D01*
X54608840Y-52949552D01*
X54648864Y-53145036D01*
X54693703Y-53347053D01*
X54740033Y-53523168D01*
X54786969Y-53670262D01*
X54824391Y-53765009D01*
X54854375Y-53834881D01*
X54890164Y-53921505D01*
X54925314Y-54009218D01*
X54934834Y-54033563D01*
X54963590Y-54104721D01*
X54996167Y-54179042D01*
X55035024Y-54261539D01*
X55082618Y-54357227D01*
X55141408Y-54471122D01*
X55213851Y-54608239D01*
X55245844Y-54668173D01*
X55317017Y-54800677D01*
X55375390Y-54907982D01*
X55424100Y-54995656D01*
X55466285Y-55069271D01*
X55505081Y-55134396D01*
X55542244Y-55194408D01*
X55586965Y-55265990D01*
X55632575Y-55339904D01*
X55669634Y-55400850D01*
X55671488Y-55403941D01*
X55723199Y-55488362D01*
X55779022Y-55576366D01*
X55833615Y-55659799D01*
X55881633Y-55730505D01*
X55917732Y-55780330D01*
X55920201Y-55783494D01*
X55950391Y-55826710D01*
X55990458Y-55890513D01*
X56034903Y-55965376D01*
X56078224Y-56041773D01*
X56114921Y-56110176D01*
X56139493Y-56161058D01*
X56142670Y-56168812D01*
X56161209Y-56216646D01*
X56188692Y-56147342D01*
X56208694Y-56104935D01*
X56242308Y-56041988D01*
X56284692Y-55967292D01*
X56327048Y-55896114D01*
X56375464Y-55816821D01*
X56422431Y-55740161D01*
X56462190Y-55675520D01*
X56486523Y-55636223D01*
X56514067Y-55590286D01*
X56555315Y-55519208D01*
X56607313Y-55428232D01*
X56667109Y-55322604D01*
X56731749Y-55207569D01*
X56798281Y-55088370D01*
X56863753Y-54970253D01*
X56925211Y-54858463D01*
X56950820Y-54811528D01*
X56992394Y-54735183D01*
X57029274Y-54667567D01*
X57057573Y-54615801D01*
X57073404Y-54587002D01*
X57073800Y-54586289D01*
X57094493Y-54545975D01*
X57123915Y-54484487D01*
X57159395Y-54407855D01*
X57198262Y-54322110D01*
X57237845Y-54233282D01*
X57275472Y-54147402D01*
X57308473Y-54070499D01*
X57334176Y-54008604D01*
X57349910Y-53967748D01*
X57353566Y-53954711D01*
X57360980Y-53928010D01*
X57379037Y-53887345D01*
X57381113Y-53883278D01*
X57403834Y-53829759D01*
X57433221Y-53744819D01*
X57468511Y-53630883D01*
X57508942Y-53490376D01*
X57538187Y-53383835D01*
X57555806Y-53314318D01*
X57568178Y-53251995D01*
X57576228Y-53187867D01*
X57580881Y-53112931D01*
X57583063Y-53018186D01*
X57583593Y-52942021D01*
X57577691Y-52705068D01*
X57559176Y-52463431D01*
X57529250Y-52226260D01*
X57489116Y-52002705D01*
X57439975Y-51801916D01*
X57428731Y-51763849D01*
X57381150Y-51608324D01*
X57342035Y-51481108D01*
X57309846Y-51377332D01*
X57283038Y-51292131D01*
X57260071Y-51220637D01*
X57239401Y-51157984D01*
X57219487Y-51099305D01*
X57203596Y-51053481D01*
X57165921Y-50945963D01*
X57136603Y-50863554D01*
X57112691Y-50798603D01*
X57091234Y-50743466D01*
X57069279Y-50690493D01*
X57043876Y-50632037D01*
X57021387Y-50581346D01*
X56989348Y-50514104D01*
X56959951Y-50460749D01*
X56937161Y-50428055D01*
X56927500Y-50421080D01*
X56902185Y-50428465D01*
X56855249Y-50448049D01*
X56795776Y-50475972D01*
X56780897Y-50483360D01*
X56710713Y-50516600D01*
X56641972Y-50545876D01*
X56588610Y-50565283D01*
X56585026Y-50566348D01*
X56513252Y-50587055D01*
X56500809Y-50776953D01*
X56496752Y-50840511D01*
X56490999Y-50932938D01*
X56483900Y-51048514D01*
X56475803Y-51181515D01*
X56467058Y-51326219D01*
X56458013Y-51476906D01*
X56452263Y-51573262D01*
X56443547Y-51717915D01*
X56435138Y-51854207D01*
X56427330Y-51977608D01*
X56420418Y-52083591D01*
X56414696Y-52167625D01*
X56410458Y-52225180D01*
X56408350Y-52248979D01*
X56405490Y-52282597D01*
X56400957Y-52346197D01*
X56395047Y-52435163D01*
X56388056Y-52544879D01*
X56380279Y-52670731D01*
X56372013Y-52808102D01*
X56366167Y-52907369D01*
X56354941Y-53099663D01*
X56345435Y-53262150D01*
X56337358Y-53399616D01*
X56330421Y-53516848D01*
X56324333Y-53618632D01*
X56318803Y-53709754D01*
X56313540Y-53795002D01*
X56308256Y-53879162D01*
X56302658Y-53967019D01*
X56296456Y-54063361D01*
X56289413Y-54172171D01*
X56282344Y-54282135D01*
X56276085Y-54381264D01*
X56270974Y-54464020D01*
X56267354Y-54524866D01*
X56265565Y-54558265D01*
X56265437Y-54562007D01*
X56263954Y-54600758D01*
X56260437Y-54667748D01*
X56255275Y-54756650D01*
X56248856Y-54861138D01*
X56241568Y-54974883D01*
X56233798Y-55091557D01*
X56226674Y-55194408D01*
X56218376Y-55314894D01*
X56209375Y-55450822D01*
X56200755Y-55585526D01*
X56193602Y-55702323D01*
X56186483Y-55811128D01*
X56179637Y-55888654D01*
X56172522Y-55938265D01*
X56164597Y-55963323D01*
X56155320Y-55967192D01*
X56151480Y-55963974D01*
X56147738Y-55945327D01*
X56141126Y-55897498D01*
X56132290Y-55825777D01*
X56121878Y-55735455D01*
X56110536Y-55631822D01*
X56108241Y-55610234D01*
X56098068Y-55513011D01*
X56087961Y-55414058D01*
X56077579Y-55309755D01*
X56066582Y-55196479D01*
X56054630Y-55070608D01*
X56041381Y-54928520D01*
X56026497Y-54766595D01*
X56009635Y-54581209D01*
X55990456Y-54368742D01*
X55968619Y-54125571D01*
X55967361Y-54111530D01*
X55950890Y-53929781D01*
X55935591Y-53764995D01*
X55921771Y-53620312D01*
X55909740Y-53498870D01*
X55899805Y-53403808D01*
X55892274Y-53338267D01*
X55889056Y-53314531D01*
X55885740Y-53285483D01*
X55880009Y-53227291D01*
X55872361Y-53145343D01*
X55863292Y-53045024D01*
X55853299Y-52931720D01*
X55846692Y-52855391D01*
X55834933Y-52721532D01*
X55822326Y-52583237D01*
X55809725Y-52449497D01*
X55797981Y-52329307D01*
X55787946Y-52231660D01*
X55785127Y-52205664D01*
X55772512Y-52085615D01*
X55757457Y-51931750D01*
X55739947Y-51743907D01*
X55719968Y-51521926D01*
X55697504Y-51265649D01*
X55681466Y-51079470D01*
X55671306Y-50969000D01*
X55660340Y-50863696D01*
X55649308Y-50769521D01*
X55638951Y-50692439D01*
X55630010Y-50638411D01*
X55623643Y-50614134D01*
X55601261Y-50594275D01*
X55558315Y-50570903D01*
X55533999Y-50560593D01*
X55476612Y-50536819D01*
X55405098Y-50505046D01*
X55344784Y-50476837D01*
X55288061Y-50451546D01*
X55243382Y-50435365D01*
X55219770Y-50431522D01*
X55219047Y-50431852D01*
X55195565Y-50460850D01*
X55164661Y-50523152D01*
X55126529Y-50618261D01*
X55081367Y-50745677D01*
X55029371Y-50904901D01*
X55015357Y-50949524D01*
X54993422Y-51018720D01*
X54966094Y-51103353D01*
X54939001Y-51186007D01*
X54936987Y-51192089D01*
X54897850Y-51312508D01*
X54865956Y-51417221D01*
X54838544Y-51516701D01*
X54812854Y-51621416D01*
X54786125Y-51741838D01*
X54763381Y-51850479D01*
X54742139Y-51953480D01*
X54722081Y-52050459D01*
X54704773Y-52133861D01*
X54691784Y-52196131D01*
X54686123Y-52222990D01*
X54679173Y-52265309D01*
X54670064Y-52334970D01*
X54659634Y-52424791D01*
X54648720Y-52527591D01*
X54639180Y-52625254D01*
X54608840Y-52949552D01*
X54258426Y-52949552D01*
X54256208Y-52889197D01*
X54259417Y-52736664D01*
G37*
G36*
X44088345Y-46081011D02*
G01*
X44085278Y-45995436D01*
X44083905Y-45898414D01*
X44084301Y-45795741D01*
X44086541Y-45693210D01*
X44090699Y-45596615D01*
X44096850Y-45511751D01*
X44097829Y-45501594D01*
X44104764Y-45429894D01*
X44113959Y-45331585D01*
X44124692Y-45214579D01*
X44136239Y-45086790D01*
X44147877Y-44956131D01*
X44152580Y-44902730D01*
X44164144Y-44776087D01*
X44176321Y-44651713D01*
X44188343Y-44536822D01*
X44199444Y-44438629D01*
X44208854Y-44364348D01*
X44212494Y-44339633D01*
X44230631Y-44228458D01*
X44249891Y-44115326D01*
X44269257Y-44005715D01*
X44287710Y-43905102D01*
X44304234Y-43818966D01*
X44317811Y-43752784D01*
X44327426Y-43712035D01*
X44330870Y-43702071D01*
X44338171Y-43679053D01*
X44349944Y-43629652D01*
X44364447Y-43561578D01*
X44377199Y-43496995D01*
X44399057Y-43394611D01*
X44430026Y-43266565D01*
X44468114Y-43120016D01*
X44511331Y-42962127D01*
X44557685Y-42800061D01*
X44605185Y-42640978D01*
X44651840Y-42492040D01*
X44682436Y-42399115D01*
X44712649Y-42311145D01*
X44749356Y-42206728D01*
X44790379Y-42091818D01*
X44833541Y-41972371D01*
X44876662Y-41854340D01*
X44917564Y-41743680D01*
X44954068Y-41646346D01*
X44983997Y-41568291D01*
X45005172Y-41515471D01*
X45008879Y-41506823D01*
X45026120Y-41467475D01*
X45052554Y-41407043D01*
X45083512Y-41336204D01*
X45096017Y-41307573D01*
X45125893Y-41241035D01*
X45152027Y-41186224D01*
X45170481Y-41151251D01*
X45175500Y-41143842D01*
X45189877Y-41112205D01*
X45190674Y-41103826D01*
X45198369Y-41076876D01*
X45219751Y-41024467D01*
X45252258Y-40951749D01*
X45293333Y-40863875D01*
X45340417Y-40765993D01*
X45390950Y-40663253D01*
X45442375Y-40560807D01*
X45492131Y-40463805D01*
X45537661Y-40377397D01*
X45576405Y-40306732D01*
X45605804Y-40256963D01*
X45623158Y-40233358D01*
X45637406Y-40212669D01*
X45653881Y-40181380D01*
X45688108Y-40115856D01*
X45738977Y-40026673D01*
X45803392Y-39918654D01*
X45878258Y-39796622D01*
X45960482Y-39665400D01*
X46046967Y-39529813D01*
X46134621Y-39394683D01*
X46220347Y-39264834D01*
X46301052Y-39145089D01*
X46373641Y-39040271D01*
X46435019Y-38955205D01*
X46469276Y-38910471D01*
X46527767Y-38836301D01*
X46592137Y-38753670D01*
X46648933Y-38679856D01*
X46651437Y-38676569D01*
X46708776Y-38602660D01*
X46774221Y-38520366D01*
X46832560Y-38448774D01*
X46878244Y-38393464D01*
X46917105Y-38345975D01*
X46942436Y-38314518D01*
X46946291Y-38309569D01*
X47044580Y-38188454D01*
X47160242Y-38058468D01*
X47281343Y-37932839D01*
X47341425Y-37871837D01*
X47394551Y-37815604D01*
X47434479Y-37770886D01*
X47453635Y-37746584D01*
X47478541Y-37715881D01*
X47497424Y-37703754D01*
X47515359Y-37691918D01*
X47550836Y-37660077D01*
X47597936Y-37613730D01*
X47629708Y-37580831D01*
X47742462Y-37463129D01*
X47832832Y-37371443D01*
X47900727Y-37305865D01*
X47930664Y-37279066D01*
X47957873Y-37255106D01*
X48004857Y-37212975D01*
X48065824Y-37157894D01*
X48134986Y-37095084D01*
X48162093Y-37070384D01*
X48237176Y-37003196D01*
X48310890Y-36939512D01*
X48375956Y-36885469D01*
X48425098Y-36847206D01*
X48435258Y-36839988D01*
X48486622Y-36803124D01*
X48529878Y-36769178D01*
X48547877Y-36753086D01*
X48577556Y-36727442D01*
X48624991Y-36690815D01*
X48673211Y-36655898D01*
X48724571Y-36618838D01*
X48765402Y-36587503D01*
X48785831Y-36569671D01*
X48806813Y-36551698D01*
X48849039Y-36519239D01*
X48905377Y-36477696D01*
X48941765Y-36451528D01*
X49006658Y-36405267D01*
X49065359Y-36363382D01*
X49109108Y-36332125D01*
X49122937Y-36322221D01*
X49164690Y-36289752D01*
X49194179Y-36263753D01*
X49228640Y-36236542D01*
X49275234Y-36206704D01*
X49281562Y-36203111D01*
X49321517Y-36179575D01*
X49346538Y-36162485D01*
X49348928Y-36160228D01*
X49372965Y-36140159D01*
X49421063Y-36106065D01*
X49487470Y-36061585D01*
X49566434Y-36010357D01*
X49652203Y-35956017D01*
X49739024Y-35902205D01*
X49821146Y-35852557D01*
X49892817Y-35810712D01*
X49948285Y-35780306D01*
X49955340Y-35776712D01*
X49996456Y-35752417D01*
X50021450Y-35733216D01*
X50052581Y-35710527D01*
X50110636Y-35674976D01*
X50191354Y-35628808D01*
X50290475Y-35574267D01*
X50403737Y-35513599D01*
X50526880Y-35449048D01*
X50655642Y-35382859D01*
X50785761Y-35317278D01*
X50912978Y-35254548D01*
X51033030Y-35196915D01*
X51090196Y-35170175D01*
X51184074Y-35128276D01*
X51295847Y-35080941D01*
X51421245Y-35029754D01*
X51555995Y-34976301D01*
X51695822Y-34922169D01*
X51836456Y-34868944D01*
X51973623Y-34818212D01*
X52103051Y-34771559D01*
X52220467Y-34730570D01*
X52321597Y-34696832D01*
X52402170Y-34671930D01*
X52457913Y-34657452D01*
X52479783Y-34654367D01*
X52514038Y-34648723D01*
X52526092Y-34642096D01*
X52550340Y-34630250D01*
X52603517Y-34611888D01*
X52680780Y-34588262D01*
X52777288Y-34560627D01*
X52888199Y-34530234D01*
X53008672Y-34498338D01*
X53133865Y-34466191D01*
X53258935Y-34435047D01*
X53379043Y-34406158D01*
X53489345Y-34380778D01*
X53585000Y-34360159D01*
X53661167Y-34345556D01*
X53689105Y-34341090D01*
X53763558Y-34328943D01*
X53850273Y-34312754D01*
X53914344Y-34299491D01*
X53987884Y-34284711D01*
X54079914Y-34268159D01*
X54174575Y-34252636D01*
X54208887Y-34247451D01*
X54297137Y-34234190D01*
X54386011Y-34220301D01*
X54461180Y-34208041D01*
X54486104Y-34203765D01*
X54565781Y-34192051D01*
X54673250Y-34179676D01*
X54801674Y-34167285D01*
X54944217Y-34155523D01*
X55094043Y-34145035D01*
X55135831Y-34142446D01*
X55211850Y-34137354D01*
X55277911Y-34131984D01*
X55324134Y-34127180D01*
X55336636Y-34125272D01*
X55365976Y-34122900D01*
X55425356Y-34120922D01*
X55510167Y-34119336D01*
X55615798Y-34118137D01*
X55737641Y-34117324D01*
X55871086Y-34116894D01*
X56011524Y-34116843D01*
X56154343Y-34117168D01*
X56294936Y-34117867D01*
X56428692Y-34118937D01*
X56551002Y-34120375D01*
X56657256Y-34122178D01*
X56742844Y-34124342D01*
X56790469Y-34126191D01*
X56894182Y-34132681D01*
X57003159Y-34141886D01*
X57103421Y-34152502D01*
X57171642Y-34161708D01*
X57256088Y-34174433D01*
X57359687Y-34189213D01*
X57467197Y-34203905D01*
X57535392Y-34212834D01*
X57661470Y-34229972D01*
X57800166Y-34250533D01*
X57943331Y-34273163D01*
X58082818Y-34296507D01*
X58210480Y-34319211D01*
X58318169Y-34339921D01*
X58382169Y-34353613D01*
X58543921Y-34391334D01*
X58706266Y-34430321D01*
X58864808Y-34469431D01*
X59015150Y-34507521D01*
X59152898Y-34543447D01*
X59273654Y-34576066D01*
X59373023Y-34604234D01*
X59446608Y-34626808D01*
X59484671Y-34640362D01*
X59526523Y-34655009D01*
X59585284Y-34672743D01*
X59619885Y-34682234D01*
X59682543Y-34700710D01*
X59761162Y-34726652D01*
X59839518Y-34754688D01*
X59845124Y-34756798D01*
X59962635Y-34800902D01*
X60081795Y-34845054D01*
X60197949Y-34887586D01*
X60306444Y-34926830D01*
X60402627Y-34961120D01*
X60481843Y-34988786D01*
X60539440Y-35008161D01*
X60570764Y-35017577D01*
X60574518Y-35018215D01*
X60592686Y-35030422D01*
X60593539Y-35035541D01*
X60607564Y-35050930D01*
X60619419Y-35052867D01*
X60649768Y-35060547D01*
X60706498Y-35082197D01*
X60785282Y-35115737D01*
X60881793Y-35159081D01*
X60991703Y-35210150D01*
X61110685Y-35266858D01*
X61234412Y-35327124D01*
X61358555Y-35388866D01*
X61478788Y-35449999D01*
X61590783Y-35508443D01*
X61690212Y-35562114D01*
X61763048Y-35603258D01*
X61842284Y-35649664D01*
X61910498Y-35690230D01*
X61962234Y-35721662D01*
X61992034Y-35740666D01*
X61996949Y-35744413D01*
X62016604Y-35757651D01*
X62055894Y-35779027D01*
X62074917Y-35788582D01*
X62110601Y-35807318D01*
X62155036Y-35833174D01*
X62212081Y-35868604D01*
X62285593Y-35916063D01*
X62379430Y-35978006D01*
X62497448Y-36056887D01*
X62513735Y-36067820D01*
X62576521Y-36109870D01*
X62632717Y-36147307D01*
X62672815Y-36173802D01*
X62680885Y-36179061D01*
X62742964Y-36220204D01*
X62816557Y-36270556D01*
X62896352Y-36326295D01*
X62977034Y-36383600D01*
X63053290Y-36438650D01*
X63119808Y-36487624D01*
X63171274Y-36526702D01*
X63202374Y-36552061D01*
X63208844Y-36558730D01*
X63227229Y-36575965D01*
X63265846Y-36605757D01*
X63312855Y-36639224D01*
X63369327Y-36680027D01*
X63419831Y-36719846D01*
X63447906Y-36744814D01*
X63479077Y-36772694D01*
X63499909Y-36785530D01*
X63500772Y-36785623D01*
X63519539Y-36796606D01*
X63553416Y-36824338D01*
X63573621Y-36842698D01*
X63618402Y-36882830D01*
X63659150Y-36916291D01*
X63670780Y-36924846D01*
X63714995Y-36959253D01*
X63780082Y-37015285D01*
X63862658Y-37089818D01*
X63959342Y-37179729D01*
X64066751Y-37281894D01*
X64181503Y-37393189D01*
X64237447Y-37448194D01*
X64315234Y-37524341D01*
X64385090Y-37591449D01*
X64443167Y-37645927D01*
X64485617Y-37684182D01*
X64508595Y-37702622D01*
X64511145Y-37703754D01*
X64528654Y-37716998D01*
X64556291Y-37750649D01*
X64571925Y-37773058D01*
X64603083Y-37813846D01*
X64630139Y-37838755D01*
X64639389Y-37842362D01*
X64661823Y-37854643D01*
X64696784Y-37886279D01*
X64724105Y-37915998D01*
X64770161Y-37969292D01*
X64815837Y-38021467D01*
X64834479Y-38042475D01*
X64865758Y-38077430D01*
X64912995Y-38130197D01*
X64969027Y-38192774D01*
X65011293Y-38239970D01*
X65094581Y-38333931D01*
X65156678Y-38406441D01*
X65200388Y-38461049D01*
X65228516Y-38501300D01*
X65243868Y-38530744D01*
X65246068Y-38536925D01*
X65261303Y-38564101D01*
X65271963Y-38570056D01*
X65288455Y-38583261D01*
X65321439Y-38619650D01*
X65367022Y-38674385D01*
X65421313Y-38742626D01*
X65480420Y-38819537D01*
X65540450Y-38900278D01*
X65566117Y-38935722D01*
X65616866Y-39007958D01*
X65682525Y-39103733D01*
X65759433Y-39217503D01*
X65843926Y-39343725D01*
X65932342Y-39476856D01*
X66021018Y-39611353D01*
X66106292Y-39741672D01*
X66184501Y-39862270D01*
X66251983Y-39967604D01*
X66305075Y-40052131D01*
X66321762Y-40079369D01*
X66354707Y-40136117D01*
X66397469Y-40213380D01*
X66447833Y-40306827D01*
X66503586Y-40412125D01*
X66562514Y-40524943D01*
X66622403Y-40640949D01*
X66681038Y-40755811D01*
X66736206Y-40865197D01*
X66785694Y-40964775D01*
X66827286Y-41050213D01*
X66858769Y-41117180D01*
X66877929Y-41161344D01*
X66882898Y-41177306D01*
X66889755Y-41196942D01*
X66907950Y-41239587D01*
X66933917Y-41296964D01*
X66941236Y-41312706D01*
X66972850Y-41384582D01*
X67009804Y-41475025D01*
X67046360Y-41569766D01*
X67064543Y-41619442D01*
X67091937Y-41694396D01*
X67116232Y-41757674D01*
X67134503Y-41801844D01*
X67143012Y-41818692D01*
X67156595Y-41846066D01*
X67172058Y-41890241D01*
X67173950Y-41896659D01*
X67185550Y-41933229D01*
X67206445Y-41995466D01*
X67234252Y-42076413D01*
X67266588Y-42169112D01*
X67289667Y-42234518D01*
X67324665Y-42334635D01*
X67357472Y-42431035D01*
X67385426Y-42515710D01*
X67405869Y-42580657D01*
X67413476Y-42607028D01*
X67431347Y-42671678D01*
X67454552Y-42752874D01*
X67478339Y-42834007D01*
X67480403Y-42840930D01*
X67510397Y-42947111D01*
X67544975Y-43078994D01*
X67582173Y-43228252D01*
X67620023Y-43386559D01*
X67656560Y-43545590D01*
X67689819Y-43697017D01*
X67717832Y-43832516D01*
X67732000Y-43906482D01*
X67745347Y-43974230D01*
X67759016Y-44035779D01*
X67768162Y-44071080D01*
X67777062Y-44110036D01*
X67788619Y-44173332D01*
X67801085Y-44250934D01*
X67808942Y-44304981D01*
X67822942Y-44402073D01*
X67838814Y-44506550D01*
X67853916Y-44601195D01*
X67859446Y-44634176D01*
X67877339Y-44748492D01*
X67892222Y-44866815D01*
X67904315Y-44993302D01*
X67913837Y-45132109D01*
X67921007Y-45287395D01*
X67926046Y-45463316D01*
X67929172Y-45664029D01*
X67930604Y-45893690D01*
X67930748Y-45985609D01*
X67930215Y-46256192D01*
X67928266Y-46494538D01*
X67924826Y-46703035D01*
X67919821Y-46884070D01*
X67913176Y-47040034D01*
X67904816Y-47173313D01*
X67894667Y-47286297D01*
X67888464Y-47339335D01*
X67864939Y-47510252D01*
X67835900Y-47700279D01*
X67802455Y-47903548D01*
X67765710Y-48114192D01*
X67726771Y-48326343D01*
X67686745Y-48534133D01*
X67646738Y-48731693D01*
X67607856Y-48913157D01*
X67571206Y-49072655D01*
X67537894Y-49204321D01*
X67534462Y-49216919D01*
X67518814Y-49277554D01*
X67499932Y-49355956D01*
X67481696Y-49435977D01*
X67480339Y-49442157D01*
X67459636Y-49529306D01*
X67434779Y-49623334D01*
X67411708Y-49702048D01*
X67386031Y-49784171D01*
X67357158Y-49877729D01*
X67334131Y-49953276D01*
X67301517Y-50059009D01*
X67268923Y-50159460D01*
X67232648Y-50265623D01*
X67188987Y-50388493D01*
X67167794Y-50447069D01*
X67140713Y-50522380D01*
X67117481Y-50588364D01*
X67101089Y-50636451D01*
X67095254Y-50654981D01*
X67078668Y-50703410D01*
X67049027Y-50778155D01*
X67008492Y-50874400D01*
X66959224Y-50987327D01*
X66903383Y-51112122D01*
X66843130Y-51243965D01*
X66780626Y-51378042D01*
X66718031Y-51509535D01*
X66657506Y-51633628D01*
X66644466Y-51659893D01*
X66608531Y-51729941D01*
X66564283Y-51813012D01*
X66514598Y-51904051D01*
X66462348Y-51998004D01*
X66410410Y-52089816D01*
X66361658Y-52174434D01*
X66318966Y-52246801D01*
X66285208Y-52301865D01*
X66263260Y-52334570D01*
X66256891Y-52341384D01*
X66241983Y-52361113D01*
X66241833Y-52363467D01*
X66232991Y-52385688D01*
X66210160Y-52427367D01*
X66178887Y-52479640D01*
X66144719Y-52533649D01*
X66113202Y-52580531D01*
X66089881Y-52611426D01*
X66082137Y-52618601D01*
X66068816Y-52638448D01*
X66068573Y-52641840D01*
X66058655Y-52665730D01*
X66030583Y-52713856D01*
X65986875Y-52782645D01*
X65930054Y-52868524D01*
X65862638Y-52967920D01*
X65787149Y-53077260D01*
X65706107Y-53192972D01*
X65622031Y-53311483D01*
X65537443Y-53429220D01*
X65454863Y-53542611D01*
X65376811Y-53648082D01*
X65305807Y-53742060D01*
X65244371Y-53820974D01*
X65195025Y-53881251D01*
X65190701Y-53886291D01*
X65135904Y-53950261D01*
X65080706Y-54015444D01*
X65035903Y-54069081D01*
X65030953Y-54075092D01*
X64974877Y-54142856D01*
X64923751Y-54203234D01*
X64873198Y-54260991D01*
X64818841Y-54320894D01*
X64756304Y-54387709D01*
X64681211Y-54466202D01*
X64589183Y-54561139D01*
X64511257Y-54641045D01*
X64388506Y-54765124D01*
X64269940Y-54881313D01*
X64149906Y-54994806D01*
X64022750Y-55110797D01*
X63882819Y-55234478D01*
X63724460Y-55371044D01*
X63619366Y-55460382D01*
X63557092Y-55513733D01*
X63491100Y-55571241D01*
X63452338Y-55605580D01*
X63407712Y-55643142D01*
X63342202Y-55695243D01*
X63262337Y-55756991D01*
X63174645Y-55823491D01*
X63085654Y-55889848D01*
X63001893Y-55951170D01*
X62929889Y-56002563D01*
X62876170Y-56039131D01*
X62862476Y-56047779D01*
X62813043Y-56080093D01*
X62770441Y-56111543D01*
X62764795Y-56116237D01*
X62727486Y-56144412D01*
X62676713Y-56178347D01*
X62656869Y-56190657D01*
X62603815Y-56224345D01*
X62538533Y-56268012D01*
X62485996Y-56304561D01*
X62437577Y-56337237D01*
X62366612Y-56382816D01*
X62280454Y-56436687D01*
X62186458Y-56494236D01*
X62118232Y-56535254D01*
X62030261Y-56587723D01*
X61951422Y-56634789D01*
X61887032Y-56673275D01*
X61842406Y-56700005D01*
X61823689Y-56711289D01*
X61788800Y-56730891D01*
X61728849Y-56762719D01*
X61649875Y-56803717D01*
X61557918Y-56850834D01*
X61459017Y-56901014D01*
X61359212Y-56951204D01*
X61264543Y-56998351D01*
X61181050Y-57039402D01*
X61114771Y-57071301D01*
X61078668Y-57087973D01*
X61011586Y-57118210D01*
X60951810Y-57145944D01*
X60910460Y-57166002D01*
X60905408Y-57168622D01*
X60873890Y-57183057D01*
X60817191Y-57206884D01*
X60742508Y-57237155D01*
X60657040Y-57270922D01*
X60628191Y-57282138D01*
X60531673Y-57319611D01*
X60434710Y-57357431D01*
X60347682Y-57391539D01*
X60280971Y-57417875D01*
X60273007Y-57421044D01*
X60144095Y-57470023D01*
X59991854Y-57523922D01*
X59823515Y-57580494D01*
X59646307Y-57637497D01*
X59467461Y-57692683D01*
X59294205Y-57743810D01*
X59133771Y-57788631D01*
X58993389Y-57824903D01*
X58910552Y-57844083D01*
X58876746Y-57852044D01*
X58818758Y-57866345D01*
X58745956Y-57884659D01*
X58696335Y-57897304D01*
X58458918Y-57952100D01*
X58188042Y-58003516D01*
X57884752Y-58051397D01*
X57550089Y-58095591D01*
X57185098Y-58135943D01*
X56885763Y-58164149D01*
X56827066Y-58168223D01*
X56744662Y-58172422D01*
X56643217Y-58176636D01*
X56527399Y-58180756D01*
X56401876Y-58184673D01*
X56271314Y-58188277D01*
X56140381Y-58191457D01*
X56013745Y-58194106D01*
X55896072Y-58196113D01*
X55792031Y-58197368D01*
X55706288Y-58197763D01*
X55643511Y-58197187D01*
X55608367Y-58195531D01*
X55602619Y-58194267D01*
X55583586Y-58190622D01*
X55536078Y-58185195D01*
X55466192Y-58178581D01*
X55380023Y-58171377D01*
X55326417Y-58167269D01*
X55173007Y-58155014D01*
X55010686Y-58140503D01*
X54846172Y-58124458D01*
X54686182Y-58107599D01*
X54537432Y-58090646D01*
X54406640Y-58074321D01*
X54300523Y-58059344D01*
X54260865Y-58052938D01*
X54153867Y-58034362D01*
X54038567Y-58013911D01*
X53921778Y-57992836D01*
X53810314Y-57972390D01*
X53710988Y-57953826D01*
X53630613Y-57938396D01*
X53576004Y-57927351D01*
X53567823Y-57925567D01*
X53430148Y-57894663D01*
X53321502Y-57869937D01*
X53237046Y-57850242D01*
X53171939Y-57834430D01*
X53121343Y-57821354D01*
X53082693Y-57810533D01*
X53026456Y-57794378D01*
X52949912Y-57772754D01*
X52866169Y-57749356D01*
X52831465Y-57739739D01*
X52747018Y-57715135D01*
X52637268Y-57681268D01*
X52509531Y-57640565D01*
X52371126Y-57595455D01*
X52229369Y-57548366D01*
X52091577Y-57501725D01*
X51965068Y-57457960D01*
X51857158Y-57419499D01*
X51783794Y-57392123D01*
X51693795Y-57357392D01*
X51595309Y-57319434D01*
X51506552Y-57285266D01*
X51488696Y-57278400D01*
X51412669Y-57248058D01*
X51338231Y-57216488D01*
X51279615Y-57189760D01*
X51272120Y-57186070D01*
X51219711Y-57160729D01*
X51148435Y-57127445D01*
X51071158Y-57092202D01*
X51046881Y-57081317D01*
X50978739Y-57049827D01*
X50920659Y-57021001D01*
X50881491Y-56999318D01*
X50872256Y-56992971D01*
X50840826Y-56974110D01*
X50825626Y-56970329D01*
X50801595Y-56962616D01*
X50754145Y-56941835D01*
X50690269Y-56911524D01*
X50616963Y-56875220D01*
X50541221Y-56836461D01*
X50470037Y-56798784D01*
X50410407Y-56765728D01*
X50369324Y-56740829D01*
X50362502Y-56736098D01*
X50324453Y-56711422D01*
X50265384Y-56676612D01*
X50195103Y-56637356D01*
X50156391Y-56616549D01*
X50075554Y-56572243D01*
X49992498Y-56524253D01*
X49921110Y-56480681D01*
X49899606Y-56466752D01*
X49847984Y-56433191D01*
X49808456Y-56408848D01*
X49789010Y-56398630D01*
X49788565Y-56398569D01*
X49768790Y-56389314D01*
X49727896Y-56364454D01*
X49672234Y-56328353D01*
X49608152Y-56285374D01*
X49542003Y-56239877D01*
X49480135Y-56196227D01*
X49428898Y-56158784D01*
X49394642Y-56131911D01*
X49383580Y-56120355D01*
X49370970Y-56104351D01*
X49367852Y-56104026D01*
X49343047Y-56093533D01*
X49294881Y-56063841D01*
X49226863Y-56017632D01*
X49142501Y-55957588D01*
X49045306Y-55886390D01*
X48938787Y-55806719D01*
X48826452Y-55721258D01*
X48711811Y-55632688D01*
X48598373Y-55543691D01*
X48489647Y-55456947D01*
X48389143Y-55375140D01*
X48300369Y-55300951D01*
X48226835Y-55237060D01*
X48193219Y-55206404D01*
X48155340Y-55173159D01*
X48126520Y-55151649D01*
X48120407Y-55148474D01*
X48101167Y-55134076D01*
X48061151Y-55098575D01*
X48003958Y-55045498D01*
X47933188Y-54978370D01*
X47852440Y-54900718D01*
X47765316Y-54816068D01*
X47675413Y-54727945D01*
X47586332Y-54639876D01*
X47501674Y-54555387D01*
X47425036Y-54478004D01*
X47360020Y-54411252D01*
X47310225Y-54358658D01*
X47282883Y-54328106D01*
X47225495Y-54260500D01*
X47165807Y-54190416D01*
X47114897Y-54130858D01*
X47105745Y-54120193D01*
X47044017Y-54047546D01*
X46973103Y-53962798D01*
X46896036Y-53869705D01*
X46815850Y-53772021D01*
X46735578Y-53673500D01*
X46658252Y-53577897D01*
X46586906Y-53488967D01*
X46524572Y-53410463D01*
X46474284Y-53346141D01*
X46439074Y-53299754D01*
X46421975Y-53275058D01*
X46420824Y-53272329D01*
X46411130Y-53255273D01*
X46384963Y-53216825D01*
X46346697Y-53163277D01*
X46314707Y-53119710D01*
X46269141Y-53057066D01*
X46231336Y-53002811D01*
X46206238Y-52964166D01*
X46199020Y-52950684D01*
X46183796Y-52922440D01*
X46177697Y-52916032D01*
X46164065Y-52898469D01*
X46136803Y-52858130D01*
X46100399Y-52801779D01*
X46074168Y-52760097D01*
X46030194Y-52690594D01*
X45988468Y-52626481D01*
X45955277Y-52577339D01*
X45943450Y-52560848D01*
X45907384Y-52508543D01*
X45872547Y-52451923D01*
X45870455Y-52448228D01*
X45849235Y-52411390D01*
X45814495Y-52352132D01*
X45770538Y-52277750D01*
X45721666Y-52195544D01*
X45706009Y-52169309D01*
X45647034Y-52066749D01*
X45578503Y-51941166D01*
X45503107Y-51798039D01*
X45423540Y-51642849D01*
X45342496Y-51481075D01*
X45262667Y-51318197D01*
X45186747Y-51159693D01*
X45117430Y-51011045D01*
X45057407Y-50877732D01*
X45009374Y-50765233D01*
X44983016Y-50698297D01*
X44952304Y-50617558D01*
X44920098Y-50535733D01*
X44892355Y-50467900D01*
X44887176Y-50455732D01*
X44863864Y-50398007D01*
X44834223Y-50319528D01*
X44802776Y-50232449D01*
X44784028Y-50178515D01*
X44752667Y-50086795D01*
X44719689Y-49990537D01*
X44690113Y-49904384D01*
X44677126Y-49866646D01*
X44653434Y-49795361D01*
X44632713Y-49728554D01*
X44619094Y-49679602D01*
X44618249Y-49676059D01*
X44606443Y-49629181D01*
X44588624Y-49562809D01*
X44568495Y-49490710D01*
X44567000Y-49485473D01*
X44531999Y-49360575D01*
X44495657Y-49226506D01*
X44459483Y-49089239D01*
X44424984Y-48954748D01*
X44393668Y-48829007D01*
X44367044Y-48717990D01*
X44346621Y-48627671D01*
X44333906Y-48564025D01*
X44332980Y-48558528D01*
X44324983Y-48513973D01*
X44311798Y-48445201D01*
X44295317Y-48361919D01*
X44278968Y-48281312D01*
X44261232Y-48185818D01*
X44242587Y-48069074D01*
X44223443Y-47935190D01*
X44204211Y-47788280D01*
X44185302Y-47632455D01*
X44167125Y-47471828D01*
X44150093Y-47310511D01*
X44134615Y-47152616D01*
X44121103Y-47002257D01*
X44109967Y-46863545D01*
X44101618Y-46740592D01*
X44096467Y-46637511D01*
X44094923Y-46558415D01*
X44097399Y-46507414D01*
X44100398Y-46493397D01*
X44107018Y-46463465D01*
X44101547Y-46453412D01*
X44091315Y-46438029D01*
X44085231Y-46399143D01*
X44083252Y-46347649D01*
X44085334Y-46294440D01*
X44091434Y-46250412D01*
X44101506Y-46226459D01*
X44102459Y-46225751D01*
X44113099Y-46213403D01*
X44106968Y-46211113D01*
X44099265Y-46194644D01*
X44095667Y-46168495D01*
X44477434Y-46168495D01*
X44477480Y-46184854D01*
X44494446Y-46799975D01*
X44542049Y-47402381D01*
X44620951Y-47996746D01*
X44731818Y-48587744D01*
X44875312Y-49180051D01*
X44931458Y-49381896D01*
X44962599Y-49489134D01*
X44990945Y-49583348D01*
X45018960Y-49671880D01*
X45049113Y-49762074D01*
X45083870Y-49861273D01*
X45125696Y-49976821D01*
X45177058Y-50116062D01*
X45187378Y-50143863D01*
X45229151Y-50252851D01*
X45282124Y-50385721D01*
X45343091Y-50534836D01*
X45408846Y-50692562D01*
X45476184Y-50851263D01*
X45541898Y-51003304D01*
X45602784Y-51141050D01*
X45645668Y-51235404D01*
X45665848Y-51276065D01*
X45699839Y-51341251D01*
X45744546Y-51425240D01*
X45796871Y-51522310D01*
X45853719Y-51626740D01*
X45911994Y-51732807D01*
X45968598Y-51834790D01*
X46007735Y-51904519D01*
X46050646Y-51981320D01*
X46086636Y-52047249D01*
X46112603Y-52096507D01*
X46125448Y-52123300D01*
X46126281Y-52126157D01*
X46136227Y-52148059D01*
X46144386Y-52158748D01*
X46161193Y-52182251D01*
X46191831Y-52228665D01*
X46232106Y-52291305D01*
X46277825Y-52363484D01*
X46324796Y-52438517D01*
X46368824Y-52509719D01*
X46405719Y-52570405D01*
X46431286Y-52613888D01*
X46440030Y-52630152D01*
X46461533Y-52667732D01*
X46491994Y-52712769D01*
X46494946Y-52716782D01*
X46520801Y-52751648D01*
X46561375Y-52806407D01*
X46610773Y-52873102D01*
X46655390Y-52933358D01*
X46779173Y-53099955D01*
X46886527Y-53242944D01*
X46981117Y-53366945D01*
X47066605Y-53476584D01*
X47146655Y-53576484D01*
X47224931Y-53671267D01*
X47305095Y-53765558D01*
X47390810Y-53863979D01*
X47410464Y-53886291D01*
X47487638Y-53971992D01*
X47577833Y-54069230D01*
X47677455Y-54174389D01*
X47782910Y-54283850D01*
X47890605Y-54393995D01*
X47996945Y-54501206D01*
X48098338Y-54601866D01*
X48191188Y-54692355D01*
X48271903Y-54769056D01*
X48336889Y-54828352D01*
X48382551Y-54866623D01*
X48388938Y-54871357D01*
X48439700Y-54911949D01*
X48484121Y-54954453D01*
X48496756Y-54969044D01*
X48531422Y-55005439D01*
X48581736Y-55049631D01*
X48619623Y-55079196D01*
X48661056Y-55110685D01*
X48723182Y-55159188D01*
X48799834Y-55219829D01*
X48884843Y-55287732D01*
X48962159Y-55350020D01*
X49055182Y-55424150D01*
X49151109Y-55498628D01*
X49242070Y-55567477D01*
X49320200Y-55624723D01*
X49366131Y-55656778D01*
X49432393Y-55701585D01*
X49518279Y-55759993D01*
X49614886Y-55825929D01*
X49713313Y-55893323D01*
X49764753Y-55928643D01*
X49962157Y-56060408D01*
X50160354Y-56184326D01*
X50364938Y-56303449D01*
X50581505Y-56420834D01*
X50815649Y-56539534D01*
X51072965Y-56662603D01*
X51298109Y-56765738D01*
X51383604Y-56804437D01*
X51474410Y-56845807D01*
X51554596Y-56882585D01*
X51575326Y-56892158D01*
X51640152Y-56921271D01*
X51698009Y-56945695D01*
X51737348Y-56960572D01*
X51739923Y-56961379D01*
X51783801Y-56976895D01*
X51838734Y-56999113D01*
X51852543Y-57005111D01*
X51932033Y-57039276D01*
X52018331Y-57074753D01*
X52102890Y-57108197D01*
X52177164Y-57136265D01*
X52232605Y-57155610D01*
X52251042Y-57161082D01*
X52287943Y-57171607D01*
X52349061Y-57190109D01*
X52425639Y-57213904D01*
X52502270Y-57238175D01*
X52659293Y-57286819D01*
X52831762Y-57337534D01*
X53014192Y-57388912D01*
X53201101Y-57439548D01*
X53387002Y-57488034D01*
X53566412Y-57532963D01*
X53733847Y-57572928D01*
X53883823Y-57606523D01*
X54010854Y-57632342D01*
X54096267Y-57647058D01*
X54157752Y-57656382D01*
X54239127Y-57668828D01*
X54326043Y-57682198D01*
X54356158Y-57686850D01*
X54455081Y-57701398D01*
X54566687Y-57716669D01*
X54669474Y-57729738D01*
X54685353Y-57731628D01*
X54780127Y-57742973D01*
X54883304Y-57755675D01*
X54975652Y-57767357D01*
X54993117Y-57769621D01*
X55064692Y-57777364D01*
X55126975Y-57781258D01*
X55168903Y-57780687D01*
X55175040Y-57779746D01*
X55214964Y-57777060D01*
X55271838Y-57780027D01*
X55300428Y-57783356D01*
X55351052Y-57787785D01*
X55431526Y-57791494D01*
X55537054Y-57794481D01*
X55662841Y-57796743D01*
X55804092Y-57798277D01*
X55956012Y-57799078D01*
X56113805Y-57799145D01*
X56272677Y-57798474D01*
X56427831Y-57797063D01*
X56574474Y-57794907D01*
X56707810Y-57792003D01*
X56823043Y-57788349D01*
X56907486Y-57784407D01*
X57096024Y-57772047D01*
X57276949Y-57756754D01*
X57456844Y-57737666D01*
X57642292Y-57713921D01*
X57839877Y-57684659D01*
X58056180Y-57649017D01*
X58297785Y-57606134D01*
X58367140Y-57593401D01*
X58467943Y-57572440D01*
X58596122Y-57542096D01*
X58746174Y-57503928D01*
X58912595Y-57459492D01*
X59089881Y-57410346D01*
X59272528Y-57358045D01*
X59455033Y-57304148D01*
X59631891Y-57250211D01*
X59797600Y-57197792D01*
X59946655Y-57148448D01*
X59978464Y-57137538D01*
X60155629Y-57073871D01*
X60341621Y-57002671D01*
X60527577Y-56927588D01*
X60704635Y-56852267D01*
X60863933Y-56780357D01*
X60966049Y-56731043D01*
X61060678Y-56683696D01*
X61173546Y-56627340D01*
X61291848Y-56568365D01*
X61402779Y-56513157D01*
X61425190Y-56502018D01*
X61522286Y-56452959D01*
X61619341Y-56402493D01*
X61707213Y-56355468D01*
X61776760Y-56316732D01*
X61797700Y-56304465D01*
X61877561Y-56256692D01*
X61975232Y-56198437D01*
X62078695Y-56136854D01*
X62175931Y-56079101D01*
X62230851Y-56046561D01*
X62261703Y-56026521D01*
X62274166Y-56016373D01*
X62290684Y-56003941D01*
X62331122Y-55975472D01*
X62390666Y-55934298D01*
X62464503Y-55883749D01*
X62534057Y-55836477D01*
X62619577Y-55777915D01*
X62697946Y-55723096D01*
X62763391Y-55676148D01*
X62810143Y-55641194D01*
X62829548Y-55625257D01*
X62862632Y-55597696D01*
X62885092Y-55584451D01*
X62886598Y-55584245D01*
X62906580Y-55574362D01*
X62946735Y-55548089D01*
X63000023Y-55510490D01*
X63059405Y-55466626D01*
X63117840Y-55421561D01*
X63157795Y-55389201D01*
X63212750Y-55343517D01*
X63269998Y-55296125D01*
X63279078Y-55288632D01*
X63409474Y-55180457D01*
X63525670Y-55082358D01*
X63631832Y-54990395D01*
X63732126Y-54900629D01*
X63830718Y-54809119D01*
X63931774Y-54711925D01*
X64039459Y-54605107D01*
X64157940Y-54484726D01*
X64291382Y-54346841D01*
X64443951Y-54187512D01*
X64449701Y-54181486D01*
X64518308Y-54109712D01*
X64581814Y-54043526D01*
X64634862Y-53988493D01*
X64672095Y-53950178D01*
X64683214Y-53938921D01*
X64711090Y-53908415D01*
X64754541Y-53857748D01*
X64807649Y-53793938D01*
X64864495Y-53724003D01*
X64865137Y-53723204D01*
X64921260Y-53653324D01*
X64972698Y-53589332D01*
X65013821Y-53538227D01*
X65039000Y-53507007D01*
X65039307Y-53506628D01*
X65062397Y-53475881D01*
X65100074Y-53423248D01*
X65147522Y-53355555D01*
X65199924Y-53279624D01*
X65211597Y-53262553D01*
X65286866Y-53153304D01*
X65358635Y-53051050D01*
X65423517Y-52960480D01*
X65478127Y-52886285D01*
X65519080Y-52833152D01*
X65536824Y-52812076D01*
X65561689Y-52777173D01*
X65569930Y-52760097D01*
X65581579Y-52739143D01*
X65608231Y-52695765D01*
X65645723Y-52636406D01*
X65689892Y-52567512D01*
X65736576Y-52495528D01*
X65781610Y-52426898D01*
X65820834Y-52368067D01*
X65850083Y-52325480D01*
X65855958Y-52317289D01*
X65871510Y-52292041D01*
X65896048Y-52248411D01*
X65910319Y-52221996D01*
X65975630Y-52099573D01*
X66027903Y-52002116D01*
X66070234Y-51923925D01*
X66105720Y-51859298D01*
X66137458Y-51802535D01*
X66154489Y-51772512D01*
X66192159Y-51705347D01*
X66228220Y-51639272D01*
X66253835Y-51590588D01*
X66279103Y-51541522D01*
X66313899Y-51474891D01*
X66351428Y-51403695D01*
X66357981Y-51391339D01*
X66391469Y-51326096D01*
X66434195Y-51239693D01*
X66481093Y-51142533D01*
X66527094Y-51045018D01*
X66535230Y-51027492D01*
X66576220Y-50939362D01*
X66614648Y-50857521D01*
X66646954Y-50789494D01*
X66669581Y-50742806D01*
X66674529Y-50732949D01*
X66694652Y-50687329D01*
X66723356Y-50613483D01*
X66759014Y-50516299D01*
X66800003Y-50400667D01*
X66844698Y-50271474D01*
X66891473Y-50133610D01*
X66938703Y-49991963D01*
X66984764Y-49851423D01*
X67028030Y-49716879D01*
X67066878Y-49593218D01*
X67099681Y-49485330D01*
X67124815Y-49398104D01*
X67140655Y-49336428D01*
X67143869Y-49320875D01*
X67154014Y-49273220D01*
X67170608Y-49203900D01*
X67190798Y-49124634D01*
X67200800Y-49086973D01*
X67224670Y-48992081D01*
X67248479Y-48886952D01*
X67267923Y-48790841D01*
X67271708Y-48769845D01*
X67287279Y-48685623D01*
X67304534Y-48600369D01*
X67320217Y-48530026D01*
X67323012Y-48518618D01*
X67339412Y-48447254D01*
X67353740Y-48374890D01*
X67359203Y-48341953D01*
X67366226Y-48297879D01*
X67378062Y-48227700D01*
X67393336Y-48139402D01*
X67410672Y-48040976D01*
X67420345Y-47986769D01*
X67475821Y-47650683D01*
X67518151Y-47330719D01*
X67548052Y-47017205D01*
X67566242Y-46700469D01*
X67573438Y-46370839D01*
X67570357Y-46018645D01*
X67569393Y-45976946D01*
X67562024Y-45710755D01*
X67553576Y-45475546D01*
X67543787Y-45267655D01*
X67532393Y-45083423D01*
X67519132Y-44919188D01*
X67503740Y-44771287D01*
X67485954Y-44636060D01*
X67465511Y-44509845D01*
X67462947Y-44495568D01*
X67428065Y-44305348D01*
X67393780Y-44122148D01*
X67360881Y-43949967D01*
X67330158Y-43792805D01*
X67302400Y-43654662D01*
X67278397Y-43539536D01*
X67258939Y-43451428D01*
X67247423Y-43404026D01*
X67236793Y-43362282D01*
X67220429Y-43296724D01*
X67200781Y-43217209D01*
X67184987Y-43152799D01*
X67140573Y-42984311D01*
X67083514Y-42789539D01*
X67015499Y-42573747D01*
X66938215Y-42342201D01*
X66853349Y-42100165D01*
X66804598Y-41965964D01*
X66762396Y-41851176D01*
X66723262Y-41744675D01*
X66689078Y-41651585D01*
X66661722Y-41577025D01*
X66643077Y-41526120D01*
X66636040Y-41506823D01*
X66619587Y-41468314D01*
X66589214Y-41403906D01*
X66547323Y-41318264D01*
X66496319Y-41216058D01*
X66438603Y-41101954D01*
X66376578Y-40980618D01*
X66312648Y-40856719D01*
X66249215Y-40734924D01*
X66188682Y-40619899D01*
X66133451Y-40516313D01*
X66085927Y-40428831D01*
X66048510Y-40362122D01*
X66034005Y-40337454D01*
X65987018Y-40258964D01*
X65941777Y-40182168D01*
X65904199Y-40117170D01*
X65884429Y-40081928D01*
X65839146Y-40003929D01*
X65777308Y-39904483D01*
X65703134Y-39789874D01*
X65620847Y-39666388D01*
X65534667Y-39540310D01*
X65448816Y-39417926D01*
X65367514Y-39305520D01*
X65322893Y-39245773D01*
X65269479Y-39173869D01*
X65222728Y-39108253D01*
X65187313Y-39055674D01*
X65167911Y-39022877D01*
X65166856Y-39020534D01*
X65145448Y-38981299D01*
X65127460Y-38959893D01*
X65105914Y-38937751D01*
X65071262Y-38897586D01*
X65037306Y-38855936D01*
X64972645Y-38775833D01*
X64886429Y-38671019D01*
X64779845Y-38542928D01*
X64686413Y-38431448D01*
X64650620Y-38391446D01*
X64593647Y-38330962D01*
X64519162Y-38253666D01*
X64430834Y-38163226D01*
X64332332Y-38063312D01*
X64227326Y-37957593D01*
X64119485Y-37849737D01*
X64012476Y-37743414D01*
X63909971Y-37642293D01*
X63815637Y-37550043D01*
X63733144Y-37470333D01*
X63666161Y-37406832D01*
X63618356Y-37363208D01*
X63616936Y-37361965D01*
X63491692Y-37253273D01*
X63378045Y-37156464D01*
X63267422Y-37064464D01*
X63151254Y-36970198D01*
X63020969Y-36866592D01*
X62932557Y-36797081D01*
X62827909Y-36718277D01*
X62700355Y-36627572D01*
X62557159Y-36530109D01*
X62527327Y-36510287D01*
X62479600Y-36476995D01*
X62445211Y-36449802D01*
X62432989Y-36436652D01*
X62413236Y-36421810D01*
X62410562Y-36421625D01*
X62391418Y-36412394D01*
X62348581Y-36386778D01*
X62287002Y-36347897D01*
X62211630Y-36298866D01*
X62139120Y-36250669D01*
X61885101Y-36087734D01*
X61627002Y-35937915D01*
X61353059Y-35794585D01*
X61182625Y-35711981D01*
X61071816Y-35659525D01*
X60951008Y-35602152D01*
X60832521Y-35545723D01*
X60728672Y-35496099D01*
X60697495Y-35481150D01*
X60594628Y-35433597D01*
X60474080Y-35380708D01*
X60350774Y-35328889D01*
X60239632Y-35284546D01*
X60238355Y-35284056D01*
X60149786Y-35251199D01*
X60038038Y-35211494D01*
X59910179Y-35167292D01*
X59773280Y-35120945D01*
X59634413Y-35074805D01*
X59500647Y-35031222D01*
X59379053Y-34992550D01*
X59276703Y-34961139D01*
X59207454Y-34941177D01*
X58969705Y-34876691D01*
X58763579Y-34821636D01*
X58587474Y-34775609D01*
X58439786Y-34738206D01*
X58318913Y-34709025D01*
X58223250Y-34687661D01*
X58151194Y-34673711D01*
X58133239Y-34670805D01*
X58075353Y-34661407D01*
X57995615Y-34647668D01*
X57906212Y-34631715D01*
X57847359Y-34620919D01*
X57728161Y-34600067D01*
X57602994Y-34580917D01*
X57466770Y-34562867D01*
X57314401Y-34545318D01*
X57140801Y-34527668D01*
X56940882Y-34509317D01*
X56799132Y-34497126D01*
X56657018Y-34485641D01*
X56534017Y-34477056D01*
X56421759Y-34471146D01*
X56311875Y-34467685D01*
X56195993Y-34466447D01*
X56065742Y-34467208D01*
X55912754Y-34469740D01*
X55839764Y-34471277D01*
X55232898Y-34499026D01*
X54643651Y-34555174D01*
X54072772Y-34639616D01*
X53521009Y-34752247D01*
X53134671Y-34851107D01*
X52979702Y-34895290D01*
X52815180Y-34943988D01*
X52646054Y-34995597D01*
X52477272Y-35048508D01*
X52313780Y-35101115D01*
X52160527Y-35151813D01*
X52022461Y-35198994D01*
X51904529Y-35241053D01*
X51811679Y-35276383D01*
X51765913Y-35295512D01*
X51708543Y-35320328D01*
X51632949Y-35352160D01*
X51553078Y-35385151D01*
X51532011Y-35393733D01*
X51470200Y-35420483D01*
X51382737Y-35460668D01*
X51274726Y-35511756D01*
X51151272Y-35571220D01*
X51017478Y-35636529D01*
X50878450Y-35705153D01*
X50739291Y-35774563D01*
X50605106Y-35842230D01*
X50480998Y-35905623D01*
X50372072Y-35962214D01*
X50283433Y-36009473D01*
X50232557Y-36037717D01*
X50092673Y-36121184D01*
X49931804Y-36223374D01*
X49755437Y-36340650D01*
X49569064Y-36469381D01*
X49420758Y-36575058D01*
X49309184Y-36655537D01*
X49222338Y-36717880D01*
X49156928Y-36764342D01*
X49109664Y-36797178D01*
X49077255Y-36818643D01*
X49056411Y-36830992D01*
X49043841Y-36836480D01*
X49037889Y-36837451D01*
X49017397Y-36849685D01*
X49016845Y-36850834D01*
X49001991Y-36866050D01*
X48965141Y-36898693D01*
X48911295Y-36944468D01*
X48845456Y-36999077D01*
X48820162Y-37019763D01*
X48668320Y-37145321D01*
X48524877Y-37268104D01*
X48384002Y-37393441D01*
X48239863Y-37526661D01*
X48086630Y-37673092D01*
X47918471Y-37838063D01*
X47848577Y-37907585D01*
X47720176Y-38036697D01*
X47608497Y-38151549D01*
X47507945Y-38258428D01*
X47412922Y-38363621D01*
X47317833Y-38473415D01*
X47217082Y-38594097D01*
X47105073Y-38731954D01*
X47018573Y-38840028D01*
X46965350Y-38906105D01*
X46916136Y-38965948D01*
X46877226Y-39011968D01*
X46858307Y-39033151D01*
X46831499Y-39063979D01*
X46819383Y-39083201D01*
X46819323Y-39083801D01*
X46809493Y-39101997D01*
X46784597Y-39136949D01*
X46769381Y-39156649D01*
X46740345Y-39195151D01*
X46697342Y-39254418D01*
X46645984Y-39326623D01*
X46591883Y-39403942D01*
X46587427Y-39410370D01*
X46530125Y-39492941D01*
X46472155Y-39576207D01*
X46420346Y-39650376D01*
X46382048Y-39704913D01*
X46337899Y-39770298D01*
X46295587Y-39837625D01*
X46267297Y-39886837D01*
X46240793Y-39934659D01*
X46202085Y-40001886D01*
X46157063Y-40078373D01*
X46124794Y-40132243D01*
X46083635Y-40203188D01*
X46031315Y-40297650D01*
X45970703Y-40410059D01*
X45904669Y-40534847D01*
X45836079Y-40666447D01*
X45767802Y-40799289D01*
X45702706Y-40927806D01*
X45643660Y-41046429D01*
X45593532Y-41149590D01*
X45555189Y-41231720D01*
X45537227Y-41272921D01*
X45509805Y-41338749D01*
X45485782Y-41395631D01*
X45469583Y-41433109D01*
X45467597Y-41437519D01*
X45412148Y-41563293D01*
X45352499Y-41706594D01*
X45301235Y-41836018D01*
X45269986Y-41916179D01*
X45238573Y-41995415D01*
X45212262Y-42060488D01*
X45204765Y-42078583D01*
X45149572Y-42219017D01*
X45089913Y-42386108D01*
X45028019Y-42572513D01*
X44966119Y-42770890D01*
X44906441Y-42973898D01*
X44851214Y-43174192D01*
X44802667Y-43364431D01*
X44765593Y-43525309D01*
X44724900Y-43718917D01*
X44687207Y-43907805D01*
X44653403Y-44086978D01*
X44624375Y-44251439D01*
X44601012Y-44396191D01*
X44584204Y-44516240D01*
X44576097Y-44590861D01*
X44569818Y-44657904D01*
X44560853Y-44747001D01*
X44550471Y-44845782D01*
X44541415Y-44928719D01*
X44522670Y-45102343D01*
X44507796Y-45254898D01*
X44496394Y-45394254D01*
X44488063Y-45528282D01*
X44482402Y-45664850D01*
X44479010Y-45811829D01*
X44477488Y-45977087D01*
X44477434Y-46168495D01*
X44095667Y-46168495D01*
X44093032Y-46149345D01*
X44088345Y-46081011D01*
G37*
G36*
X58046608Y-53097955D02*
G01*
X58037945Y-53106618D01*
X58029282Y-53097955D01*
X58037945Y-53089292D01*
X58046608Y-53097955D01*
G37*
%TO.C,C3*%
X39187400Y-47370800D02*
X39187400Y-43460800D01*
X39187400Y-43460800D02*
X37317400Y-43460800D01*
X37317400Y-43460800D02*
X37317400Y-47370800D01*
%TO.C,Q2*%
X68524000Y-45595000D02*
X68524000Y-48755000D01*
X68524000Y-45595000D02*
X69454000Y-45595000D01*
X71684000Y-45595000D02*
X70754000Y-45595000D01*
X71684000Y-45595000D02*
X71684000Y-47055000D01*
%TO.C,C1*%
X51173748Y-44477000D02*
X51696252Y-44477000D01*
X51173748Y-45947000D02*
X51696252Y-45947000D01*
%TO.C,R6*%
X58802600Y-41019464D02*
X58802600Y-40565336D01*
X60272600Y-41019464D02*
X60272600Y-40565336D01*
%TO.C,R4*%
X57885000Y-41883064D02*
X57885000Y-41428936D01*
X56415000Y-41883064D02*
X56415000Y-41428936D01*
%TO.C,R5*%
X63346064Y-39524000D02*
X62891936Y-39524000D01*
X63346064Y-40994000D02*
X62891936Y-40994000D01*
%TO.C,Q1*%
X43744000Y-45595000D02*
X42814000Y-45595000D01*
X40584000Y-45595000D02*
X41514000Y-45595000D01*
X40584000Y-45595000D02*
X40584000Y-48755000D01*
X43744000Y-45595000D02*
X43744000Y-47055000D01*
%TO.C,R2*%
X48540936Y-39498600D02*
X48995064Y-39498600D01*
X48540936Y-40968600D02*
X48995064Y-40968600D01*
%TO.C,D2*%
X47768000Y-43251000D02*
X50628000Y-43251000D01*
X50628000Y-41331000D02*
X47768000Y-41331000D01*
X50628000Y-43251000D02*
X50628000Y-41331000D01*
%TO.C,C2*%
X60840252Y-45947000D02*
X60317748Y-45947000D01*
X60840252Y-44477000D02*
X60317748Y-44477000D01*
%TO.C,D3*%
X64119000Y-41331000D02*
X61259000Y-41331000D01*
X61259000Y-41331000D02*
X61259000Y-43251000D01*
X61259000Y-43251000D02*
X64119000Y-43251000D01*
%TO.C,R1*%
X53160600Y-41019464D02*
X53160600Y-40565336D01*
X51690600Y-41019464D02*
X51690600Y-40565336D01*
%TO.C,D1*%
X48712000Y-46273000D02*
X46792000Y-46273000D01*
X46792000Y-46273000D02*
X46792000Y-49133000D01*
X48712000Y-49133000D02*
X48712000Y-46273000D01*
%TD*%
%LPC*%
D11*
%TO.C,R3*%
X54864000Y-42656000D03*
X54864000Y-40656000D03*
%TD*%
D12*
%TO.C,SW1*%
X45936320Y-36486680D03*
X41516903Y-40906097D03*
%TD*%
D13*
%TO.C,D4*%
X64262000Y-47108000D03*
X64262000Y-49158000D03*
%TD*%
D14*
%TO.C,C3*%
X38252400Y-44420800D03*
X38252400Y-47120800D03*
%TD*%
D15*
%TO.C,Q2*%
X69154000Y-47855000D03*
X71054000Y-47855000D03*
X70104000Y-44855000D03*
%TD*%
D16*
%TO.C,C1*%
X50397500Y-45212000D03*
X52472500Y-45212000D03*
%TD*%
D11*
%TO.C,R6*%
X59537600Y-41792400D03*
X59537600Y-39792400D03*
%TD*%
%TO.C,R4*%
X57150000Y-42656000D03*
X57150000Y-40656000D03*
%TD*%
D17*
%TO.C,R5*%
X64119000Y-40259000D03*
X62119000Y-40259000D03*
%TD*%
D15*
%TO.C,Q1*%
X41214000Y-47855000D03*
X43114000Y-47855000D03*
X42164000Y-44855000D03*
%TD*%
D18*
%TO.C,R2*%
X47768000Y-40233600D03*
X49768000Y-40233600D03*
%TD*%
D19*
%TO.C,D2*%
X49793000Y-42291000D03*
X47743000Y-42291000D03*
%TD*%
D20*
%TO.C,C2*%
X61616500Y-45212000D03*
X59541500Y-45212000D03*
%TD*%
D21*
%TO.C,D3*%
X62094000Y-42291000D03*
X64144000Y-42291000D03*
%TD*%
D11*
%TO.C,R1*%
X52425600Y-41792400D03*
X52425600Y-39792400D03*
%TD*%
D13*
%TO.C,D1*%
X47752000Y-47108000D03*
X47752000Y-49158000D03*
%TD*%
M02*
