%TF.GenerationSoftware,KiCad,Pcbnew,(6.0.0)*%
%TF.CreationDate,2022-05-29T15:36:19+02:00*%
%TF.ProjectId,LED_flasher,4c45445f-666c-4617-9368-65722e6b6963,rev?*%
%TF.SameCoordinates,Original*%
%TF.FileFunction,Copper,L1,Top*%
%TF.FilePolarity,Positive*%
%FSLAX46Y46*%
G04 Gerber Fmt 4.6, Leading zero omitted, Abs format (unit mm)*
G04 Created by KiCad (PCBNEW (6.0.0)) date 2022-05-29 15:36:19*
%MOMM*%
%LPD*%
G01*
G04 APERTURE LIST*
G04 Aperture macros list*
%AMRoundRect*
0 Rectangle with rounded corners*
0 $1 Rounding radius*
0 $2 $3 $4 $5 $6 $7 $8 $9 X,Y pos of 4 corners*
0 Add a 4 corners polygon primitive as box body*
4,1,4,$2,$3,$4,$5,$6,$7,$8,$9,$2,$3,0*
0 Add four circle primitives for the rounded corners*
1,1,$1+$1,$2,$3*
1,1,$1+$1,$4,$5*
1,1,$1+$1,$6,$7*
1,1,$1+$1,$8,$9*
0 Add four rect primitives between the rounded corners*
20,1,$1+$1,$2,$3,$4,$5,0*
20,1,$1+$1,$4,$5,$6,$7,0*
20,1,$1+$1,$6,$7,$8,$9,0*
20,1,$1+$1,$8,$9,$2,$3,0*%
%AMRotRect*
0 Rectangle, with rotation*
0 The origin of the aperture is its center*
0 $1 length*
0 $2 width*
0 $3 Rotation angle, in degrees counterclockwise*
0 Add horizontal line*
21,1,$1,$2,0,0,$3*%
G04 Aperture macros list end*
%TA.AperFunction,SMDPad,CuDef*%
%ADD10RoundRect,0.250000X0.450000X-0.350000X0.450000X0.350000X-0.450000X0.350000X-0.450000X-0.350000X0*%
%TD*%
%TA.AperFunction,ComponentPad*%
%ADD11RotRect,2.000000X2.000000X225.000000*%
%TD*%
%TA.AperFunction,SMDPad,CuDef*%
%ADD12RoundRect,0.250000X-0.450000X0.325000X-0.450000X-0.325000X0.450000X-0.325000X0.450000X0.325000X0*%
%TD*%
%TA.AperFunction,SMDPad,CuDef*%
%ADD13RoundRect,0.250000X-0.425000X0.450000X-0.425000X-0.450000X0.425000X-0.450000X0.425000X0.450000X0*%
%TD*%
%TA.AperFunction,SMDPad,CuDef*%
%ADD14R,0.800000X1.900000*%
%TD*%
%TA.AperFunction,SMDPad,CuDef*%
%ADD15RoundRect,0.250000X-0.337500X-0.475000X0.337500X-0.475000X0.337500X0.475000X-0.337500X0.475000X0*%
%TD*%
%TA.AperFunction,SMDPad,CuDef*%
%ADD16RoundRect,0.250000X0.350000X0.450000X-0.350000X0.450000X-0.350000X-0.450000X0.350000X-0.450000X0*%
%TD*%
%TA.AperFunction,SMDPad,CuDef*%
%ADD17RoundRect,0.250000X-0.350000X-0.450000X0.350000X-0.450000X0.350000X0.450000X-0.350000X0.450000X0*%
%TD*%
%TA.AperFunction,SMDPad,CuDef*%
%ADD18RoundRect,0.250000X0.325000X0.450000X-0.325000X0.450000X-0.325000X-0.450000X0.325000X-0.450000X0*%
%TD*%
%TA.AperFunction,SMDPad,CuDef*%
%ADD19RoundRect,0.250000X0.337500X0.475000X-0.337500X0.475000X-0.337500X-0.475000X0.337500X-0.475000X0*%
%TD*%
%TA.AperFunction,SMDPad,CuDef*%
%ADD20RoundRect,0.250000X-0.325000X-0.450000X0.325000X-0.450000X0.325000X0.450000X-0.325000X0.450000X0*%
%TD*%
%TA.AperFunction,ViaPad*%
%ADD21C,2.600000*%
%TD*%
%TA.AperFunction,ViaPad*%
%ADD22C,0.600000*%
%TD*%
%TA.AperFunction,Conductor*%
%ADD23C,0.381000*%
%TD*%
%TA.AperFunction,Conductor*%
%ADD24C,0.635000*%
%TD*%
G04 APERTURE END LIST*
D10*
%TO.P,R3,1*%
%TO.N,Net-(C1-Pad2)*%
X54864000Y-42656000D03*
%TO.P,R3,2*%
%TO.N,Net-(R1-Pad2)*%
X54864000Y-40656000D03*
%TD*%
D11*
%TO.P,SW1,1,1*%
%TO.N,Net-(R1-Pad2)*%
X45936320Y-36486680D03*
%TO.P,SW1,2,2*%
%TO.N,Net-(BT1-Pad1)*%
X41516903Y-40906097D03*
%TD*%
D12*
%TO.P,D4,1,K*%
%TO.N,Net-(C2-Pad1)*%
X64262000Y-47108000D03*
%TO.P,D4,2,A*%
%TO.N,Net-(D4-Pad2)*%
X64262000Y-49158000D03*
%TD*%
D13*
%TO.P,C3,1*%
%TO.N,Net-(BT1-Pad1)*%
X38252400Y-44420800D03*
%TO.P,C3,2*%
%TO.N,GND*%
X38252400Y-47120800D03*
%TD*%
D14*
%TO.P,Q2,1,B*%
%TO.N,Net-(C1-Pad2)*%
X69154000Y-47855000D03*
%TO.P,Q2,2,E*%
%TO.N,GND*%
X71054000Y-47855000D03*
%TO.P,Q2,3,C*%
%TO.N,Net-(C2-Pad1)*%
X70104000Y-44855000D03*
%TD*%
D15*
%TO.P,C1,1*%
%TO.N,Net-(C1-Pad1)*%
X50397500Y-45212000D03*
%TO.P,C1,2*%
%TO.N,Net-(C1-Pad2)*%
X52472500Y-45212000D03*
%TD*%
D10*
%TO.P,R6,1*%
%TO.N,Net-(D4-Pad2)*%
X59537600Y-41792400D03*
%TO.P,R6,2*%
%TO.N,Net-(R1-Pad2)*%
X59537600Y-39792400D03*
%TD*%
%TO.P,R4,1*%
%TO.N,Net-(C2-Pad2)*%
X57150000Y-42656000D03*
%TO.P,R4,2*%
%TO.N,Net-(R1-Pad2)*%
X57150000Y-40656000D03*
%TD*%
D16*
%TO.P,R5,1*%
%TO.N,Net-(D3-Pad2)*%
X64119000Y-40259000D03*
%TO.P,R5,2*%
%TO.N,Net-(R1-Pad2)*%
X62119000Y-40259000D03*
%TD*%
D14*
%TO.P,Q1,1,B*%
%TO.N,Net-(C2-Pad2)*%
X41214000Y-47855000D03*
%TO.P,Q1,2,E*%
%TO.N,GND*%
X43114000Y-47855000D03*
%TO.P,Q1,3,C*%
%TO.N,Net-(C1-Pad1)*%
X42164000Y-44855000D03*
%TD*%
D17*
%TO.P,R2,1*%
%TO.N,Net-(D2-Pad2)*%
X47768000Y-40233600D03*
%TO.P,R2,2*%
%TO.N,Net-(R1-Pad2)*%
X49768000Y-40233600D03*
%TD*%
D18*
%TO.P,D2,1,K*%
%TO.N,Net-(C1-Pad1)*%
X49793000Y-42291000D03*
%TO.P,D2,2,A*%
%TO.N,Net-(D2-Pad2)*%
X47743000Y-42291000D03*
%TD*%
D19*
%TO.P,C2,1*%
%TO.N,Net-(C2-Pad1)*%
X61616500Y-45212000D03*
%TO.P,C2,2*%
%TO.N,Net-(C2-Pad2)*%
X59541500Y-45212000D03*
%TD*%
D20*
%TO.P,D3,1,K*%
%TO.N,Net-(C2-Pad1)*%
X62094000Y-42291000D03*
%TO.P,D3,2,A*%
%TO.N,Net-(D3-Pad2)*%
X64144000Y-42291000D03*
%TD*%
D10*
%TO.P,R1,1*%
%TO.N,Net-(D1-Pad2)*%
X52425600Y-41792400D03*
%TO.P,R1,2*%
%TO.N,Net-(R1-Pad2)*%
X52425600Y-39792400D03*
%TD*%
D12*
%TO.P,D1,1,K*%
%TO.N,Net-(C1-Pad1)*%
X47752000Y-47108000D03*
%TO.P,D1,2,A*%
%TO.N,Net-(D1-Pad2)*%
X47752000Y-49158000D03*
%TD*%
D21*
%TO.N,*%
X38354000Y-51308000D03*
X73406000Y-41148000D03*
X38354000Y-41148000D03*
X73406000Y-51308000D03*
D22*
%TO.N,GND*%
X38252400Y-48514000D03*
X71043800Y-49733200D03*
X43942000Y-49530000D03*
%TO.N,Net-(BT1-Pad1)*%
X41529000Y-42799000D03*
%TD*%
D23*
%TO.N,Net-(R1-Pad2)*%
X49768000Y-40233600D02*
X50850800Y-40233600D01*
X59537600Y-39792400D02*
X60671200Y-39792400D01*
X50850800Y-40233600D02*
X51292000Y-39792400D01*
X49768000Y-39303200D02*
X49768000Y-40233600D01*
X48362440Y-38912800D02*
X49377600Y-38912800D01*
X49377600Y-38912800D02*
X49768000Y-39303200D01*
X61137800Y-40259000D02*
X62119000Y-40259000D01*
X53289200Y-40656000D02*
X58674000Y-40656000D01*
X60671200Y-39792400D02*
X61137800Y-40259000D01*
X58674000Y-40656000D02*
X59537600Y-39792400D01*
X51292000Y-39792400D02*
X52425600Y-39792400D01*
X52425600Y-39792400D02*
X53289200Y-40656000D01*
X45936320Y-36486680D02*
X48362440Y-38912800D01*
%TO.N,GND*%
X43942000Y-49530000D02*
X43942000Y-48006000D01*
D24*
X38252400Y-48514000D02*
X38252400Y-47120810D01*
D23*
X71054000Y-49723000D02*
X71054000Y-47855000D01*
X43942000Y-48006000D02*
X43791000Y-47855000D01*
X71043800Y-49733200D02*
X71054000Y-49723000D01*
X43791000Y-47855000D02*
X43114000Y-47855000D01*
%TO.N,Net-(C1-Pad1)*%
X49784000Y-42300000D02*
X49784000Y-43535600D01*
X47752000Y-47108000D02*
X46600000Y-47108000D01*
X49793000Y-42291000D02*
X49784000Y-42300000D01*
X44347000Y-44855000D02*
X42164000Y-44855000D01*
X49784000Y-43535600D02*
X50397500Y-44149100D01*
X50397500Y-44149100D02*
X50397500Y-46249500D01*
X46600000Y-47108000D02*
X44347000Y-44855000D01*
X49539000Y-47108000D02*
X47752000Y-47108000D01*
X50397500Y-46249500D02*
X49539000Y-47108000D01*
%TO.N,Net-(C1-Pad2)*%
X52472500Y-46714500D02*
X48768000Y-50419000D01*
X46736000Y-50419000D02*
X46228000Y-49911000D01*
X48768000Y-50419000D02*
X46736000Y-50419000D01*
X43815000Y-46355000D02*
X40729978Y-46355000D01*
X66675000Y-51689000D02*
X69154000Y-49210000D01*
X54864000Y-43942000D02*
X53594000Y-45212000D01*
X54864000Y-42568500D02*
X54864000Y-43942000D01*
X69154000Y-49210000D02*
X69154000Y-47855000D01*
X53594000Y-45212000D02*
X52472500Y-45212000D01*
X46228000Y-49911000D02*
X46228000Y-48768000D01*
X52472500Y-45212000D02*
X52472500Y-46714500D01*
X42799000Y-51689000D02*
X66675000Y-51689000D01*
X46228000Y-48768000D02*
X43815000Y-46355000D01*
X40729978Y-46355000D02*
X40259000Y-46825978D01*
X40259000Y-46825978D02*
X40259000Y-49149000D01*
X40259000Y-49149000D02*
X42799000Y-51689000D01*
%TO.N,Net-(C2-Pad1)*%
X67540000Y-44855000D02*
X65287000Y-47108000D01*
X62094000Y-43697000D02*
X62094000Y-42291000D01*
X62348000Y-47108000D02*
X61616500Y-46376500D01*
X70104000Y-44855000D02*
X67540000Y-44855000D01*
X61616500Y-44174500D02*
X62094000Y-43697000D01*
X61616500Y-46376500D02*
X61616500Y-44174500D01*
X65287000Y-47108000D02*
X64262000Y-47108000D01*
X64262000Y-47108000D02*
X62348000Y-47108000D01*
%TO.N,Net-(C2-Pad2)*%
X65024000Y-51054000D02*
X43434000Y-51054000D01*
X65913000Y-50165000D02*
X65024000Y-51054000D01*
X59541500Y-45212000D02*
X59541500Y-46079500D01*
X43434000Y-51054000D02*
X41214000Y-48834000D01*
X57150000Y-43561000D02*
X50673000Y-50038000D01*
X50673000Y-50038000D02*
X50673000Y-51054000D01*
X41214000Y-48834000D02*
X41214000Y-47855000D01*
X57150000Y-42568500D02*
X57150000Y-43561000D01*
X65913000Y-48641000D02*
X65913000Y-50165000D01*
X61595000Y-48133000D02*
X65405000Y-48133000D01*
X65405000Y-48133000D02*
X65913000Y-48641000D01*
X59541500Y-46079500D02*
X61595000Y-48133000D01*
%TO.N,Net-(D1-Pad2)*%
X51435000Y-46609000D02*
X51435000Y-43865800D01*
X52425600Y-42875200D02*
X52425600Y-41792400D01*
X48886000Y-49158000D02*
X51435000Y-46609000D01*
X47752000Y-49158000D02*
X48886000Y-49158000D01*
X51435000Y-43865800D02*
X52425600Y-42875200D01*
%TO.N,Net-(D2-Pad2)*%
X47768000Y-42339500D02*
X47768000Y-40132000D01*
%TO.N,Net-(D3-Pad2)*%
X64144000Y-40284000D02*
X64144000Y-42291000D01*
X64119000Y-40259000D02*
X64144000Y-40284000D01*
%TO.N,Net-(D4-Pad2)*%
X58547000Y-46355000D02*
X58547000Y-43840400D01*
X61350000Y-49158000D02*
X58547000Y-46355000D01*
X58547000Y-43840400D02*
X59537600Y-42849800D01*
X59537600Y-42849800D02*
X59537600Y-41792400D01*
X64262000Y-49158000D02*
X61350000Y-49158000D01*
D24*
%TO.N,Net-(BT1-Pad1)*%
X39907200Y-44420800D02*
X41529000Y-42799000D01*
D23*
X41529000Y-40918194D02*
X41516903Y-40906097D01*
D24*
X41529000Y-42799000D02*
X41529000Y-40918206D01*
X38252400Y-44420800D02*
X39907200Y-44420800D01*
%TD*%
%TA.AperFunction,Conductor*%
%TO.N,GND*%
G36*
X65184681Y-34049302D02*
G01*
X74860350Y-38887137D01*
X74912333Y-38935491D01*
X74930000Y-38999834D01*
X74930000Y-39807064D01*
X74909998Y-39875185D01*
X74856342Y-39921678D01*
X74786068Y-39931782D01*
X74717667Y-39898839D01*
X74550725Y-39741797D01*
X74547317Y-39738591D01*
X74373928Y-39618306D01*
X74330299Y-39588039D01*
X74330296Y-39588037D01*
X74326457Y-39585374D01*
X74322264Y-39583306D01*
X74089564Y-39468551D01*
X74089561Y-39468550D01*
X74085376Y-39466486D01*
X74037745Y-39451239D01*
X73852681Y-39392000D01*
X73829370Y-39384538D01*
X73824763Y-39383788D01*
X73824760Y-39383787D01*
X73568674Y-39342081D01*
X73568675Y-39342081D01*
X73564063Y-39341330D01*
X73433719Y-39339624D01*
X73299961Y-39337873D01*
X73299958Y-39337873D01*
X73295284Y-39337812D01*
X73028937Y-39374060D01*
X73024451Y-39375368D01*
X73024449Y-39375368D01*
X72978359Y-39388802D01*
X72770874Y-39449278D01*
X72526763Y-39561815D01*
X72522854Y-39564378D01*
X72305881Y-39706631D01*
X72305876Y-39706635D01*
X72301968Y-39709197D01*
X72282749Y-39726351D01*
X72115995Y-39875185D01*
X72101426Y-39888188D01*
X71929544Y-40094854D01*
X71790096Y-40324656D01*
X71686148Y-40572545D01*
X71619981Y-40833077D01*
X71593050Y-41100526D01*
X71593274Y-41105192D01*
X71593274Y-41105197D01*
X71598707Y-41218291D01*
X71605947Y-41369019D01*
X71658388Y-41632656D01*
X71749220Y-41885646D01*
X71876450Y-42122431D01*
X71879241Y-42126168D01*
X71879245Y-42126175D01*
X71953441Y-42225535D01*
X72037281Y-42337810D01*
X72040590Y-42341090D01*
X72040595Y-42341096D01*
X72194603Y-42493765D01*
X72228180Y-42527050D01*
X72231942Y-42529808D01*
X72231945Y-42529811D01*
X72349850Y-42616262D01*
X72444954Y-42685995D01*
X72449089Y-42688171D01*
X72449093Y-42688173D01*
X72651471Y-42794650D01*
X72682840Y-42811154D01*
X72737076Y-42830094D01*
X72909504Y-42890308D01*
X72936613Y-42899775D01*
X72941206Y-42900647D01*
X73196109Y-42949042D01*
X73196112Y-42949042D01*
X73200698Y-42949913D01*
X73328370Y-42954929D01*
X73464625Y-42960283D01*
X73464630Y-42960283D01*
X73469293Y-42960466D01*
X73573607Y-42949042D01*
X73731844Y-42931713D01*
X73731850Y-42931712D01*
X73736497Y-42931203D01*
X73741021Y-42930012D01*
X73991918Y-42863956D01*
X73991920Y-42863955D01*
X73996441Y-42862765D01*
X74000738Y-42860919D01*
X74239120Y-42758502D01*
X74239122Y-42758501D01*
X74243414Y-42756657D01*
X74415219Y-42650341D01*
X74468017Y-42617669D01*
X74468021Y-42617666D01*
X74471990Y-42615210D01*
X74677149Y-42441530D01*
X74709268Y-42404905D01*
X74769221Y-42366877D01*
X74840217Y-42367299D01*
X74899713Y-42406037D01*
X74928822Y-42470792D01*
X74930000Y-42487982D01*
X74930000Y-49967064D01*
X74909998Y-50035185D01*
X74856342Y-50081678D01*
X74786068Y-50091782D01*
X74717667Y-50058839D01*
X74550725Y-49901797D01*
X74547317Y-49898591D01*
X74326457Y-49745374D01*
X74284123Y-49724497D01*
X74089564Y-49628551D01*
X74089561Y-49628550D01*
X74085376Y-49626486D01*
X74037745Y-49611239D01*
X73886233Y-49562740D01*
X73829370Y-49544538D01*
X73824763Y-49543788D01*
X73824760Y-49543787D01*
X73568674Y-49502081D01*
X73568675Y-49502081D01*
X73564063Y-49501330D01*
X73433719Y-49499624D01*
X73299961Y-49497873D01*
X73299958Y-49497873D01*
X73295284Y-49497812D01*
X73028937Y-49534060D01*
X73024451Y-49535368D01*
X73024449Y-49535368D01*
X72995565Y-49543787D01*
X72770874Y-49609278D01*
X72766621Y-49611238D01*
X72766620Y-49611239D01*
X72714897Y-49635084D01*
X72526763Y-49721815D01*
X72522854Y-49724378D01*
X72305881Y-49866631D01*
X72305876Y-49866635D01*
X72301968Y-49869197D01*
X72272024Y-49895923D01*
X72115995Y-50035185D01*
X72101426Y-50048188D01*
X71929544Y-50254854D01*
X71927121Y-50258847D01*
X71821455Y-50432979D01*
X71790096Y-50484656D01*
X71788287Y-50488970D01*
X71788285Y-50488974D01*
X71713365Y-50667639D01*
X71686148Y-50732545D01*
X71619981Y-50993077D01*
X71593050Y-51260526D01*
X71605947Y-51529019D01*
X71658388Y-51792656D01*
X71749220Y-52045646D01*
X71876450Y-52282431D01*
X71879241Y-52286168D01*
X71879245Y-52286175D01*
X71958078Y-52391744D01*
X72037281Y-52497810D01*
X72040590Y-52501090D01*
X72040595Y-52501096D01*
X72224863Y-52683762D01*
X72228180Y-52687050D01*
X72231942Y-52689808D01*
X72231945Y-52689811D01*
X72344299Y-52772192D01*
X72444954Y-52845995D01*
X72449089Y-52848171D01*
X72449093Y-52848173D01*
X72678698Y-52968975D01*
X72682840Y-52971154D01*
X72936613Y-53059775D01*
X72941206Y-53060647D01*
X73196109Y-53109042D01*
X73196112Y-53109042D01*
X73200698Y-53109913D01*
X73328370Y-53114929D01*
X73464625Y-53120283D01*
X73464630Y-53120283D01*
X73469293Y-53120466D01*
X73573607Y-53109042D01*
X73731844Y-53091713D01*
X73731850Y-53091712D01*
X73736497Y-53091203D01*
X73741021Y-53090012D01*
X73991918Y-53023956D01*
X73991920Y-53023955D01*
X73996441Y-53022765D01*
X74000738Y-53020919D01*
X74239120Y-52918502D01*
X74239122Y-52918501D01*
X74243414Y-52916657D01*
X74362071Y-52843230D01*
X74468017Y-52777669D01*
X74468021Y-52777666D01*
X74471990Y-52775210D01*
X74677149Y-52601530D01*
X74709268Y-52564905D01*
X74769221Y-52526877D01*
X74840217Y-52527299D01*
X74899713Y-52566037D01*
X74928822Y-52630792D01*
X74930000Y-52647982D01*
X74930000Y-53456166D01*
X74909998Y-53524287D01*
X74860349Y-53568864D01*
X65184681Y-58406698D01*
X65128332Y-58420000D01*
X46631668Y-58420000D01*
X46575319Y-58406698D01*
X36899651Y-53568864D01*
X36847667Y-53520509D01*
X36830000Y-53456166D01*
X36830000Y-52646202D01*
X36850002Y-52578081D01*
X36903658Y-52531588D01*
X36973932Y-52521484D01*
X37038512Y-52550978D01*
X37044697Y-52556710D01*
X37176180Y-52687050D01*
X37179942Y-52689808D01*
X37179945Y-52689811D01*
X37292299Y-52772192D01*
X37392954Y-52845995D01*
X37397089Y-52848171D01*
X37397093Y-52848173D01*
X37626698Y-52968975D01*
X37630840Y-52971154D01*
X37884613Y-53059775D01*
X37889206Y-53060647D01*
X38144109Y-53109042D01*
X38144112Y-53109042D01*
X38148698Y-53109913D01*
X38276370Y-53114929D01*
X38412625Y-53120283D01*
X38412630Y-53120283D01*
X38417293Y-53120466D01*
X38521607Y-53109042D01*
X38679844Y-53091713D01*
X38679850Y-53091712D01*
X38684497Y-53091203D01*
X38689021Y-53090012D01*
X38939918Y-53023956D01*
X38939920Y-53023955D01*
X38944441Y-53022765D01*
X38948738Y-53020919D01*
X39187120Y-52918502D01*
X39187122Y-52918501D01*
X39191414Y-52916657D01*
X39310071Y-52843230D01*
X39416017Y-52777669D01*
X39416021Y-52777666D01*
X39419990Y-52775210D01*
X39625149Y-52601530D01*
X39802382Y-52399434D01*
X39807055Y-52392170D01*
X39945269Y-52177291D01*
X39947797Y-52173361D01*
X40058199Y-51928278D01*
X40095209Y-51797051D01*
X40129893Y-51674072D01*
X40129894Y-51674069D01*
X40131163Y-51669568D01*
X40149043Y-51529019D01*
X40164688Y-51406045D01*
X40164688Y-51406041D01*
X40165086Y-51402915D01*
X40167571Y-51308000D01*
X40147650Y-51039937D01*
X40088327Y-50777763D01*
X39990902Y-50527238D01*
X39857518Y-50293864D01*
X39842176Y-50274402D01*
X39790785Y-50209213D01*
X39691105Y-50082769D01*
X39495317Y-49898591D01*
X39274457Y-49745374D01*
X39232123Y-49724497D01*
X39037564Y-49628551D01*
X39037561Y-49628550D01*
X39033376Y-49626486D01*
X38985745Y-49611239D01*
X38834233Y-49562740D01*
X38777370Y-49544538D01*
X38772763Y-49543788D01*
X38772760Y-49543787D01*
X38516674Y-49502081D01*
X38516675Y-49502081D01*
X38512063Y-49501330D01*
X38381719Y-49499624D01*
X38247961Y-49497873D01*
X38247958Y-49497873D01*
X38243284Y-49497812D01*
X37976937Y-49534060D01*
X37972451Y-49535368D01*
X37972449Y-49535368D01*
X37943565Y-49543787D01*
X37718874Y-49609278D01*
X37714621Y-49611238D01*
X37714620Y-49611239D01*
X37662897Y-49635084D01*
X37474763Y-49721815D01*
X37470854Y-49724378D01*
X37253881Y-49866631D01*
X37253876Y-49866635D01*
X37249968Y-49869197D01*
X37049426Y-50048188D01*
X37046583Y-50051607D01*
X36984925Y-50086683D01*
X36914032Y-50082853D01*
X36856463Y-50041304D01*
X36830497Y-49975226D01*
X36830000Y-49964048D01*
X36830000Y-47744307D01*
X36850002Y-47676186D01*
X36903658Y-47629693D01*
X36973932Y-47619589D01*
X37038512Y-47649083D01*
X37076896Y-47708809D01*
X37079161Y-47717711D01*
X37082549Y-47733400D01*
X37133988Y-47887584D01*
X37140161Y-47900762D01*
X37225463Y-48038607D01*
X37234499Y-48050008D01*
X37349229Y-48164539D01*
X37360640Y-48173551D01*
X37498643Y-48258616D01*
X37511824Y-48264763D01*
X37666110Y-48315938D01*
X37679486Y-48318805D01*
X37773838Y-48328472D01*
X37780254Y-48328800D01*
X37980285Y-48328800D01*
X37995524Y-48324325D01*
X37996729Y-48322935D01*
X37998400Y-48315252D01*
X37998400Y-45930916D01*
X37993925Y-45915677D01*
X37992535Y-45914472D01*
X37984852Y-45912801D01*
X37780305Y-45912801D01*
X37773786Y-45913138D01*
X37678194Y-45923057D01*
X37664800Y-45925949D01*
X37510616Y-45977388D01*
X37497438Y-45983561D01*
X37359593Y-46068863D01*
X37348192Y-46077899D01*
X37233661Y-46192629D01*
X37224649Y-46204040D01*
X37139584Y-46342043D01*
X37133437Y-46355224D01*
X37082262Y-46509511D01*
X37079201Y-46523789D01*
X37045364Y-46586204D01*
X36983155Y-46620417D01*
X36912324Y-46615566D01*
X36855360Y-46573191D01*
X36830349Y-46506746D01*
X36830000Y-46497378D01*
X36830000Y-45046698D01*
X36850002Y-44978577D01*
X36903658Y-44932084D01*
X36973932Y-44921980D01*
X37038512Y-44951474D01*
X37076896Y-45011200D01*
X37079161Y-45020102D01*
X37079163Y-45020109D01*
X37079874Y-45026966D01*
X37135850Y-45194746D01*
X37228922Y-45345148D01*
X37354097Y-45470105D01*
X37360327Y-45473945D01*
X37360328Y-45473946D01*
X37497490Y-45558494D01*
X37504662Y-45562915D01*
X37584405Y-45589364D01*
X37666011Y-45616432D01*
X37666013Y-45616432D01*
X37672539Y-45618597D01*
X37679375Y-45619297D01*
X37679378Y-45619298D01*
X37722431Y-45623709D01*
X37777000Y-45629300D01*
X38727800Y-45629300D01*
X38731046Y-45628963D01*
X38731050Y-45628963D01*
X38826708Y-45619038D01*
X38826712Y-45619037D01*
X38833566Y-45618326D01*
X38840102Y-45616145D01*
X38840104Y-45616145D01*
X38972206Y-45572072D01*
X39001346Y-45562350D01*
X39151748Y-45469278D01*
X39276705Y-45344103D01*
X39280548Y-45337869D01*
X39299772Y-45306683D01*
X39352545Y-45259190D01*
X39407031Y-45246800D01*
X39867167Y-45246800D01*
X39877712Y-45247242D01*
X39927500Y-45251423D01*
X40004943Y-45241089D01*
X40007943Y-45240727D01*
X40049698Y-45236191D01*
X40078834Y-45233026D01*
X40078836Y-45233026D01*
X40085617Y-45232289D01*
X40092083Y-45230113D01*
X40094433Y-45229596D01*
X40094983Y-45229499D01*
X40095750Y-45229320D01*
X40096285Y-45229165D01*
X40098632Y-45228589D01*
X40105390Y-45227687D01*
X40178742Y-45200989D01*
X40181643Y-45199974D01*
X40249239Y-45177225D01*
X40249246Y-45177222D01*
X40255711Y-45175046D01*
X40261560Y-45171531D01*
X40263753Y-45170518D01*
X40264268Y-45170306D01*
X40264966Y-45169973D01*
X40265467Y-45169700D01*
X40267621Y-45168640D01*
X40274034Y-45166306D01*
X40340002Y-45124441D01*
X40342594Y-45122841D01*
X40403702Y-45086124D01*
X40409544Y-45082614D01*
X40414495Y-45077933D01*
X40416431Y-45076463D01*
X40417362Y-45075815D01*
X40421196Y-45072915D01*
X40425564Y-45070143D01*
X40429664Y-45066477D01*
X40481586Y-45014555D01*
X40484108Y-45012102D01*
X40534982Y-44963993D01*
X40534984Y-44963991D01*
X40539940Y-44959304D01*
X40543774Y-44953663D01*
X40547903Y-44948811D01*
X40554760Y-44941381D01*
X41040405Y-44455736D01*
X41102717Y-44421710D01*
X41173532Y-44426775D01*
X41230368Y-44469322D01*
X41255179Y-44535842D01*
X41255500Y-44544831D01*
X41255500Y-45530000D01*
X41235498Y-45598121D01*
X41181842Y-45644614D01*
X41129500Y-45656000D01*
X40758567Y-45656000D01*
X40749997Y-45655708D01*
X40700702Y-45652347D01*
X40700698Y-45652347D01*
X40693126Y-45651831D01*
X40685649Y-45653136D01*
X40685648Y-45653136D01*
X40658358Y-45657899D01*
X40631063Y-45662663D01*
X40624546Y-45663624D01*
X40610439Y-45665331D01*
X40569560Y-45670278D01*
X40569557Y-45670279D01*
X40562018Y-45671191D01*
X40554909Y-45673877D01*
X40551466Y-45674723D01*
X40537341Y-45678586D01*
X40533936Y-45679614D01*
X40526460Y-45680919D01*
X40468788Y-45706235D01*
X40462693Y-45708723D01*
X40410858Y-45728310D01*
X40410856Y-45728311D01*
X40403756Y-45730994D01*
X40397504Y-45735291D01*
X40394361Y-45736934D01*
X40381613Y-45744029D01*
X40378501Y-45745870D01*
X40371545Y-45748923D01*
X40365517Y-45753549D01*
X40365516Y-45753549D01*
X40321580Y-45787262D01*
X40316253Y-45791133D01*
X40264326Y-45826821D01*
X40259274Y-45832491D01*
X40259273Y-45832492D01*
X40223476Y-45872670D01*
X40218496Y-45877946D01*
X40001718Y-46094725D01*
X39784955Y-46311488D01*
X39778688Y-46317342D01*
X39735726Y-46354820D01*
X39705822Y-46397369D01*
X39699506Y-46406356D01*
X39695573Y-46411652D01*
X39661394Y-46455241D01*
X39661392Y-46455244D01*
X39656708Y-46461218D01*
X39653582Y-46468142D01*
X39651744Y-46471177D01*
X39644500Y-46483876D01*
X39642812Y-46487024D01*
X39638444Y-46493239D01*
X39638369Y-46493431D01*
X39590762Y-46541768D01*
X39521505Y-46557387D01*
X39454798Y-46533083D01*
X39410013Y-46471518D01*
X39370813Y-46354018D01*
X39364639Y-46340838D01*
X39279337Y-46202993D01*
X39270301Y-46191592D01*
X39155571Y-46077061D01*
X39144160Y-46068049D01*
X39006157Y-45982984D01*
X38992976Y-45976837D01*
X38838690Y-45925662D01*
X38825314Y-45922795D01*
X38730962Y-45913128D01*
X38724545Y-45912800D01*
X38524515Y-45912800D01*
X38509276Y-45917275D01*
X38508071Y-45918665D01*
X38506400Y-45926348D01*
X38506400Y-48310684D01*
X38510875Y-48325923D01*
X38512265Y-48327128D01*
X38519948Y-48328799D01*
X38724495Y-48328799D01*
X38731014Y-48328462D01*
X38826606Y-48318543D01*
X38840000Y-48315651D01*
X38994184Y-48264212D01*
X39007362Y-48258039D01*
X39145207Y-48172737D01*
X39156608Y-48163701D01*
X39271139Y-48048971D01*
X39280151Y-48037560D01*
X39326740Y-47961978D01*
X39379512Y-47914485D01*
X39449584Y-47903061D01*
X39514707Y-47931335D01*
X39554207Y-47990329D01*
X39560000Y-48028094D01*
X39560000Y-49120401D01*
X39559708Y-49128971D01*
X39556395Y-49177569D01*
X39555830Y-49185852D01*
X39557135Y-49193328D01*
X39557135Y-49193332D01*
X39566663Y-49247924D01*
X39567626Y-49254449D01*
X39573560Y-49303479D01*
X39575191Y-49316960D01*
X39577875Y-49324062D01*
X39578719Y-49327500D01*
X39582583Y-49341623D01*
X39583613Y-49345034D01*
X39584919Y-49352517D01*
X39587972Y-49359472D01*
X39610239Y-49410198D01*
X39612730Y-49416304D01*
X39634994Y-49475222D01*
X39639293Y-49481477D01*
X39640935Y-49484618D01*
X39648033Y-49497372D01*
X39649870Y-49500478D01*
X39652923Y-49507433D01*
X39657548Y-49513460D01*
X39657550Y-49513464D01*
X39691265Y-49557402D01*
X39695129Y-49562720D01*
X39730821Y-49614652D01*
X39736491Y-49619704D01*
X39736492Y-49619705D01*
X39776688Y-49655518D01*
X39781964Y-49660499D01*
X42284503Y-52163038D01*
X42290356Y-52169303D01*
X42327842Y-52212274D01*
X42379389Y-52248502D01*
X42384684Y-52252435D01*
X42434239Y-52291291D01*
X42441163Y-52294417D01*
X42444212Y-52296264D01*
X42456878Y-52303489D01*
X42460043Y-52305186D01*
X42466261Y-52309556D01*
X42524996Y-52332456D01*
X42531009Y-52334983D01*
X42588435Y-52360912D01*
X42595903Y-52362296D01*
X42599311Y-52363364D01*
X42613350Y-52367364D01*
X42616814Y-52368253D01*
X42623889Y-52371012D01*
X42631418Y-52372003D01*
X42631421Y-52372004D01*
X42686345Y-52379235D01*
X42692859Y-52380267D01*
X42747317Y-52390360D01*
X42747320Y-52390360D01*
X42754786Y-52391744D01*
X42762366Y-52391307D01*
X42762367Y-52391307D01*
X42816094Y-52388209D01*
X42823347Y-52388000D01*
X66646401Y-52388000D01*
X66654971Y-52388292D01*
X66704277Y-52391654D01*
X66704281Y-52391654D01*
X66711852Y-52392170D01*
X66719328Y-52390865D01*
X66719332Y-52390865D01*
X66773924Y-52381337D01*
X66780449Y-52380374D01*
X66835418Y-52373722D01*
X66835420Y-52373721D01*
X66842960Y-52372809D01*
X66850062Y-52370125D01*
X66853500Y-52369281D01*
X66867623Y-52365417D01*
X66871034Y-52364387D01*
X66878517Y-52363081D01*
X66936197Y-52337761D01*
X66942304Y-52335270D01*
X66994117Y-52315691D01*
X66994118Y-52315690D01*
X67001222Y-52313006D01*
X67007477Y-52308707D01*
X67010618Y-52307065D01*
X67023372Y-52299967D01*
X67026478Y-52298130D01*
X67033433Y-52295077D01*
X67039460Y-52290452D01*
X67039464Y-52290450D01*
X67083402Y-52256735D01*
X67088720Y-52252871D01*
X67140652Y-52217179D01*
X67181519Y-52171311D01*
X67186499Y-52166036D01*
X69628038Y-49724497D01*
X69634304Y-49718643D01*
X69671549Y-49686152D01*
X69677274Y-49681158D01*
X69713502Y-49629610D01*
X69717435Y-49624316D01*
X69721050Y-49619705D01*
X69756291Y-49574761D01*
X69759417Y-49567837D01*
X69761264Y-49564788D01*
X69768489Y-49552122D01*
X69770186Y-49548957D01*
X69774556Y-49542739D01*
X69797456Y-49484004D01*
X69799983Y-49477991D01*
X69825912Y-49420565D01*
X69827296Y-49413097D01*
X69828364Y-49409689D01*
X69832364Y-49395650D01*
X69833253Y-49392186D01*
X69836012Y-49385111D01*
X69837004Y-49377579D01*
X69844235Y-49322655D01*
X69845267Y-49316141D01*
X69856518Y-49255433D01*
X69888598Y-49192098D01*
X69904842Y-49177569D01*
X69910079Y-49173644D01*
X69910080Y-49173643D01*
X69917261Y-49168261D01*
X70003487Y-49053210D01*
X70060347Y-49010696D01*
X70131165Y-49005671D01*
X70193458Y-49039730D01*
X70205139Y-49053211D01*
X70285715Y-49160724D01*
X70298276Y-49173285D01*
X70400351Y-49249786D01*
X70415946Y-49258324D01*
X70536394Y-49303478D01*
X70551649Y-49307105D01*
X70602514Y-49312631D01*
X70609328Y-49313000D01*
X70781885Y-49313000D01*
X70797124Y-49308525D01*
X70798329Y-49307135D01*
X70800000Y-49299452D01*
X70800000Y-49294884D01*
X71308000Y-49294884D01*
X71312475Y-49310123D01*
X71313865Y-49311328D01*
X71321548Y-49312999D01*
X71498669Y-49312999D01*
X71505490Y-49312629D01*
X71556352Y-49307105D01*
X71571604Y-49303479D01*
X71692054Y-49258324D01*
X71707649Y-49249786D01*
X71809724Y-49173285D01*
X71822285Y-49160724D01*
X71898786Y-49058649D01*
X71907324Y-49043054D01*
X71952478Y-48922606D01*
X71956105Y-48907351D01*
X71961631Y-48856486D01*
X71962000Y-48849672D01*
X71962000Y-48127115D01*
X71957525Y-48111876D01*
X71956135Y-48110671D01*
X71948452Y-48109000D01*
X71326115Y-48109000D01*
X71310876Y-48113475D01*
X71309671Y-48114865D01*
X71308000Y-48122548D01*
X71308000Y-49294884D01*
X70800000Y-49294884D01*
X70800000Y-47582885D01*
X71308000Y-47582885D01*
X71312475Y-47598124D01*
X71313865Y-47599329D01*
X71321548Y-47601000D01*
X71943884Y-47601000D01*
X71959123Y-47596525D01*
X71960328Y-47595135D01*
X71961999Y-47587452D01*
X71961999Y-46860331D01*
X71961629Y-46853510D01*
X71956105Y-46802648D01*
X71952479Y-46787396D01*
X71907324Y-46666946D01*
X71898786Y-46651351D01*
X71822285Y-46549276D01*
X71809724Y-46536715D01*
X71707649Y-46460214D01*
X71692054Y-46451676D01*
X71571606Y-46406522D01*
X71556351Y-46402895D01*
X71505486Y-46397369D01*
X71498672Y-46397000D01*
X71326115Y-46397000D01*
X71310876Y-46401475D01*
X71309671Y-46402865D01*
X71308000Y-46410548D01*
X71308000Y-47582885D01*
X70800000Y-47582885D01*
X70800000Y-46415116D01*
X70792528Y-46389669D01*
X70765181Y-46347115D01*
X70765181Y-46276118D01*
X70803566Y-46216393D01*
X70810512Y-46210792D01*
X70834747Y-46192629D01*
X70867261Y-46168261D01*
X70954615Y-46051705D01*
X71005745Y-45915316D01*
X71012500Y-45853134D01*
X71012500Y-43856866D01*
X71005745Y-43794684D01*
X70954615Y-43658295D01*
X70867261Y-43541739D01*
X70750705Y-43454385D01*
X70614316Y-43403255D01*
X70552134Y-43396500D01*
X69655866Y-43396500D01*
X69593684Y-43403255D01*
X69457295Y-43454385D01*
X69340739Y-43541739D01*
X69253385Y-43658295D01*
X69202255Y-43794684D01*
X69195500Y-43856866D01*
X69195500Y-44030000D01*
X69175498Y-44098121D01*
X69121842Y-44144614D01*
X69069500Y-44156000D01*
X67568599Y-44156000D01*
X67560029Y-44155708D01*
X67510723Y-44152346D01*
X67510719Y-44152346D01*
X67503148Y-44151830D01*
X67495672Y-44153135D01*
X67495668Y-44153135D01*
X67441076Y-44162663D01*
X67434551Y-44163626D01*
X67379582Y-44170278D01*
X67379580Y-44170279D01*
X67372040Y-44171191D01*
X67364938Y-44173875D01*
X67361500Y-44174719D01*
X67347377Y-44178583D01*
X67343966Y-44179613D01*
X67336483Y-44180919D01*
X67329528Y-44183972D01*
X67278802Y-44206239D01*
X67272696Y-44208730D01*
X67271953Y-44209011D01*
X67213778Y-44230994D01*
X67207523Y-44235293D01*
X67204382Y-44236935D01*
X67191635Y-44244029D01*
X67188523Y-44245870D01*
X67181567Y-44248923D01*
X67175539Y-44253549D01*
X67175538Y-44253549D01*
X67131602Y-44287262D01*
X67126275Y-44291133D01*
X67074348Y-44326821D01*
X67069296Y-44332491D01*
X67069295Y-44332492D01*
X67033490Y-44372679D01*
X67028509Y-44377955D01*
X66147275Y-45259190D01*
X65278909Y-46127556D01*
X65216597Y-46161581D01*
X65145782Y-46156517D01*
X65123698Y-46145721D01*
X65040968Y-46094725D01*
X65040966Y-46094724D01*
X65034738Y-46090885D01*
X64938279Y-46058891D01*
X64873389Y-46037368D01*
X64873387Y-46037368D01*
X64866861Y-46035203D01*
X64860025Y-46034503D01*
X64860022Y-46034502D01*
X64816969Y-46030091D01*
X64762400Y-46024500D01*
X63761600Y-46024500D01*
X63758354Y-46024837D01*
X63758350Y-46024837D01*
X63662692Y-46034762D01*
X63662688Y-46034763D01*
X63655834Y-46035474D01*
X63649298Y-46037655D01*
X63649296Y-46037655D01*
X63585645Y-46058891D01*
X63488054Y-46091450D01*
X63337652Y-46184522D01*
X63332479Y-46189704D01*
X63295703Y-46226544D01*
X63212695Y-46309697D01*
X63208857Y-46315924D01*
X63208855Y-46315926D01*
X63188396Y-46349116D01*
X63135623Y-46396610D01*
X63081136Y-46409000D01*
X62689727Y-46409000D01*
X62621606Y-46388998D01*
X62600632Y-46372095D01*
X62559371Y-46330834D01*
X62525345Y-46268522D01*
X62530410Y-46197707D01*
X62549089Y-46164526D01*
X62553305Y-46160303D01*
X62604100Y-46077899D01*
X62642275Y-46015968D01*
X62642276Y-46015966D01*
X62646115Y-46009738D01*
X62676783Y-45917275D01*
X62699632Y-45848389D01*
X62699632Y-45848387D01*
X62701797Y-45841861D01*
X62702836Y-45831726D01*
X62710845Y-45753549D01*
X62712500Y-45737400D01*
X62712500Y-44686600D01*
X62701526Y-44580834D01*
X62689515Y-44544831D01*
X62647868Y-44420002D01*
X62645550Y-44413054D01*
X62598765Y-44337451D01*
X62593451Y-44328863D01*
X62574613Y-44260411D01*
X62595774Y-44192641D01*
X62606961Y-44178247D01*
X62611547Y-44173154D01*
X62617274Y-44168158D01*
X62653494Y-44116622D01*
X62657427Y-44111326D01*
X62691606Y-44067737D01*
X62691608Y-44067734D01*
X62696292Y-44061760D01*
X62699418Y-44054836D01*
X62701256Y-44051801D01*
X62708500Y-44039102D01*
X62710188Y-44035954D01*
X62714556Y-44029739D01*
X62737438Y-43971050D01*
X62739978Y-43965005D01*
X62765913Y-43907565D01*
X62767298Y-43900092D01*
X62768369Y-43896674D01*
X62772354Y-43882685D01*
X62773251Y-43879193D01*
X62776012Y-43872111D01*
X62780008Y-43841761D01*
X62784233Y-43809670D01*
X62785265Y-43803157D01*
X62795361Y-43748682D01*
X62795361Y-43748680D01*
X62796745Y-43741213D01*
X62793209Y-43679887D01*
X62793000Y-43672635D01*
X62793000Y-43471779D01*
X62813002Y-43403658D01*
X62852696Y-43364636D01*
X62887119Y-43343334D01*
X62887127Y-43343328D01*
X62893348Y-43339478D01*
X63018305Y-43214303D01*
X63020906Y-43210084D01*
X63078030Y-43169583D01*
X63148953Y-43166351D01*
X63210365Y-43201976D01*
X63216922Y-43209530D01*
X63220522Y-43215348D01*
X63345697Y-43340305D01*
X63351927Y-43344145D01*
X63351928Y-43344146D01*
X63489090Y-43428694D01*
X63496262Y-43433115D01*
X63576005Y-43459564D01*
X63657611Y-43486632D01*
X63657613Y-43486632D01*
X63664139Y-43488797D01*
X63670975Y-43489497D01*
X63670978Y-43489498D01*
X63714031Y-43493909D01*
X63768600Y-43499500D01*
X64519400Y-43499500D01*
X64522646Y-43499163D01*
X64522650Y-43499163D01*
X64618308Y-43489238D01*
X64618312Y-43489237D01*
X64625166Y-43488526D01*
X64631702Y-43486345D01*
X64631704Y-43486345D01*
X64763806Y-43442272D01*
X64792946Y-43432550D01*
X64943348Y-43339478D01*
X65068305Y-43214303D01*
X65072228Y-43207939D01*
X65157275Y-43069968D01*
X65157276Y-43069966D01*
X65161115Y-43063738D01*
X65199158Y-42949042D01*
X65214632Y-42902389D01*
X65214632Y-42902387D01*
X65216797Y-42895861D01*
X65227500Y-42791400D01*
X65227500Y-41790600D01*
X65227163Y-41787350D01*
X65217238Y-41691692D01*
X65217237Y-41691688D01*
X65216526Y-41684834D01*
X65160550Y-41517054D01*
X65067478Y-41366652D01*
X65062296Y-41361479D01*
X65057749Y-41355742D01*
X65059551Y-41354314D01*
X65030809Y-41301774D01*
X65035819Y-41230955D01*
X65059542Y-41193976D01*
X65058596Y-41193229D01*
X65063134Y-41187483D01*
X65068305Y-41182303D01*
X65087803Y-41150672D01*
X65157275Y-41037968D01*
X65157276Y-41037966D01*
X65161115Y-41031738D01*
X65193819Y-40933139D01*
X65214632Y-40870389D01*
X65214632Y-40870387D01*
X65216797Y-40863861D01*
X65218513Y-40847118D01*
X65227172Y-40762598D01*
X65227500Y-40759400D01*
X65227500Y-39758600D01*
X65225424Y-39738591D01*
X65217238Y-39659692D01*
X65217237Y-39659688D01*
X65216526Y-39652834D01*
X65206310Y-39622211D01*
X65162868Y-39492002D01*
X65160550Y-39485054D01*
X65067478Y-39334652D01*
X65025846Y-39293092D01*
X64947483Y-39214866D01*
X64942303Y-39209695D01*
X64902474Y-39185144D01*
X64797968Y-39120725D01*
X64797966Y-39120724D01*
X64791738Y-39116885D01*
X64704350Y-39087900D01*
X64630389Y-39063368D01*
X64630387Y-39063368D01*
X64623861Y-39061203D01*
X64617025Y-39060503D01*
X64617022Y-39060502D01*
X64571352Y-39055823D01*
X64519400Y-39050500D01*
X63718600Y-39050500D01*
X63715354Y-39050837D01*
X63715350Y-39050837D01*
X63619692Y-39060762D01*
X63619688Y-39060763D01*
X63612834Y-39061474D01*
X63606298Y-39063655D01*
X63606296Y-39063655D01*
X63474344Y-39107678D01*
X63445054Y-39117450D01*
X63294652Y-39210522D01*
X63225599Y-39279696D01*
X63208216Y-39297109D01*
X63145934Y-39331188D01*
X63075114Y-39326185D01*
X63030025Y-39297264D01*
X62947483Y-39214866D01*
X62942303Y-39209695D01*
X62902474Y-39185144D01*
X62797968Y-39120725D01*
X62797966Y-39120724D01*
X62791738Y-39116885D01*
X62704350Y-39087900D01*
X62630389Y-39063368D01*
X62630387Y-39063368D01*
X62623861Y-39061203D01*
X62617025Y-39060503D01*
X62617022Y-39060502D01*
X62571352Y-39055823D01*
X62519400Y-39050500D01*
X61718600Y-39050500D01*
X61715354Y-39050837D01*
X61715350Y-39050837D01*
X61619692Y-39060762D01*
X61619688Y-39060763D01*
X61612834Y-39061474D01*
X61606298Y-39063655D01*
X61606296Y-39063655D01*
X61474344Y-39107678D01*
X61445054Y-39117450D01*
X61294652Y-39210522D01*
X61289479Y-39215704D01*
X61272372Y-39232841D01*
X61210090Y-39266920D01*
X61139270Y-39261917D01*
X61110749Y-39246910D01*
X61090823Y-39232906D01*
X61085526Y-39228973D01*
X61041937Y-39194794D01*
X61041934Y-39194792D01*
X61035960Y-39190108D01*
X61029036Y-39186982D01*
X61026001Y-39185144D01*
X61013302Y-39177900D01*
X61010154Y-39176212D01*
X61003939Y-39171844D01*
X60945250Y-39148962D01*
X60939205Y-39146422D01*
X60881765Y-39120487D01*
X60874292Y-39119102D01*
X60870874Y-39118031D01*
X60856885Y-39114046D01*
X60853393Y-39113149D01*
X60846311Y-39110388D01*
X60838778Y-39109396D01*
X60838777Y-39109396D01*
X60783870Y-39102167D01*
X60777357Y-39101135D01*
X60715414Y-39089655D01*
X60715739Y-39087900D01*
X60657963Y-39066908D01*
X60625468Y-39031705D01*
X60589932Y-38974280D01*
X60586078Y-38968052D01*
X60460903Y-38843095D01*
X60377527Y-38791701D01*
X60316568Y-38754125D01*
X60316566Y-38754124D01*
X60310338Y-38750285D01*
X60149854Y-38697055D01*
X60148989Y-38696768D01*
X60148987Y-38696768D01*
X60142461Y-38694603D01*
X60135625Y-38693903D01*
X60135622Y-38693902D01*
X60092569Y-38689491D01*
X60038000Y-38683900D01*
X59037200Y-38683900D01*
X59033954Y-38684237D01*
X59033950Y-38684237D01*
X58938292Y-38694162D01*
X58938288Y-38694163D01*
X58931434Y-38694874D01*
X58924898Y-38697055D01*
X58924896Y-38697055D01*
X58792794Y-38741128D01*
X58763654Y-38750850D01*
X58613252Y-38843922D01*
X58488295Y-38969097D01*
X58484455Y-38975327D01*
X58484454Y-38975328D01*
X58400135Y-39112119D01*
X58395485Y-39119662D01*
X58386706Y-39146130D01*
X58342375Y-39279786D01*
X58339803Y-39287539D01*
X58339103Y-39294375D01*
X58339102Y-39294378D01*
X58338002Y-39305117D01*
X58329100Y-39392000D01*
X58329100Y-39658230D01*
X58309098Y-39726351D01*
X58255442Y-39772844D01*
X58185168Y-39782948D01*
X58120588Y-39753454D01*
X58114082Y-39747403D01*
X58078483Y-39711866D01*
X58073303Y-39706695D01*
X58067072Y-39702854D01*
X57928968Y-39617725D01*
X57928966Y-39617724D01*
X57922738Y-39613885D01*
X57830545Y-39583306D01*
X57761389Y-39560368D01*
X57761387Y-39560368D01*
X57754861Y-39558203D01*
X57748025Y-39557503D01*
X57748022Y-39557502D01*
X57704969Y-39553091D01*
X57650400Y-39547500D01*
X56649600Y-39547500D01*
X56646354Y-39547837D01*
X56646350Y-39547837D01*
X56550692Y-39557762D01*
X56550688Y-39557763D01*
X56543834Y-39558474D01*
X56537298Y-39560655D01*
X56537296Y-39560655D01*
X56463205Y-39585374D01*
X56376054Y-39614450D01*
X56225652Y-39707522D01*
X56100695Y-39832697D01*
X56099805Y-39831809D01*
X56047961Y-39868568D01*
X55977038Y-39871801D01*
X55915626Y-39836178D01*
X55914417Y-39834786D01*
X55912478Y-39831652D01*
X55787303Y-39706695D01*
X55781072Y-39702854D01*
X55642968Y-39617725D01*
X55642966Y-39617724D01*
X55636738Y-39613885D01*
X55544545Y-39583306D01*
X55475389Y-39560368D01*
X55475387Y-39560368D01*
X55468861Y-39558203D01*
X55462025Y-39557503D01*
X55462022Y-39557502D01*
X55418969Y-39553091D01*
X55364400Y-39547500D01*
X54363600Y-39547500D01*
X54360354Y-39547837D01*
X54360350Y-39547837D01*
X54264692Y-39557762D01*
X54264688Y-39557763D01*
X54257834Y-39558474D01*
X54251298Y-39560655D01*
X54251296Y-39560655D01*
X54177205Y-39585374D01*
X54090054Y-39614450D01*
X53939652Y-39707522D01*
X53862671Y-39784638D01*
X53849273Y-39798059D01*
X53786991Y-39832138D01*
X53716171Y-39827135D01*
X53659298Y-39784638D01*
X53634429Y-39718139D01*
X53634100Y-39709041D01*
X53634100Y-39392000D01*
X53633248Y-39383787D01*
X53623838Y-39293092D01*
X53623837Y-39293088D01*
X53623126Y-39286234D01*
X53617419Y-39269126D01*
X53569468Y-39125402D01*
X53567150Y-39118454D01*
X53474078Y-38968052D01*
X53348903Y-38843095D01*
X53265527Y-38791701D01*
X53204568Y-38754125D01*
X53204566Y-38754124D01*
X53198338Y-38750285D01*
X53037854Y-38697055D01*
X53036989Y-38696768D01*
X53036987Y-38696768D01*
X53030461Y-38694603D01*
X53023625Y-38693903D01*
X53023622Y-38693902D01*
X52980569Y-38689491D01*
X52926000Y-38683900D01*
X51925200Y-38683900D01*
X51921954Y-38684237D01*
X51921950Y-38684237D01*
X51826292Y-38694162D01*
X51826288Y-38694163D01*
X51819434Y-38694874D01*
X51812898Y-38697055D01*
X51812896Y-38697055D01*
X51680794Y-38741128D01*
X51651654Y-38750850D01*
X51501252Y-38843922D01*
X51376295Y-38969097D01*
X51372454Y-38975328D01*
X51372452Y-38975331D01*
X51337668Y-39031760D01*
X51284896Y-39079253D01*
X51252071Y-39089767D01*
X51193075Y-39100063D01*
X51186551Y-39101026D01*
X51131582Y-39107678D01*
X51131580Y-39107679D01*
X51124040Y-39108591D01*
X51116938Y-39111275D01*
X51113500Y-39112119D01*
X51099377Y-39115983D01*
X51095966Y-39117013D01*
X51088483Y-39118319D01*
X51081528Y-39121372D01*
X51030802Y-39143639D01*
X51024696Y-39146130D01*
X51023953Y-39146411D01*
X50965778Y-39168394D01*
X50959523Y-39172693D01*
X50956382Y-39174335D01*
X50943628Y-39181433D01*
X50940522Y-39183270D01*
X50933567Y-39186323D01*
X50927540Y-39190948D01*
X50927536Y-39190950D01*
X50883598Y-39224665D01*
X50878280Y-39228529D01*
X50826348Y-39264221D01*
X50826347Y-39264222D01*
X50825464Y-39262938D01*
X50769047Y-39289289D01*
X50698689Y-39279786D01*
X50661031Y-39253902D01*
X50639934Y-39232841D01*
X50591303Y-39184295D01*
X50580929Y-39177900D01*
X50557176Y-39163259D01*
X50471104Y-39110203D01*
X50421847Y-39053589D01*
X50416762Y-39042005D01*
X50414270Y-39035898D01*
X50412707Y-39031760D01*
X50400643Y-38999834D01*
X50394692Y-38984085D01*
X50394690Y-38984082D01*
X50392006Y-38976978D01*
X50387701Y-38970714D01*
X50386045Y-38967547D01*
X50378940Y-38954782D01*
X50377132Y-38951725D01*
X50374078Y-38944767D01*
X50356578Y-38921961D01*
X50335740Y-38894804D01*
X50331862Y-38889467D01*
X50300481Y-38843807D01*
X50300479Y-38843805D01*
X50296179Y-38837548D01*
X50250311Y-38796681D01*
X50245036Y-38791701D01*
X49892097Y-38438762D01*
X49886243Y-38432496D01*
X49848758Y-38389526D01*
X49797222Y-38353306D01*
X49791926Y-38349373D01*
X49748337Y-38315194D01*
X49748334Y-38315192D01*
X49742360Y-38310508D01*
X49735436Y-38307382D01*
X49732401Y-38305544D01*
X49719702Y-38298300D01*
X49716554Y-38296612D01*
X49710339Y-38292244D01*
X49651650Y-38269362D01*
X49645605Y-38266822D01*
X49588165Y-38240887D01*
X49580692Y-38239502D01*
X49577274Y-38238431D01*
X49563285Y-38234446D01*
X49559793Y-38233549D01*
X49552711Y-38230788D01*
X49545178Y-38229796D01*
X49545177Y-38229796D01*
X49490270Y-38222567D01*
X49483757Y-38221535D01*
X49429282Y-38211439D01*
X49429280Y-38211439D01*
X49421813Y-38210055D01*
X49414233Y-38210492D01*
X49414232Y-38210492D01*
X49360488Y-38213591D01*
X49353235Y-38213800D01*
X48704165Y-38213800D01*
X48636044Y-38193798D01*
X48615070Y-38176895D01*
X47586353Y-37148178D01*
X47552327Y-37085866D01*
X47557392Y-37015051D01*
X47586353Y-36969988D01*
X47744133Y-36812208D01*
X47757589Y-36795472D01*
X47778377Y-36769618D01*
X47778379Y-36769615D01*
X47783326Y-36763462D01*
X47843613Y-36630866D01*
X47864262Y-36486680D01*
X47843613Y-36342494D01*
X47783326Y-36209898D01*
X47778379Y-36203745D01*
X47778377Y-36203742D01*
X47746273Y-36163814D01*
X47744133Y-36161152D01*
X46261848Y-34678867D01*
X46245112Y-34665411D01*
X46219258Y-34644623D01*
X46219255Y-34644621D01*
X46213102Y-34639674D01*
X46080506Y-34579387D01*
X46040064Y-34573595D01*
X45975470Y-34544140D01*
X45937053Y-34484435D01*
X45937013Y-34413439D01*
X45975363Y-34353691D01*
X46001580Y-34336171D01*
X46575318Y-34049302D01*
X46631667Y-34036000D01*
X65128332Y-34036000D01*
X65184681Y-34049302D01*
G37*
%TD.AperFunction*%
%TA.AperFunction,Conductor*%
G36*
X44088396Y-47621002D02*
G01*
X44109370Y-47637905D01*
X45492095Y-49020630D01*
X45526121Y-49082942D01*
X45529000Y-49109725D01*
X45529000Y-49882401D01*
X45528708Y-49890971D01*
X45524830Y-49947852D01*
X45526135Y-49955328D01*
X45526135Y-49955332D01*
X45535663Y-50009924D01*
X45536626Y-50016449D01*
X45540903Y-50051787D01*
X45544191Y-50078960D01*
X45546875Y-50086062D01*
X45547719Y-50089500D01*
X45551583Y-50103623D01*
X45552613Y-50107034D01*
X45553919Y-50114517D01*
X45556972Y-50121472D01*
X45579239Y-50172198D01*
X45581720Y-50178277D01*
X45584055Y-50184457D01*
X45589428Y-50255247D01*
X45555674Y-50317707D01*
X45493511Y-50352003D01*
X45466192Y-50355000D01*
X43775725Y-50355000D01*
X43707604Y-50334998D01*
X43686630Y-50318095D01*
X42856482Y-49487947D01*
X42822456Y-49425635D01*
X42827521Y-49354820D01*
X42850353Y-49316339D01*
X42858329Y-49307135D01*
X42860000Y-49299452D01*
X42860000Y-49294884D01*
X43368000Y-49294884D01*
X43372475Y-49310123D01*
X43373865Y-49311328D01*
X43381548Y-49312999D01*
X43558669Y-49312999D01*
X43565490Y-49312629D01*
X43616352Y-49307105D01*
X43631604Y-49303479D01*
X43752054Y-49258324D01*
X43767649Y-49249786D01*
X43869724Y-49173285D01*
X43882285Y-49160724D01*
X43958786Y-49058649D01*
X43967324Y-49043054D01*
X44012478Y-48922606D01*
X44016105Y-48907351D01*
X44021631Y-48856486D01*
X44022000Y-48849672D01*
X44022000Y-48127115D01*
X44017525Y-48111876D01*
X44016135Y-48110671D01*
X44008452Y-48109000D01*
X43386115Y-48109000D01*
X43370876Y-48113475D01*
X43369671Y-48114865D01*
X43368000Y-48122548D01*
X43368000Y-49294884D01*
X42860000Y-49294884D01*
X42860000Y-47727000D01*
X42880002Y-47658879D01*
X42933658Y-47612386D01*
X42986000Y-47601000D01*
X44020275Y-47601000D01*
X44088396Y-47621002D01*
G37*
%TD.AperFunction*%
%TD*%
M02*
