%TF.GenerationSoftware,KiCad,Pcbnew,(6.0.0)*%
%TF.CreationDate,2022-05-29T15:36:19+02:00*%
%TF.ProjectId,LED_flasher,4c45445f-666c-4617-9368-65722e6b6963,rev?*%
%TF.SameCoordinates,Original*%
%TF.FileFunction,Legend,Bot*%
%TF.FilePolarity,Positive*%
%FSLAX46Y46*%
G04 Gerber Fmt 4.6, Leading zero omitted, Abs format (unit mm)*
G04 Created by KiCad (PCBNEW (6.0.0)) date 2022-05-29 15:36:19*
%MOMM*%
%LPD*%
G01*
G04 APERTURE LIST*
G04 Aperture macros list*
%AMRoundRect*
0 Rectangle with rounded corners*
0 $1 Rounding radius*
0 $2 $3 $4 $5 $6 $7 $8 $9 X,Y pos of 4 corners*
0 Add a 4 corners polygon primitive as box body*
4,1,4,$2,$3,$4,$5,$6,$7,$8,$9,$2,$3,0*
0 Add four circle primitives for the rounded corners*
1,1,$1+$1,$2,$3*
1,1,$1+$1,$4,$5*
1,1,$1+$1,$6,$7*
1,1,$1+$1,$8,$9*
0 Add four rect primitives between the rounded corners*
20,1,$1+$1,$2,$3,$4,$5,0*
20,1,$1+$1,$4,$5,$6,$7,0*
20,1,$1+$1,$6,$7,$8,$9,0*
20,1,$1+$1,$8,$9,$2,$3,0*%
%AMRotRect*
0 Rectangle, with rotation*
0 The origin of the aperture is its center*
0 $1 length*
0 $2 width*
0 $3 Rotation angle, in degrees counterclockwise*
0 Add horizontal line*
21,1,$1,$2,0,0,$3*%
G04 Aperture macros list end*
%ADD10C,0.150000*%
%ADD11C,0.120000*%
%ADD12C,0.010000*%
%ADD13RotRect,2.000000X2.000000X225.000000*%
%ADD14RoundRect,1.375000X1.375000X1.375000X-1.375000X1.375000X-1.375000X-1.375000X1.375000X-1.375000X0*%
%ADD15RoundRect,1.000000X1.000000X1.000000X-1.000000X1.000000X-1.000000X-1.000000X1.000000X-1.000000X0*%
G04 APERTURE END LIST*
D10*
X60499047Y-51014380D02*
X60499047Y-51728666D01*
X60546666Y-51871523D01*
X60641904Y-51966761D01*
X60784761Y-52014380D01*
X60880000Y-52014380D01*
X59546666Y-52014380D02*
X60022857Y-52014380D01*
X60022857Y-51014380D01*
X58641904Y-51919142D02*
X58689523Y-51966761D01*
X58832380Y-52014380D01*
X58927619Y-52014380D01*
X59070476Y-51966761D01*
X59165714Y-51871523D01*
X59213333Y-51776285D01*
X59260952Y-51585809D01*
X59260952Y-51442952D01*
X59213333Y-51252476D01*
X59165714Y-51157238D01*
X59070476Y-51062000D01*
X58927619Y-51014380D01*
X58832380Y-51014380D01*
X58689523Y-51062000D01*
X58641904Y-51109619D01*
X57927619Y-51014380D02*
X57927619Y-51728666D01*
X57975238Y-51871523D01*
X58070476Y-51966761D01*
X58213333Y-52014380D01*
X58308571Y-52014380D01*
X56975238Y-52014380D02*
X57451428Y-52014380D01*
X57451428Y-51014380D01*
X56070476Y-51919142D02*
X56118095Y-51966761D01*
X56260952Y-52014380D01*
X56356190Y-52014380D01*
X56499047Y-51966761D01*
X56594285Y-51871523D01*
X56641904Y-51776285D01*
X56689523Y-51585809D01*
X56689523Y-51442952D01*
X56641904Y-51252476D01*
X56594285Y-51157238D01*
X56499047Y-51062000D01*
X56356190Y-51014380D01*
X56260952Y-51014380D01*
X56118095Y-51062000D01*
X56070476Y-51109619D01*
X55356190Y-51014380D02*
X55356190Y-51728666D01*
X55403809Y-51871523D01*
X55499047Y-51966761D01*
X55641904Y-52014380D01*
X55737142Y-52014380D01*
X54403809Y-52014380D02*
X54880000Y-52014380D01*
X54880000Y-51014380D01*
X53499047Y-51919142D02*
X53546666Y-51966761D01*
X53689523Y-52014380D01*
X53784761Y-52014380D01*
X53927619Y-51966761D01*
X54022857Y-51871523D01*
X54070476Y-51776285D01*
X54118095Y-51585809D01*
X54118095Y-51442952D01*
X54070476Y-51252476D01*
X54022857Y-51157238D01*
X53927619Y-51062000D01*
X53784761Y-51014380D01*
X53689523Y-51014380D01*
X53546666Y-51062000D01*
X53499047Y-51109619D01*
X52784761Y-51014380D02*
X52784761Y-51728666D01*
X52832380Y-51871523D01*
X52927619Y-51966761D01*
X53070476Y-52014380D01*
X53165714Y-52014380D01*
X51832380Y-52014380D02*
X52308571Y-52014380D01*
X52308571Y-51014380D01*
X50927619Y-51919142D02*
X50975238Y-51966761D01*
X51118095Y-52014380D01*
X51213333Y-52014380D01*
X51356190Y-51966761D01*
X51451428Y-51871523D01*
X51499047Y-51776285D01*
X51546666Y-51585809D01*
X51546666Y-51442952D01*
X51499047Y-51252476D01*
X51451428Y-51157238D01*
X51356190Y-51062000D01*
X51213333Y-51014380D01*
X51118095Y-51014380D01*
X50975238Y-51062000D01*
X50927619Y-51109619D01*
D11*
%TO.C,BT1*%
X72136000Y-43180000D02*
X66294000Y-43180000D01*
X52070000Y-40790000D02*
X52070000Y-46990000D01*
X59690000Y-40790000D02*
X59690000Y-46990000D01*
X59570000Y-56642000D02*
X52070000Y-56642000D01*
X39624000Y-43180000D02*
X45466000Y-43180000D01*
X72136000Y-49276000D02*
X66294000Y-49276000D01*
X45466000Y-37719000D02*
X45466000Y-43688000D01*
X47244000Y-36830000D02*
X66294000Y-36830000D01*
X39624000Y-49276000D02*
X45466000Y-49276000D01*
X39624000Y-49276000D02*
X39624000Y-43180000D01*
X49022000Y-40790000D02*
X49022000Y-46990000D01*
X66294000Y-36830000D02*
X66294000Y-43688000D01*
X66294000Y-50038000D02*
X59570000Y-56642000D01*
X45466000Y-50038000D02*
X45466000Y-48768000D01*
X62738000Y-40790000D02*
X62738000Y-46990000D01*
X66294000Y-50038000D02*
X66294000Y-48768000D01*
X72136000Y-43180000D02*
X72136000Y-49276000D01*
X52070000Y-56642000D02*
X45466000Y-50038000D01*
X59690000Y-46990000D02*
G75*
G03*
X62738000Y-46990000I1524000J0D01*
G01*
X48768000Y-44450001D02*
G75*
G03*
X52293913Y-44492981I1731446J-2606469D01*
G01*
X49022000Y-46990000D02*
G75*
G03*
X52070000Y-46990000I1524000J0D01*
G01*
X59436000Y-44450001D02*
G75*
G03*
X62961913Y-44492981I1731446J-2606469D01*
G01*
D12*
%TO.C,S1*%
X53378769Y-40912795D02*
X53422742Y-40874109D01*
X53422742Y-40874109D02*
X53476784Y-40819286D01*
X53476784Y-40819286D02*
X53484895Y-40810503D01*
X53484895Y-40810503D02*
X53554233Y-40737086D01*
X53554233Y-40737086D02*
X53612804Y-40684391D01*
X53612804Y-40684391D02*
X53670157Y-40648590D01*
X53670157Y-40648590D02*
X53735839Y-40625853D01*
X53735839Y-40625853D02*
X53819398Y-40612354D01*
X53819398Y-40612354D02*
X53930381Y-40604264D01*
X53930381Y-40604264D02*
X54008247Y-40600662D01*
X54008247Y-40600662D02*
X54137283Y-40592512D01*
X54137283Y-40592512D02*
X54273118Y-40579490D01*
X54273118Y-40579490D02*
X54398955Y-40563443D01*
X54398955Y-40563443D02*
X54491881Y-40547506D01*
X54491881Y-40547506D02*
X54587418Y-40528631D01*
X54587418Y-40528631D02*
X54655788Y-40518942D01*
X54655788Y-40518942D02*
X54711077Y-40518120D01*
X54711077Y-40518120D02*
X54767370Y-40525848D01*
X54767370Y-40525848D02*
X54830547Y-40539852D01*
X54830547Y-40539852D02*
X54917009Y-40565311D01*
X54917009Y-40565311D02*
X55021756Y-40603278D01*
X55021756Y-40603278D02*
X55125562Y-40646642D01*
X55125562Y-40646642D02*
X55151050Y-40658408D01*
X55151050Y-40658408D02*
X55418717Y-40773191D01*
X55418717Y-40773191D02*
X55668746Y-40854682D01*
X55668746Y-40854682D02*
X55907622Y-40904379D01*
X55907622Y-40904379D02*
X56141832Y-40923775D01*
X56141832Y-40923775D02*
X56290006Y-40921106D01*
X56290006Y-40921106D02*
X56554775Y-40891028D01*
X56554775Y-40891028D02*
X56799787Y-40829739D01*
X56799787Y-40829739D02*
X57034884Y-40735217D01*
X57034884Y-40735217D02*
X57139705Y-40682077D01*
X57139705Y-40682077D02*
X57234517Y-40626206D01*
X57234517Y-40626206D02*
X57328172Y-40561271D01*
X57328172Y-40561271D02*
X57429524Y-40480937D01*
X57429524Y-40480937D02*
X57547426Y-40378869D01*
X57547426Y-40378869D02*
X57603979Y-40328023D01*
X57603979Y-40328023D02*
X57722825Y-40228983D01*
X57722825Y-40228983D02*
X57846714Y-40140632D01*
X57846714Y-40140632D02*
X57948153Y-40080453D01*
X57948153Y-40080453D02*
X58047274Y-40023465D01*
X58047274Y-40023465D02*
X58156704Y-39952211D01*
X58156704Y-39952211D02*
X58255194Y-39880644D01*
X58255194Y-39880644D02*
X58268921Y-39869773D01*
X58268921Y-39869773D02*
X58362528Y-39789303D01*
X58362528Y-39789303D02*
X58478535Y-39681300D01*
X58478535Y-39681300D02*
X58612256Y-39550766D01*
X58612256Y-39550766D02*
X58759006Y-39402704D01*
X58759006Y-39402704D02*
X58914099Y-39242114D01*
X58914099Y-39242114D02*
X59072851Y-39073999D01*
X59072851Y-39073999D02*
X59230575Y-38903362D01*
X59230575Y-38903362D02*
X59382586Y-38735203D01*
X59382586Y-38735203D02*
X59524199Y-38574524D01*
X59524199Y-38574524D02*
X59650729Y-38426328D01*
X59650729Y-38426328D02*
X59757489Y-38295617D01*
X59757489Y-38295617D02*
X59821868Y-38211931D01*
X59821868Y-38211931D02*
X59908759Y-38082611D01*
X59908759Y-38082611D02*
X59967227Y-37968582D01*
X59967227Y-37968582D02*
X59996301Y-37872942D01*
X59996301Y-37872942D02*
X59995010Y-37798786D01*
X59995010Y-37798786D02*
X59965959Y-37752025D01*
X59965959Y-37752025D02*
X59913929Y-37733367D01*
X59913929Y-37733367D02*
X59830189Y-37733425D01*
X59830189Y-37733425D02*
X59720254Y-37750756D01*
X59720254Y-37750756D02*
X59589640Y-37783919D01*
X59589640Y-37783919D02*
X59443862Y-37831471D01*
X59443862Y-37831471D02*
X59288437Y-37891970D01*
X59288437Y-37891970D02*
X59128878Y-37963975D01*
X59128878Y-37963975D02*
X59098634Y-37978796D01*
X59098634Y-37978796D02*
X58973131Y-38048721D01*
X58973131Y-38048721D02*
X59333572Y-38048721D01*
X59333572Y-38048721D02*
X59370709Y-38017825D01*
X59370709Y-38017825D02*
X59444890Y-37981383D01*
X59444890Y-37981383D02*
X59452278Y-37978327D01*
X59452278Y-37978327D02*
X59525344Y-37948349D01*
X59525344Y-37948349D02*
X59571418Y-37931444D01*
X59571418Y-37931444D02*
X59603125Y-37925762D01*
X59603125Y-37925762D02*
X59633088Y-37929451D01*
X59633088Y-37929451D02*
X59673930Y-37940662D01*
X59673930Y-37940662D02*
X59686009Y-37944059D01*
X59686009Y-37944059D02*
X59736616Y-37963465D01*
X59736616Y-37963465D02*
X59763866Y-37984335D01*
X59763866Y-37984335D02*
X59765384Y-37989260D01*
X59765384Y-37989260D02*
X59753350Y-38017375D01*
X59753350Y-38017375D02*
X59722134Y-38066708D01*
X59722134Y-38066708D02*
X59687621Y-38114386D01*
X59687621Y-38114386D02*
X59609859Y-38216355D01*
X59609859Y-38216355D02*
X59562425Y-38165173D01*
X59562425Y-38165173D02*
X59520953Y-38129063D01*
X59520953Y-38129063D02*
X59469410Y-38105869D01*
X59469410Y-38105869D02*
X59392993Y-38089369D01*
X59392993Y-38089369D02*
X59375554Y-38086645D01*
X59375554Y-38086645D02*
X59334760Y-38072264D01*
X59334760Y-38072264D02*
X59333572Y-38048721D01*
X59333572Y-38048721D02*
X58973131Y-38048721D01*
X58973131Y-38048721D02*
X58820219Y-38133916D01*
X58820219Y-38133916D02*
X58580437Y-38303516D01*
X58580437Y-38303516D02*
X58477764Y-38397515D01*
X58477764Y-38397515D02*
X58728217Y-38397515D01*
X58728217Y-38397515D02*
X58744630Y-38370607D01*
X58744630Y-38370607D02*
X58787306Y-38330959D01*
X58787306Y-38330959D02*
X58837009Y-38294139D01*
X58837009Y-38294139D02*
X58945802Y-38220874D01*
X58945802Y-38220874D02*
X59022218Y-38281558D01*
X59022218Y-38281558D02*
X59091858Y-38328937D01*
X59091858Y-38328937D02*
X59167788Y-38369620D01*
X59167788Y-38369620D02*
X59183300Y-38376295D01*
X59183300Y-38376295D02*
X59247494Y-38411334D01*
X59247494Y-38411334D02*
X59299926Y-38455259D01*
X59299926Y-38455259D02*
X59308228Y-38465356D01*
X59308228Y-38465356D02*
X59333621Y-38505211D01*
X59333621Y-38505211D02*
X59335686Y-38537039D01*
X59335686Y-38537039D02*
X59315194Y-38582176D01*
X59315194Y-38582176D02*
X59312629Y-38586953D01*
X59312629Y-38586953D02*
X59275487Y-38640767D01*
X59275487Y-38640767D02*
X59234729Y-38679761D01*
X59234729Y-38679761D02*
X59232937Y-38680915D01*
X59232937Y-38680915D02*
X59199022Y-38695461D01*
X59199022Y-38695461D02*
X59167881Y-38685282D01*
X59167881Y-38685282D02*
X59133286Y-38656117D01*
X59133286Y-38656117D02*
X59067068Y-38604484D01*
X59067068Y-38604484D02*
X58993713Y-38562573D01*
X58993713Y-38562573D02*
X58928503Y-38538482D01*
X58928503Y-38538482D02*
X58905891Y-38535613D01*
X58905891Y-38535613D02*
X58864026Y-38522589D01*
X58864026Y-38522589D02*
X58812093Y-38490623D01*
X58812093Y-38490623D02*
X58763808Y-38450375D01*
X58763808Y-38450375D02*
X58732885Y-38412505D01*
X58732885Y-38412505D02*
X58728217Y-38397515D01*
X58728217Y-38397515D02*
X58477764Y-38397515D01*
X58477764Y-38397515D02*
X58379853Y-38487153D01*
X58379853Y-38487153D02*
X58251967Y-38638518D01*
X58251967Y-38638518D02*
X58205139Y-38700401D01*
X58205139Y-38700401D02*
X58166108Y-38750405D01*
X58166108Y-38750405D02*
X58144724Y-38776101D01*
X58144724Y-38776101D02*
X58117578Y-38810265D01*
X58117578Y-38810265D02*
X58083855Y-38858749D01*
X58083855Y-38858749D02*
X58083648Y-38859065D01*
X58083648Y-38859065D02*
X58054955Y-38895843D01*
X58054955Y-38895843D02*
X58035671Y-38907977D01*
X58035671Y-38907977D02*
X58034417Y-38907202D01*
X58034417Y-38907202D02*
X58036463Y-38884437D01*
X58036463Y-38884437D02*
X58046760Y-38868665D01*
X58046760Y-38868665D02*
X58058895Y-38836039D01*
X58058895Y-38836039D02*
X58071665Y-38772542D01*
X58071665Y-38772542D02*
X58082974Y-38689547D01*
X58082974Y-38689547D02*
X58086818Y-38651230D01*
X58086818Y-38651230D02*
X58103800Y-38461600D01*
X58103800Y-38461600D02*
X58209634Y-38405135D01*
X58209634Y-38405135D02*
X58272617Y-38370005D01*
X58272617Y-38370005D02*
X58321864Y-38339804D01*
X58321864Y-38339804D02*
X58340278Y-38326429D01*
X58340278Y-38326429D02*
X58359503Y-38289800D01*
X58359503Y-38289800D02*
X58378935Y-38219126D01*
X58378935Y-38219126D02*
X58397595Y-38122677D01*
X58397595Y-38122677D02*
X58414505Y-38008724D01*
X58414505Y-38008724D02*
X58428687Y-37885538D01*
X58428687Y-37885538D02*
X58439163Y-37761390D01*
X58439163Y-37761390D02*
X58444954Y-37644550D01*
X58444954Y-37644550D02*
X58445083Y-37543290D01*
X58445083Y-37543290D02*
X58440478Y-37479277D01*
X58440478Y-37479277D02*
X58410603Y-37365639D01*
X58410603Y-37365639D02*
X58351285Y-37280384D01*
X58351285Y-37280384D02*
X58259702Y-37220529D01*
X58259702Y-37220529D02*
X58167001Y-37190242D01*
X58167001Y-37190242D02*
X58086443Y-37175943D01*
X58086443Y-37175943D02*
X57991962Y-37166197D01*
X57991962Y-37166197D02*
X57893438Y-37161120D01*
X57893438Y-37161120D02*
X57800747Y-37160827D01*
X57800747Y-37160827D02*
X57723768Y-37165435D01*
X57723768Y-37165435D02*
X57672379Y-37175059D01*
X57672379Y-37175059D02*
X57657256Y-37184254D01*
X57657256Y-37184254D02*
X57663224Y-37211845D01*
X57663224Y-37211845D02*
X57697158Y-37257552D01*
X57697158Y-37257552D02*
X57735697Y-37297133D01*
X57735697Y-37297133D02*
X57798508Y-37350792D01*
X57798508Y-37350792D02*
X57854453Y-37380660D01*
X57854453Y-37380660D02*
X57922914Y-37396156D01*
X57922914Y-37396156D02*
X57945365Y-37399017D01*
X57945365Y-37399017D02*
X58044385Y-37420950D01*
X58044385Y-37420950D02*
X58109029Y-37463122D01*
X58109029Y-37463122D02*
X58144091Y-37531122D01*
X58144091Y-37531122D02*
X58154365Y-37630540D01*
X58154365Y-37630540D02*
X58154213Y-37642501D01*
X58154213Y-37642501D02*
X58150825Y-37744641D01*
X58150825Y-37744641D02*
X58141272Y-37813945D01*
X58141272Y-37813945D02*
X58118880Y-37859909D01*
X58118880Y-37859909D02*
X58076979Y-37892029D01*
X58076979Y-37892029D02*
X58008894Y-37919800D01*
X58008894Y-37919800D02*
X57944474Y-37940968D01*
X57944474Y-37940968D02*
X57814396Y-37987571D01*
X57814396Y-37987571D02*
X57693994Y-38039680D01*
X57693994Y-38039680D02*
X57591140Y-38093209D01*
X57591140Y-38093209D02*
X57513707Y-38144071D01*
X57513707Y-38144071D02*
X57470264Y-38187100D01*
X57470264Y-38187100D02*
X57429134Y-38222354D01*
X57429134Y-38222354D02*
X57377273Y-38217732D01*
X57377273Y-38217732D02*
X57313598Y-38173061D01*
X57313598Y-38173061D02*
X57300032Y-38159989D01*
X57300032Y-38159989D02*
X57263429Y-38111391D01*
X57263429Y-38111391D02*
X57249175Y-38054905D01*
X57249175Y-38054905D02*
X57256572Y-37980457D01*
X57256572Y-37980457D02*
X57281291Y-37889373D01*
X57281291Y-37889373D02*
X57298778Y-37817010D01*
X57298778Y-37817010D02*
X57305323Y-37753085D01*
X57305323Y-37753085D02*
X57302956Y-37727064D01*
X57302956Y-37727064D02*
X57280831Y-37688049D01*
X57280831Y-37688049D02*
X57232509Y-37629119D01*
X57232509Y-37629119D02*
X57164838Y-37556823D01*
X57164838Y-37556823D02*
X57084662Y-37477710D01*
X57084662Y-37477710D02*
X56998827Y-37398329D01*
X56998827Y-37398329D02*
X56914181Y-37325228D01*
X56914181Y-37325228D02*
X56837569Y-37264956D01*
X56837569Y-37264956D02*
X56778991Y-37225848D01*
X56778991Y-37225848D02*
X56664467Y-37160177D01*
X56664467Y-37160177D02*
X56279424Y-37159978D01*
X56279424Y-37159978D02*
X56156045Y-37160894D01*
X56156045Y-37160894D02*
X56047769Y-37163560D01*
X56047769Y-37163560D02*
X55961508Y-37167654D01*
X55961508Y-37167654D02*
X55904176Y-37172855D01*
X55904176Y-37172855D02*
X55882838Y-37178458D01*
X55882838Y-37178458D02*
X55885888Y-37209866D01*
X55885888Y-37209866D02*
X55916616Y-37253536D01*
X55916616Y-37253536D02*
X55966221Y-37300252D01*
X55966221Y-37300252D02*
X56025904Y-37340796D01*
X56025904Y-37340796D02*
X56048970Y-37352474D01*
X56048970Y-37352474D02*
X56127605Y-37377785D01*
X56127605Y-37377785D02*
X56214421Y-37391418D01*
X56214421Y-37391418D02*
X56233612Y-37392148D01*
X56233612Y-37392148D02*
X56337473Y-37402363D01*
X56337473Y-37402363D02*
X56446989Y-37429426D01*
X56446989Y-37429426D02*
X56554236Y-37469360D01*
X56554236Y-37469360D02*
X56651289Y-37518188D01*
X56651289Y-37518188D02*
X56730225Y-37571932D01*
X56730225Y-37571932D02*
X56783118Y-37626615D01*
X56783118Y-37626615D02*
X56802050Y-37677444D01*
X56802050Y-37677444D02*
X56791614Y-37714777D01*
X56791614Y-37714777D02*
X56754657Y-37747739D01*
X56754657Y-37747739D02*
X56707294Y-37773374D01*
X56707294Y-37773374D02*
X56646400Y-37806312D01*
X56646400Y-37806312D02*
X56595646Y-37844015D01*
X56595646Y-37844015D02*
X56550615Y-37892750D01*
X56550615Y-37892750D02*
X56506894Y-37958784D01*
X56506894Y-37958784D02*
X56460066Y-38048384D01*
X56460066Y-38048384D02*
X56405718Y-38167816D01*
X56405718Y-38167816D02*
X56368669Y-38254027D01*
X56368669Y-38254027D02*
X56334062Y-38314754D01*
X56334062Y-38314754D02*
X56284273Y-38360624D01*
X56284273Y-38360624D02*
X56211885Y-38395622D01*
X56211885Y-38395622D02*
X56109480Y-38423735D01*
X56109480Y-38423735D02*
X56021766Y-38440467D01*
X56021766Y-38440467D02*
X55921629Y-38455160D01*
X55921629Y-38455160D02*
X55814505Y-38466929D01*
X55814505Y-38466929D02*
X55709082Y-38475307D01*
X55709082Y-38475307D02*
X55614049Y-38479825D01*
X55614049Y-38479825D02*
X55538096Y-38480016D01*
X55538096Y-38480016D02*
X55489913Y-38475410D01*
X55489913Y-38475410D02*
X55477700Y-38469794D01*
X55477700Y-38469794D02*
X55470590Y-38443144D01*
X55470590Y-38443144D02*
X55459010Y-38382952D01*
X55459010Y-38382952D02*
X55444446Y-38297586D01*
X55444446Y-38297586D02*
X55428384Y-38195415D01*
X55428384Y-38195415D02*
X55424991Y-38172813D01*
X55424991Y-38172813D02*
X55399081Y-38008286D01*
X55399081Y-38008286D02*
X55375145Y-37879318D01*
X55375145Y-37879318D02*
X55351431Y-37779301D01*
X55351431Y-37779301D02*
X55326189Y-37701625D01*
X55326189Y-37701625D02*
X55297667Y-37639679D01*
X55297667Y-37639679D02*
X55273189Y-37599742D01*
X55273189Y-37599742D02*
X55236193Y-37527588D01*
X55236193Y-37527588D02*
X55209411Y-37443661D01*
X55209411Y-37443661D02*
X55204964Y-37419826D01*
X55204964Y-37419826D02*
X55188591Y-37325166D01*
X55188591Y-37325166D02*
X55166643Y-37256676D01*
X55166643Y-37256676D02*
X55132625Y-37210160D01*
X55132625Y-37210160D02*
X55080043Y-37181421D01*
X55080043Y-37181421D02*
X55002401Y-37166263D01*
X55002401Y-37166263D02*
X54893203Y-37160489D01*
X54893203Y-37160489D02*
X54802480Y-37159779D01*
X54802480Y-37159779D02*
X54703091Y-37160331D01*
X54703091Y-37160331D02*
X54638572Y-37162913D01*
X54638572Y-37162913D02*
X54601463Y-37168912D01*
X54601463Y-37168912D02*
X54584305Y-37179719D01*
X54584305Y-37179719D02*
X54579641Y-37196722D01*
X54579641Y-37196722D02*
X54579550Y-37201288D01*
X54579550Y-37201288D02*
X54597738Y-37251222D01*
X54597738Y-37251222D02*
X54643441Y-37299826D01*
X54643441Y-37299826D02*
X54703374Y-37334496D01*
X54703374Y-37334496D02*
X54727296Y-37341432D01*
X54727296Y-37341432D02*
X54829546Y-37376625D01*
X54829546Y-37376625D02*
X54896782Y-37433135D01*
X54896782Y-37433135D02*
X54927528Y-37509010D01*
X54927528Y-37509010D02*
X54921277Y-37598535D01*
X54921277Y-37598535D02*
X54904072Y-37668841D01*
X54904072Y-37668841D02*
X54889002Y-37732875D01*
X54889002Y-37732875D02*
X54887956Y-37737487D01*
X54887956Y-37737487D02*
X54874617Y-37796611D01*
X54874617Y-37796611D02*
X54748187Y-37684570D01*
X54748187Y-37684570D02*
X54633082Y-37562826D01*
X54633082Y-37562826D02*
X54560548Y-37445529D01*
X54560548Y-37445529D02*
X54509197Y-37349710D01*
X54509197Y-37349710D02*
X54455889Y-37279289D01*
X54455889Y-37279289D02*
X54392786Y-37230000D01*
X54392786Y-37230000D02*
X54312046Y-37197581D01*
X54312046Y-37197581D02*
X54205829Y-37177766D01*
X54205829Y-37177766D02*
X54066295Y-37166292D01*
X54066295Y-37166292D02*
X54045092Y-37165180D01*
X54045092Y-37165180D02*
X53942967Y-37160879D01*
X53942967Y-37160879D02*
X53876111Y-37160608D01*
X53876111Y-37160608D02*
X53837595Y-37164979D01*
X53837595Y-37164979D02*
X53820493Y-37174604D01*
X53820493Y-37174604D02*
X53817550Y-37185251D01*
X53817550Y-37185251D02*
X53835542Y-37223709D01*
X53835542Y-37223709D02*
X53881393Y-37267665D01*
X53881393Y-37267665D02*
X53942915Y-37308892D01*
X53942915Y-37308892D02*
X54007921Y-37339163D01*
X54007921Y-37339163D02*
X54062008Y-37350279D01*
X54062008Y-37350279D02*
X54124265Y-37364600D01*
X54124265Y-37364600D02*
X54194580Y-37400293D01*
X54194580Y-37400293D02*
X54253619Y-37446451D01*
X54253619Y-37446451D02*
X54272031Y-37468748D01*
X54272031Y-37468748D02*
X54290957Y-37516461D01*
X54290957Y-37516461D02*
X54307300Y-37591096D01*
X54307300Y-37591096D02*
X54317356Y-37673299D01*
X54317356Y-37673299D02*
X54330421Y-37775583D01*
X54330421Y-37775583D02*
X54354633Y-37904685D01*
X54354633Y-37904685D02*
X54386881Y-38047565D01*
X54386881Y-38047565D02*
X54424053Y-38191180D01*
X54424053Y-38191180D02*
X54463035Y-38322490D01*
X54463035Y-38322490D02*
X54492683Y-38407947D01*
X54492683Y-38407947D02*
X54516106Y-38473086D01*
X54516106Y-38473086D02*
X54524086Y-38512627D01*
X54524086Y-38512627D02*
X54517194Y-38540157D01*
X54517194Y-38540157D02*
X54499304Y-38565211D01*
X54499304Y-38565211D02*
X54448345Y-38627951D01*
X54448345Y-38627951D02*
X54408083Y-38675959D01*
X54408083Y-38675959D02*
X54371394Y-38716207D01*
X54371394Y-38716207D02*
X54331155Y-38755665D01*
X54331155Y-38755665D02*
X54280241Y-38801307D01*
X54280241Y-38801307D02*
X54211530Y-38860104D01*
X54211530Y-38860104D02*
X54117896Y-38939028D01*
X54117896Y-38939028D02*
X54113884Y-38942407D01*
X54113884Y-38942407D02*
X53981327Y-39052317D01*
X53981327Y-39052317D02*
X53874697Y-39136323D01*
X53874697Y-39136323D02*
X53789070Y-39197506D01*
X53789070Y-39197506D02*
X53719523Y-39238949D01*
X53719523Y-39238949D02*
X53661130Y-39263736D01*
X53661130Y-39263736D02*
X53608967Y-39274948D01*
X53608967Y-39274948D02*
X53580293Y-39276446D01*
X53580293Y-39276446D02*
X53538474Y-39267498D01*
X53538474Y-39267498D02*
X53472344Y-39243868D01*
X53472344Y-39243868D02*
X53395162Y-39210380D01*
X53395162Y-39210380D02*
X53383821Y-39204983D01*
X53383821Y-39204983D02*
X53283523Y-39164879D01*
X53283523Y-39164879D02*
X53168501Y-39131881D01*
X53168501Y-39131881D02*
X53048766Y-39107478D01*
X53048766Y-39107478D02*
X52934332Y-39093160D01*
X52934332Y-39093160D02*
X52835212Y-39090417D01*
X52835212Y-39090417D02*
X52761418Y-39100738D01*
X52761418Y-39100738D02*
X52740491Y-39109268D01*
X52740491Y-39109268D02*
X52696183Y-39149986D01*
X52696183Y-39149986D02*
X52678964Y-39213611D01*
X52678964Y-39213611D02*
X52679355Y-39255227D01*
X52679355Y-39255227D02*
X52682925Y-39265137D01*
X52682925Y-39265137D02*
X52894093Y-39265137D01*
X52894093Y-39265137D02*
X52924104Y-39237912D01*
X52924104Y-39237912D02*
X52992936Y-39226467D01*
X52992936Y-39226467D02*
X53037178Y-39226122D01*
X53037178Y-39226122D02*
X53103076Y-39231941D01*
X53103076Y-39231941D02*
X53169024Y-39248927D01*
X53169024Y-39248927D02*
X53247253Y-39281160D01*
X53247253Y-39281160D02*
X53338427Y-39326664D01*
X53338427Y-39326664D02*
X53451666Y-39381614D01*
X53451666Y-39381614D02*
X53540840Y-39412803D01*
X53540840Y-39412803D02*
X53616187Y-39421281D01*
X53616187Y-39421281D02*
X53687945Y-39408094D01*
X53687945Y-39408094D02*
X53766350Y-39374291D01*
X53766350Y-39374291D02*
X53772528Y-39371088D01*
X53772528Y-39371088D02*
X53931623Y-39310475D01*
X53931623Y-39310475D02*
X54095211Y-39290459D01*
X54095211Y-39290459D02*
X54258169Y-39310410D01*
X54258169Y-39310410D02*
X54415374Y-39369697D01*
X54415374Y-39369697D02*
X54561702Y-39467691D01*
X54561702Y-39467691D02*
X54562300Y-39468196D01*
X54562300Y-39468196D02*
X54615497Y-39509459D01*
X54615497Y-39509459D02*
X54655201Y-39533577D01*
X54655201Y-39533577D02*
X54671429Y-39535874D01*
X54671429Y-39535874D02*
X54666720Y-39511352D01*
X54666720Y-39511352D02*
X54646120Y-39458069D01*
X54646120Y-39458069D02*
X54613255Y-39384832D01*
X54613255Y-39384832D02*
X54586369Y-39329363D01*
X54586369Y-39329363D02*
X54543088Y-39240838D01*
X54543088Y-39240838D02*
X54515917Y-39176798D01*
X54515917Y-39176798D02*
X54501644Y-39124059D01*
X54501644Y-39124059D02*
X54497055Y-39069440D01*
X54497055Y-39069440D02*
X54498937Y-38999759D01*
X54498937Y-38999759D02*
X54500184Y-38975800D01*
X54500184Y-38975800D02*
X54513005Y-38864148D01*
X54513005Y-38864148D02*
X54542147Y-38770583D01*
X54542147Y-38770583D02*
X54593828Y-38680858D01*
X54593828Y-38680858D02*
X54670947Y-38584502D01*
X54670947Y-38584502D02*
X54690563Y-38559864D01*
X54690563Y-38559864D02*
X54698537Y-38536135D01*
X54698537Y-38536135D02*
X54693670Y-38502846D01*
X54693670Y-38502846D02*
X54674760Y-38449525D01*
X54674760Y-38449525D02*
X54647896Y-38383419D01*
X54647896Y-38383419D02*
X54611290Y-38289369D01*
X54611290Y-38289369D02*
X54576630Y-38191821D01*
X54576630Y-38191821D02*
X54551537Y-38112279D01*
X54551537Y-38112279D02*
X54531017Y-38032439D01*
X54531017Y-38032439D02*
X54510296Y-37940469D01*
X54510296Y-37940469D02*
X54491130Y-37845856D01*
X54491130Y-37845856D02*
X54475274Y-37758086D01*
X54475274Y-37758086D02*
X54464483Y-37686646D01*
X54464483Y-37686646D02*
X54460514Y-37641022D01*
X54460514Y-37641022D02*
X54462266Y-37629841D01*
X54462266Y-37629841D02*
X54482036Y-37638240D01*
X54482036Y-37638240D02*
X54527392Y-37670454D01*
X54527392Y-37670454D02*
X54592665Y-37721743D01*
X54592665Y-37721743D02*
X54672189Y-37787366D01*
X54672189Y-37787366D02*
X54760296Y-37862584D01*
X54760296Y-37862584D02*
X54851320Y-37942655D01*
X54851320Y-37942655D02*
X54939593Y-38022840D01*
X54939593Y-38022840D02*
X54999902Y-38079549D01*
X54999902Y-38079549D02*
X55160052Y-38249519D01*
X55160052Y-38249519D02*
X55286699Y-38423822D01*
X55286699Y-38423822D02*
X55386196Y-38613272D01*
X55386196Y-38613272D02*
X55464895Y-38828685D01*
X55464895Y-38828685D02*
X55488462Y-38911321D01*
X55488462Y-38911321D02*
X55510179Y-38976994D01*
X55510179Y-38976994D02*
X55528264Y-39001941D01*
X55528264Y-39001941D02*
X55541733Y-38987687D01*
X55541733Y-38987687D02*
X55549602Y-38935758D01*
X55549602Y-38935758D02*
X55550889Y-38847678D01*
X55550889Y-38847678D02*
X55549909Y-38816071D01*
X55549909Y-38816071D02*
X55542634Y-38630863D01*
X55542634Y-38630863D02*
X55606134Y-38633929D01*
X55606134Y-38633929D02*
X55682689Y-38632876D01*
X55682689Y-38632876D02*
X55783681Y-38625136D01*
X55783681Y-38625136D02*
X55895072Y-38612475D01*
X55895072Y-38612475D02*
X56002829Y-38596659D01*
X56002829Y-38596659D02*
X56092914Y-38579458D01*
X56092914Y-38579458D02*
X56140664Y-38566632D01*
X56140664Y-38566632D02*
X56199012Y-38547944D01*
X56199012Y-38547944D02*
X56239892Y-38536894D01*
X56239892Y-38536894D02*
X56248280Y-38535613D01*
X56248280Y-38535613D02*
X56254597Y-38554596D01*
X56254597Y-38554596D02*
X56254346Y-38603805D01*
X56254346Y-38603805D02*
X56249327Y-38657321D01*
X56249327Y-38657321D02*
X56232316Y-38851932D01*
X56232316Y-38851932D02*
X56234617Y-39011262D01*
X56234617Y-39011262D02*
X56256371Y-39137778D01*
X56256371Y-39137778D02*
X56281064Y-39203693D01*
X56281064Y-39203693D02*
X56320111Y-39273395D01*
X56320111Y-39273395D02*
X56362196Y-39331443D01*
X56362196Y-39331443D02*
X56400410Y-39369871D01*
X56400410Y-39369871D02*
X56427843Y-39380711D01*
X56427843Y-39380711D02*
X56432301Y-39378084D01*
X56432301Y-39378084D02*
X56429606Y-39354815D01*
X56429606Y-39354815D02*
X56411063Y-39306457D01*
X56411063Y-39306457D02*
X56390704Y-39263561D01*
X56390704Y-39263561D02*
X56355772Y-39177070D01*
X56355772Y-39177070D02*
X56338302Y-39081967D01*
X56338302Y-39081967D02*
X56334300Y-39011863D01*
X56334300Y-39011863D02*
X56333982Y-38877671D01*
X56333982Y-38877671D02*
X56342440Y-38762628D01*
X56342440Y-38762628D02*
X56362399Y-38655313D01*
X56362399Y-38655313D02*
X56396582Y-38544306D01*
X56396582Y-38544306D02*
X56447715Y-38418187D01*
X56447715Y-38418187D02*
X56506148Y-38291393D01*
X56506148Y-38291393D02*
X56584013Y-38136597D01*
X56584013Y-38136597D02*
X56652218Y-38020292D01*
X56652218Y-38020292D02*
X56712480Y-37940189D01*
X56712480Y-37940189D02*
X56766513Y-37894005D01*
X56766513Y-37894005D02*
X56815220Y-37879446D01*
X56815220Y-37879446D02*
X56863483Y-37860899D01*
X56863483Y-37860899D02*
X56908935Y-37814334D01*
X56908935Y-37814334D02*
X56941096Y-37753368D01*
X56941096Y-37753368D02*
X56950217Y-37704019D01*
X56950217Y-37704019D02*
X56953801Y-37651668D01*
X56953801Y-37651668D02*
X56962527Y-37620377D01*
X56962527Y-37620377D02*
X56963484Y-37619235D01*
X56963484Y-37619235D02*
X56991123Y-37618120D01*
X56991123Y-37618120D02*
X57037275Y-37638103D01*
X57037275Y-37638103D02*
X57088838Y-37672127D01*
X57088838Y-37672127D02*
X57128225Y-37708004D01*
X57128225Y-37708004D02*
X57149682Y-37734584D01*
X57149682Y-37734584D02*
X57157878Y-37760681D01*
X57157878Y-37760681D02*
X57152985Y-37799128D01*
X57152985Y-37799128D02*
X57135174Y-37862756D01*
X57135174Y-37862756D02*
X57130495Y-37878254D01*
X57130495Y-37878254D02*
X57104881Y-38002521D01*
X57104881Y-38002521D02*
X57111845Y-38106422D01*
X57111845Y-38106422D02*
X57152546Y-38197963D01*
X57152546Y-38197963D02*
X57182513Y-38237652D01*
X57182513Y-38237652D02*
X57291911Y-38368178D01*
X57291911Y-38368178D02*
X57376268Y-38473848D01*
X57376268Y-38473848D02*
X57439751Y-38560447D01*
X57439751Y-38560447D02*
X57486523Y-38633766D01*
X57486523Y-38633766D02*
X57520751Y-38699591D01*
X57520751Y-38699591D02*
X57529885Y-38720376D01*
X57529885Y-38720376D02*
X57565464Y-38800669D01*
X57565464Y-38800669D02*
X57601975Y-38876456D01*
X57601975Y-38876456D02*
X57624767Y-38919271D01*
X57624767Y-38919271D02*
X57629453Y-38929198D01*
X57629453Y-38929198D02*
X58259126Y-38929198D01*
X58259126Y-38929198D02*
X58260697Y-38861111D01*
X58260697Y-38861111D02*
X58271703Y-38834712D01*
X58271703Y-38834712D02*
X58301390Y-38786885D01*
X58301390Y-38786885D02*
X58341964Y-38732588D01*
X58341964Y-38732588D02*
X58384078Y-38683038D01*
X58384078Y-38683038D02*
X58418384Y-38649452D01*
X58418384Y-38649452D02*
X58432780Y-38641446D01*
X58432780Y-38641446D02*
X58453838Y-38655820D01*
X58453838Y-38655820D02*
X58488356Y-38690884D01*
X58488356Y-38690884D02*
X58492386Y-38695466D01*
X58492386Y-38695466D02*
X58539730Y-38735117D01*
X58539730Y-38735117D02*
X58608093Y-38776219D01*
X58608093Y-38776219D02*
X58681409Y-38810610D01*
X58681409Y-38810610D02*
X58743611Y-38830128D01*
X58743611Y-38830128D02*
X58761016Y-38831946D01*
X58761016Y-38831946D02*
X58790870Y-38846003D01*
X58790870Y-38846003D02*
X58835632Y-38880727D01*
X58835632Y-38880727D02*
X58883338Y-38924947D01*
X58883338Y-38924947D02*
X58922024Y-38967493D01*
X58922024Y-38967493D02*
X58939728Y-38997193D01*
X58939728Y-38997193D02*
X58939884Y-38998961D01*
X58939884Y-38998961D02*
X58925791Y-39021670D01*
X58925791Y-39021670D02*
X58889737Y-39063398D01*
X58889737Y-39063398D02*
X58841053Y-39114721D01*
X58841053Y-39114721D02*
X58789075Y-39166215D01*
X58789075Y-39166215D02*
X58743133Y-39208455D01*
X58743133Y-39208455D02*
X58712563Y-39232016D01*
X58712563Y-39232016D02*
X58707005Y-39234113D01*
X58707005Y-39234113D02*
X58683359Y-39221928D01*
X58683359Y-39221928D02*
X58638322Y-39190504D01*
X58638322Y-39190504D02*
X58598904Y-39160235D01*
X58598904Y-39160235D02*
X58544492Y-39119558D01*
X58544492Y-39119558D02*
X58502274Y-39092637D01*
X58502274Y-39092637D02*
X58486191Y-39086152D01*
X58486191Y-39086152D02*
X58456571Y-39077435D01*
X58456571Y-39077435D02*
X58404674Y-39055655D01*
X58404674Y-39055655D02*
X58378322Y-39043300D01*
X58378322Y-39043300D02*
X58298583Y-38990416D01*
X58298583Y-38990416D02*
X58259126Y-38929198D01*
X58259126Y-38929198D02*
X57629453Y-38929198D01*
X57629453Y-38929198D02*
X57661946Y-38998018D01*
X57661946Y-38998018D02*
X57701754Y-39105726D01*
X57701754Y-39105726D02*
X57740447Y-39229502D01*
X57740447Y-39229502D02*
X57774282Y-39356455D01*
X57774282Y-39356455D02*
X57799517Y-39473693D01*
X57799517Y-39473693D02*
X57809553Y-39546018D01*
X57809553Y-39546018D02*
X57881550Y-39546018D01*
X57881550Y-39546018D02*
X57890393Y-39515704D01*
X57890393Y-39515704D02*
X57913325Y-39461833D01*
X57913325Y-39461833D02*
X57944953Y-39395104D01*
X57944953Y-39395104D02*
X57979883Y-39326220D01*
X57979883Y-39326220D02*
X58012721Y-39265878D01*
X58012721Y-39265878D02*
X58038073Y-39224781D01*
X58038073Y-39224781D02*
X58049445Y-39212946D01*
X58049445Y-39212946D02*
X58072094Y-39226867D01*
X58072094Y-39226867D02*
X58110358Y-39261519D01*
X58110358Y-39261519D02*
X58122554Y-39273928D01*
X58122554Y-39273928D02*
X58188722Y-39322756D01*
X58188722Y-39322756D02*
X58256818Y-39347217D01*
X58256818Y-39347217D02*
X58315465Y-39367610D01*
X58315465Y-39367610D02*
X58375896Y-39404860D01*
X58375896Y-39404860D02*
X58425494Y-39449139D01*
X58425494Y-39449139D02*
X58451646Y-39490619D01*
X58451646Y-39490619D02*
X58453050Y-39500085D01*
X58453050Y-39500085D02*
X58437957Y-39525392D01*
X58437957Y-39525392D02*
X58398227Y-39568337D01*
X58398227Y-39568337D02*
X58342186Y-39619996D01*
X58342186Y-39619996D02*
X58337275Y-39624213D01*
X58337275Y-39624213D02*
X58273758Y-39675982D01*
X58273758Y-39675982D02*
X58231374Y-39702486D01*
X58231374Y-39702486D02*
X58201068Y-39708137D01*
X58201068Y-39708137D02*
X58179917Y-39700868D01*
X58179917Y-39700868D02*
X58127654Y-39684267D01*
X58127654Y-39684267D02*
X58075066Y-39678613D01*
X58075066Y-39678613D02*
X58023578Y-39666466D01*
X58023578Y-39666466D02*
X57965575Y-39636267D01*
X57965575Y-39636267D02*
X57914720Y-39597378D01*
X57914720Y-39597378D02*
X57884678Y-39559164D01*
X57884678Y-39559164D02*
X57881550Y-39546018D01*
X57881550Y-39546018D02*
X57809553Y-39546018D01*
X57809553Y-39546018D02*
X57812142Y-39564669D01*
X57812142Y-39564669D02*
X57816415Y-39652570D01*
X57816415Y-39652570D02*
X57810954Y-39717834D01*
X57810954Y-39717834D02*
X57792721Y-39779627D01*
X57792721Y-39779627D02*
X57769453Y-39833875D01*
X57769453Y-39833875D02*
X57653821Y-40037078D01*
X57653821Y-40037078D02*
X57502394Y-40224013D01*
X57502394Y-40224013D02*
X57319784Y-40391044D01*
X57319784Y-40391044D02*
X57110601Y-40534533D01*
X57110601Y-40534533D02*
X56879457Y-40650846D01*
X56879457Y-40650846D02*
X56630961Y-40736346D01*
X56630961Y-40736346D02*
X56622134Y-40738702D01*
X56622134Y-40738702D02*
X56452392Y-40770935D01*
X56452392Y-40770935D02*
X56262484Y-40786007D01*
X56262484Y-40786007D02*
X56068350Y-40783872D01*
X56068350Y-40783872D02*
X55885930Y-40764485D01*
X55885930Y-40764485D02*
X55775467Y-40741091D01*
X55775467Y-40741091D02*
X55640608Y-40702243D01*
X55640608Y-40702243D02*
X55518214Y-40660518D01*
X55518214Y-40660518D02*
X55392691Y-40610051D01*
X55392691Y-40610051D02*
X55248446Y-40544973D01*
X55248446Y-40544973D02*
X55225134Y-40534015D01*
X55225134Y-40534015D02*
X55118030Y-40488522D01*
X55118030Y-40488522D02*
X54995900Y-40444172D01*
X54995900Y-40444172D02*
X54884070Y-40410120D01*
X54884070Y-40410120D02*
X54877724Y-40408471D01*
X54877724Y-40408471D02*
X54792026Y-40387199D01*
X54792026Y-40387199D02*
X54729883Y-40375804D01*
X54729883Y-40375804D02*
X54675689Y-40373988D01*
X54675689Y-40373988D02*
X54613841Y-40381453D01*
X54613841Y-40381453D02*
X54528733Y-40397901D01*
X54528733Y-40397901D02*
X54511345Y-40401463D01*
X54511345Y-40401463D02*
X54381378Y-40424977D01*
X54381378Y-40424977D02*
X54242698Y-40444751D01*
X54242698Y-40444751D02*
X54105767Y-40459775D01*
X54105767Y-40459775D02*
X53981048Y-40469041D01*
X53981048Y-40469041D02*
X53879004Y-40471539D01*
X53879004Y-40471539D02*
X53821016Y-40468027D01*
X53821016Y-40468027D02*
X53736468Y-40456686D01*
X53736468Y-40456686D02*
X53748220Y-40342816D01*
X53748220Y-40342816D02*
X53751166Y-40268613D01*
X53751166Y-40268613D02*
X53742026Y-40233434D01*
X53742026Y-40233434D02*
X53722760Y-40238150D01*
X53722760Y-40238150D02*
X53695328Y-40283631D01*
X53695328Y-40283631D02*
X53682436Y-40313613D01*
X53682436Y-40313613D02*
X53656692Y-40370292D01*
X53656692Y-40370292D02*
X53638877Y-40395676D01*
X53638877Y-40395676D02*
X53632274Y-40387336D01*
X53632274Y-40387336D02*
X53639525Y-40345363D01*
X53639525Y-40345363D02*
X53642395Y-40303762D01*
X53642395Y-40303762D02*
X53624053Y-40292765D01*
X53624053Y-40292765D02*
X53580579Y-40300018D01*
X53580579Y-40300018D02*
X53525516Y-40317289D01*
X53525516Y-40317289D02*
X53473053Y-40338940D01*
X53473053Y-40338940D02*
X53437380Y-40359336D01*
X53437380Y-40359336D02*
X53430000Y-40369853D01*
X53430000Y-40369853D02*
X53435075Y-40399968D01*
X53435075Y-40399968D02*
X53442639Y-40451196D01*
X53442639Y-40451196D02*
X53605884Y-40451196D01*
X53605884Y-40451196D02*
X53616467Y-40440613D01*
X53616467Y-40440613D02*
X53627050Y-40451196D01*
X53627050Y-40451196D02*
X53616467Y-40461779D01*
X53616467Y-40461779D02*
X53605884Y-40451196D01*
X53605884Y-40451196D02*
X53442639Y-40451196D01*
X53442639Y-40451196D02*
X53443348Y-40455994D01*
X53443348Y-40455994D02*
X53447861Y-40488238D01*
X53447861Y-40488238D02*
X53463839Y-40557536D01*
X53463839Y-40557536D02*
X53488280Y-40585716D01*
X53488280Y-40585716D02*
X53523118Y-40573487D01*
X53523118Y-40573487D02*
X53563355Y-40530571D01*
X53563355Y-40530571D02*
X53589474Y-40499933D01*
X53589474Y-40499933D02*
X53595329Y-40498935D01*
X53595329Y-40498935D02*
X53583749Y-40521737D01*
X53583749Y-40521737D02*
X53557560Y-40562498D01*
X53557560Y-40562498D02*
X53527298Y-40605051D01*
X53527298Y-40605051D02*
X53484456Y-40651321D01*
X53484456Y-40651321D02*
X53454582Y-40657885D01*
X53454582Y-40657885D02*
X53438807Y-40624921D01*
X53438807Y-40624921D02*
X53436550Y-40590944D01*
X53436550Y-40590944D02*
X53428970Y-40534088D01*
X53428970Y-40534088D02*
X53409024Y-40451410D01*
X53409024Y-40451410D02*
X53380899Y-40356050D01*
X53380899Y-40356050D02*
X53348785Y-40261150D01*
X53348785Y-40261150D02*
X53316871Y-40179849D01*
X53316871Y-40179849D02*
X53289345Y-40125287D01*
X53289345Y-40125287D02*
X53287005Y-40121822D01*
X53287005Y-40121822D02*
X53253157Y-40062889D01*
X53253157Y-40062889D02*
X53233929Y-40007954D01*
X53233929Y-40007954D02*
X53231881Y-39967964D01*
X53231881Y-39967964D02*
X53247683Y-39953780D01*
X53247683Y-39953780D02*
X53281080Y-39940282D01*
X53281080Y-39940282D02*
X53324064Y-39907653D01*
X53324064Y-39907653D02*
X53325670Y-39906154D01*
X53325670Y-39906154D02*
X53369279Y-39873772D01*
X53369279Y-39873772D02*
X53437697Y-39832245D01*
X53437697Y-39832245D02*
X53517148Y-39789856D01*
X53517148Y-39789856D02*
X53528117Y-39784446D01*
X53528117Y-39784446D02*
X53609594Y-39740319D01*
X53609594Y-39740319D02*
X53664855Y-39701216D01*
X53664855Y-39701216D02*
X53686977Y-39672458D01*
X53686977Y-39672458D02*
X53675569Y-39634624D01*
X53675569Y-39634624D02*
X53636956Y-39584324D01*
X53636956Y-39584324D02*
X53580419Y-39530556D01*
X53580419Y-39530556D02*
X53515241Y-39482321D01*
X53515241Y-39482321D02*
X53460002Y-39452402D01*
X53460002Y-39452402D02*
X53391181Y-39433338D01*
X53391181Y-39433338D02*
X53323307Y-39440323D01*
X53323307Y-39440323D02*
X53246105Y-39475819D01*
X53246105Y-39475819D02*
X53180347Y-39519425D01*
X53180347Y-39519425D02*
X53082532Y-39589698D01*
X53082532Y-39589698D02*
X53049393Y-39520205D01*
X53049393Y-39520205D02*
X53014228Y-39460589D01*
X53014228Y-39460589D02*
X52965569Y-39393993D01*
X52965569Y-39393993D02*
X52947302Y-39372180D01*
X52947302Y-39372180D02*
X52902096Y-39309455D01*
X52902096Y-39309455D02*
X52894093Y-39265137D01*
X52894093Y-39265137D02*
X52682925Y-39265137D01*
X52682925Y-39265137D02*
X52692647Y-39292115D01*
X52692647Y-39292115D02*
X52725047Y-39334783D01*
X52725047Y-39334783D02*
X52782763Y-39393740D01*
X52782763Y-39393740D02*
X52788887Y-39399696D01*
X52788887Y-39399696D02*
X52844600Y-39456492D01*
X52844600Y-39456492D02*
X52884365Y-39506982D01*
X52884365Y-39506982D02*
X52915353Y-39563702D01*
X52915353Y-39563702D02*
X52944737Y-39639187D01*
X52944737Y-39639187D02*
X52970528Y-39717196D01*
X52970528Y-39717196D02*
X53009983Y-39830275D01*
X53009983Y-39830275D02*
X53057708Y-39952221D01*
X53057708Y-39952221D02*
X53105227Y-40061724D01*
X53105227Y-40061724D02*
X53119353Y-40091363D01*
X53119353Y-40091363D02*
X53190747Y-40244916D01*
X53190747Y-40244916D02*
X53240424Y-40373652D01*
X53240424Y-40373652D02*
X53271230Y-40487231D01*
X53271230Y-40487231D02*
X53286015Y-40595312D01*
X53286015Y-40595312D02*
X53288384Y-40664799D01*
X53288384Y-40664799D02*
X53293412Y-40779314D01*
X53293412Y-40779314D02*
X53307786Y-40863976D01*
X53307786Y-40863976D02*
X53330438Y-40914496D01*
X53330438Y-40914496D02*
X53353727Y-40927446D01*
X53353727Y-40927446D02*
X53378769Y-40912795D01*
X53378769Y-40912795D02*
X53378769Y-40912795D01*
G36*
X52678964Y-39213611D02*
G01*
X52696183Y-39149986D01*
X52740491Y-39109268D01*
X52761418Y-39100738D01*
X52835212Y-39090417D01*
X52934332Y-39093160D01*
X53048766Y-39107478D01*
X53168501Y-39131881D01*
X53283523Y-39164879D01*
X53383821Y-39204983D01*
X53395162Y-39210380D01*
X53472344Y-39243868D01*
X53538474Y-39267498D01*
X53580293Y-39276446D01*
X53608967Y-39274948D01*
X53661130Y-39263736D01*
X53719523Y-39238949D01*
X53789070Y-39197506D01*
X53874697Y-39136323D01*
X53981327Y-39052317D01*
X54113884Y-38942407D01*
X54117896Y-38939028D01*
X54211530Y-38860104D01*
X54280241Y-38801307D01*
X54331155Y-38755665D01*
X54371394Y-38716207D01*
X54408083Y-38675959D01*
X54448345Y-38627951D01*
X54499304Y-38565211D01*
X54517194Y-38540157D01*
X54524086Y-38512627D01*
X54516106Y-38473086D01*
X54492683Y-38407947D01*
X54463035Y-38322490D01*
X54424053Y-38191180D01*
X54386881Y-38047565D01*
X54354633Y-37904685D01*
X54330421Y-37775583D01*
X54317356Y-37673299D01*
X54307300Y-37591096D01*
X54290957Y-37516461D01*
X54272031Y-37468748D01*
X54253619Y-37446451D01*
X54194580Y-37400293D01*
X54124265Y-37364600D01*
X54062008Y-37350279D01*
X54007921Y-37339163D01*
X53942915Y-37308892D01*
X53881393Y-37267665D01*
X53835542Y-37223709D01*
X53817550Y-37185251D01*
X53820493Y-37174604D01*
X53837595Y-37164979D01*
X53876111Y-37160608D01*
X53942967Y-37160879D01*
X54045092Y-37165180D01*
X54066295Y-37166292D01*
X54205829Y-37177766D01*
X54312046Y-37197581D01*
X54392786Y-37230000D01*
X54455889Y-37279289D01*
X54509197Y-37349710D01*
X54560548Y-37445529D01*
X54633082Y-37562826D01*
X54748187Y-37684570D01*
X54874617Y-37796611D01*
X54887956Y-37737487D01*
X54889002Y-37732875D01*
X54904072Y-37668841D01*
X54921277Y-37598535D01*
X54927528Y-37509010D01*
X54896782Y-37433135D01*
X54829546Y-37376625D01*
X54727296Y-37341432D01*
X54703374Y-37334496D01*
X54643441Y-37299826D01*
X54597738Y-37251222D01*
X54579550Y-37201288D01*
X54579641Y-37196722D01*
X54584305Y-37179719D01*
X54601463Y-37168912D01*
X54638572Y-37162913D01*
X54703091Y-37160331D01*
X54802480Y-37159779D01*
X54893203Y-37160489D01*
X55002401Y-37166263D01*
X55080043Y-37181421D01*
X55132625Y-37210160D01*
X55166643Y-37256676D01*
X55188591Y-37325166D01*
X55204964Y-37419826D01*
X55209411Y-37443661D01*
X55236193Y-37527588D01*
X55273189Y-37599742D01*
X55297667Y-37639679D01*
X55326189Y-37701625D01*
X55351431Y-37779301D01*
X55375145Y-37879318D01*
X55399081Y-38008286D01*
X55424991Y-38172813D01*
X55428384Y-38195415D01*
X55444446Y-38297586D01*
X55459010Y-38382952D01*
X55470590Y-38443144D01*
X55477700Y-38469794D01*
X55489913Y-38475410D01*
X55538096Y-38480016D01*
X55614049Y-38479825D01*
X55709082Y-38475307D01*
X55814505Y-38466929D01*
X55921629Y-38455160D01*
X56021766Y-38440467D01*
X56109480Y-38423735D01*
X56211885Y-38395622D01*
X56284273Y-38360624D01*
X56334062Y-38314754D01*
X56368669Y-38254027D01*
X56405718Y-38167816D01*
X56460066Y-38048384D01*
X56506894Y-37958784D01*
X56550615Y-37892750D01*
X56595646Y-37844015D01*
X56646400Y-37806312D01*
X56707294Y-37773374D01*
X56754657Y-37747739D01*
X56791614Y-37714777D01*
X56802050Y-37677444D01*
X56783118Y-37626615D01*
X56730225Y-37571932D01*
X56651289Y-37518188D01*
X56554236Y-37469360D01*
X56446989Y-37429426D01*
X56337473Y-37402363D01*
X56233612Y-37392148D01*
X56214421Y-37391418D01*
X56127605Y-37377785D01*
X56048970Y-37352474D01*
X56025904Y-37340796D01*
X55966221Y-37300252D01*
X55916616Y-37253536D01*
X55885888Y-37209866D01*
X55882838Y-37178458D01*
X55904176Y-37172855D01*
X55961508Y-37167654D01*
X56047769Y-37163560D01*
X56156045Y-37160894D01*
X56279424Y-37159978D01*
X56664467Y-37160177D01*
X56778991Y-37225848D01*
X56837569Y-37264956D01*
X56914181Y-37325228D01*
X56998827Y-37398329D01*
X57084662Y-37477710D01*
X57164838Y-37556823D01*
X57232509Y-37629119D01*
X57280831Y-37688049D01*
X57302956Y-37727064D01*
X57305323Y-37753085D01*
X57298778Y-37817010D01*
X57281291Y-37889373D01*
X57256572Y-37980457D01*
X57249175Y-38054905D01*
X57263429Y-38111391D01*
X57300032Y-38159989D01*
X57313598Y-38173061D01*
X57377273Y-38217732D01*
X57429134Y-38222354D01*
X57470264Y-38187100D01*
X57513707Y-38144071D01*
X57591140Y-38093209D01*
X57693994Y-38039680D01*
X57814396Y-37987571D01*
X57944474Y-37940968D01*
X58008894Y-37919800D01*
X58076979Y-37892029D01*
X58118880Y-37859909D01*
X58141272Y-37813945D01*
X58150825Y-37744641D01*
X58154213Y-37642501D01*
X58154365Y-37630540D01*
X58144091Y-37531122D01*
X58109029Y-37463122D01*
X58044385Y-37420950D01*
X57945365Y-37399017D01*
X57922914Y-37396156D01*
X57854453Y-37380660D01*
X57798508Y-37350792D01*
X57735697Y-37297133D01*
X57697158Y-37257552D01*
X57663224Y-37211845D01*
X57657256Y-37184254D01*
X57672379Y-37175059D01*
X57723768Y-37165435D01*
X57800747Y-37160827D01*
X57893438Y-37161120D01*
X57991962Y-37166197D01*
X58086443Y-37175943D01*
X58167001Y-37190242D01*
X58259702Y-37220529D01*
X58351285Y-37280384D01*
X58410603Y-37365639D01*
X58440478Y-37479277D01*
X58445083Y-37543290D01*
X58444954Y-37644550D01*
X58439163Y-37761390D01*
X58428687Y-37885538D01*
X58414505Y-38008724D01*
X58397595Y-38122677D01*
X58378935Y-38219126D01*
X58359503Y-38289800D01*
X58340278Y-38326429D01*
X58321864Y-38339804D01*
X58272617Y-38370005D01*
X58209634Y-38405135D01*
X58103800Y-38461600D01*
X58086818Y-38651230D01*
X58082974Y-38689547D01*
X58071665Y-38772542D01*
X58058895Y-38836039D01*
X58046760Y-38868665D01*
X58036463Y-38884437D01*
X58034417Y-38907202D01*
X58035671Y-38907977D01*
X58054955Y-38895843D01*
X58083648Y-38859065D01*
X58083855Y-38858749D01*
X58117578Y-38810265D01*
X58144724Y-38776101D01*
X58166108Y-38750405D01*
X58205139Y-38700401D01*
X58251967Y-38638518D01*
X58379853Y-38487153D01*
X58477764Y-38397515D01*
X58728217Y-38397515D01*
X58732885Y-38412505D01*
X58763808Y-38450375D01*
X58812093Y-38490623D01*
X58864026Y-38522589D01*
X58905891Y-38535613D01*
X58928503Y-38538482D01*
X58993713Y-38562573D01*
X59067068Y-38604484D01*
X59133286Y-38656117D01*
X59167881Y-38685282D01*
X59199022Y-38695461D01*
X59232937Y-38680915D01*
X59234729Y-38679761D01*
X59275487Y-38640767D01*
X59312629Y-38586953D01*
X59315194Y-38582176D01*
X59335686Y-38537039D01*
X59333621Y-38505211D01*
X59308228Y-38465356D01*
X59299926Y-38455259D01*
X59247494Y-38411334D01*
X59183300Y-38376295D01*
X59167788Y-38369620D01*
X59091858Y-38328937D01*
X59022218Y-38281558D01*
X58945802Y-38220874D01*
X58837009Y-38294139D01*
X58787306Y-38330959D01*
X58744630Y-38370607D01*
X58728217Y-38397515D01*
X58477764Y-38397515D01*
X58580437Y-38303516D01*
X58820219Y-38133916D01*
X58973131Y-38048721D01*
X59333572Y-38048721D01*
X59334760Y-38072264D01*
X59375554Y-38086645D01*
X59392993Y-38089369D01*
X59469410Y-38105869D01*
X59520953Y-38129063D01*
X59562425Y-38165173D01*
X59609859Y-38216355D01*
X59687621Y-38114386D01*
X59722134Y-38066708D01*
X59753350Y-38017375D01*
X59765384Y-37989260D01*
X59763866Y-37984335D01*
X59736616Y-37963465D01*
X59686009Y-37944059D01*
X59673930Y-37940662D01*
X59633088Y-37929451D01*
X59603125Y-37925762D01*
X59571418Y-37931444D01*
X59525344Y-37948349D01*
X59452278Y-37978327D01*
X59444890Y-37981383D01*
X59370709Y-38017825D01*
X59333572Y-38048721D01*
X58973131Y-38048721D01*
X59098634Y-37978796D01*
X59128878Y-37963975D01*
X59288437Y-37891970D01*
X59443862Y-37831471D01*
X59589640Y-37783919D01*
X59720254Y-37750756D01*
X59830189Y-37733425D01*
X59913929Y-37733367D01*
X59965959Y-37752025D01*
X59995010Y-37798786D01*
X59996301Y-37872942D01*
X59967227Y-37968582D01*
X59908759Y-38082611D01*
X59821868Y-38211931D01*
X59757489Y-38295617D01*
X59650729Y-38426328D01*
X59524199Y-38574524D01*
X59382586Y-38735203D01*
X59230575Y-38903362D01*
X59072851Y-39073999D01*
X58914099Y-39242114D01*
X58759006Y-39402704D01*
X58612256Y-39550766D01*
X58478535Y-39681300D01*
X58362528Y-39789303D01*
X58268921Y-39869773D01*
X58255194Y-39880644D01*
X58156704Y-39952211D01*
X58047274Y-40023465D01*
X57948153Y-40080453D01*
X57846714Y-40140632D01*
X57722825Y-40228983D01*
X57603979Y-40328023D01*
X57547426Y-40378869D01*
X57429524Y-40480937D01*
X57328172Y-40561271D01*
X57234517Y-40626206D01*
X57139705Y-40682077D01*
X57034884Y-40735217D01*
X56799787Y-40829739D01*
X56554775Y-40891028D01*
X56290006Y-40921106D01*
X56141832Y-40923775D01*
X55907622Y-40904379D01*
X55668746Y-40854682D01*
X55418717Y-40773191D01*
X55151050Y-40658408D01*
X55125562Y-40646642D01*
X55021756Y-40603278D01*
X54917009Y-40565311D01*
X54830547Y-40539852D01*
X54767370Y-40525848D01*
X54711077Y-40518120D01*
X54655788Y-40518942D01*
X54587418Y-40528631D01*
X54491881Y-40547506D01*
X54398955Y-40563443D01*
X54273118Y-40579490D01*
X54137283Y-40592512D01*
X54008247Y-40600662D01*
X53930381Y-40604264D01*
X53819398Y-40612354D01*
X53735839Y-40625853D01*
X53670157Y-40648590D01*
X53612804Y-40684391D01*
X53554233Y-40737086D01*
X53484895Y-40810503D01*
X53476784Y-40819286D01*
X53422742Y-40874109D01*
X53378769Y-40912795D01*
X53353727Y-40927446D01*
X53330438Y-40914496D01*
X53307786Y-40863976D01*
X53293412Y-40779314D01*
X53288384Y-40664799D01*
X53286015Y-40595312D01*
X53271230Y-40487231D01*
X53240424Y-40373652D01*
X53190747Y-40244916D01*
X53119353Y-40091363D01*
X53105227Y-40061724D01*
X53057708Y-39952221D01*
X53009983Y-39830275D01*
X52970528Y-39717196D01*
X52944737Y-39639187D01*
X52915353Y-39563702D01*
X52884365Y-39506982D01*
X52844600Y-39456492D01*
X52788887Y-39399696D01*
X52782763Y-39393740D01*
X52725047Y-39334783D01*
X52692647Y-39292115D01*
X52682925Y-39265137D01*
X52894093Y-39265137D01*
X52902096Y-39309455D01*
X52947302Y-39372180D01*
X52965569Y-39393993D01*
X53014228Y-39460589D01*
X53049393Y-39520205D01*
X53082532Y-39589698D01*
X53180347Y-39519425D01*
X53246105Y-39475819D01*
X53323307Y-39440323D01*
X53391181Y-39433338D01*
X53460002Y-39452402D01*
X53515241Y-39482321D01*
X53580419Y-39530556D01*
X53636956Y-39584324D01*
X53675569Y-39634624D01*
X53686977Y-39672458D01*
X53664855Y-39701216D01*
X53609594Y-39740319D01*
X53528117Y-39784446D01*
X53517148Y-39789856D01*
X53437697Y-39832245D01*
X53369279Y-39873772D01*
X53325670Y-39906154D01*
X53324064Y-39907653D01*
X53281080Y-39940282D01*
X53247683Y-39953780D01*
X53231881Y-39967964D01*
X53233929Y-40007954D01*
X53253157Y-40062889D01*
X53287005Y-40121822D01*
X53289345Y-40125287D01*
X53316871Y-40179849D01*
X53348785Y-40261150D01*
X53380899Y-40356050D01*
X53409024Y-40451410D01*
X53428970Y-40534088D01*
X53436550Y-40590944D01*
X53438807Y-40624921D01*
X53454582Y-40657885D01*
X53484456Y-40651321D01*
X53527298Y-40605051D01*
X53557560Y-40562498D01*
X53583749Y-40521737D01*
X53595329Y-40498935D01*
X53589474Y-40499933D01*
X53563355Y-40530571D01*
X53523118Y-40573487D01*
X53488280Y-40585716D01*
X53463839Y-40557536D01*
X53447861Y-40488238D01*
X53443348Y-40455994D01*
X53442639Y-40451196D01*
X53605884Y-40451196D01*
X53616467Y-40461779D01*
X53627050Y-40451196D01*
X53616467Y-40440613D01*
X53605884Y-40451196D01*
X53442639Y-40451196D01*
X53435075Y-40399968D01*
X53430000Y-40369853D01*
X53437380Y-40359336D01*
X53473053Y-40338940D01*
X53525516Y-40317289D01*
X53580579Y-40300018D01*
X53624053Y-40292765D01*
X53642395Y-40303762D01*
X53639525Y-40345363D01*
X53632274Y-40387336D01*
X53638877Y-40395676D01*
X53656692Y-40370292D01*
X53682436Y-40313613D01*
X53695328Y-40283631D01*
X53722760Y-40238150D01*
X53742026Y-40233434D01*
X53751166Y-40268613D01*
X53748220Y-40342816D01*
X53736468Y-40456686D01*
X53821016Y-40468027D01*
X53879004Y-40471539D01*
X53981048Y-40469041D01*
X54105767Y-40459775D01*
X54242698Y-40444751D01*
X54381378Y-40424977D01*
X54511345Y-40401463D01*
X54528733Y-40397901D01*
X54613841Y-40381453D01*
X54675689Y-40373988D01*
X54729883Y-40375804D01*
X54792026Y-40387199D01*
X54877724Y-40408471D01*
X54884070Y-40410120D01*
X54995900Y-40444172D01*
X55118030Y-40488522D01*
X55225134Y-40534015D01*
X55248446Y-40544973D01*
X55392691Y-40610051D01*
X55518214Y-40660518D01*
X55640608Y-40702243D01*
X55775467Y-40741091D01*
X55885930Y-40764485D01*
X56068350Y-40783872D01*
X56262484Y-40786007D01*
X56452392Y-40770935D01*
X56622134Y-40738702D01*
X56630961Y-40736346D01*
X56879457Y-40650846D01*
X57110601Y-40534533D01*
X57319784Y-40391044D01*
X57502394Y-40224013D01*
X57653821Y-40037078D01*
X57769453Y-39833875D01*
X57792721Y-39779627D01*
X57810954Y-39717834D01*
X57816415Y-39652570D01*
X57812142Y-39564669D01*
X57809553Y-39546018D01*
X57881550Y-39546018D01*
X57884678Y-39559164D01*
X57914720Y-39597378D01*
X57965575Y-39636267D01*
X58023578Y-39666466D01*
X58075066Y-39678613D01*
X58127654Y-39684267D01*
X58179917Y-39700868D01*
X58201068Y-39708137D01*
X58231374Y-39702486D01*
X58273758Y-39675982D01*
X58337275Y-39624213D01*
X58342186Y-39619996D01*
X58398227Y-39568337D01*
X58437957Y-39525392D01*
X58453050Y-39500085D01*
X58451646Y-39490619D01*
X58425494Y-39449139D01*
X58375896Y-39404860D01*
X58315465Y-39367610D01*
X58256818Y-39347217D01*
X58188722Y-39322756D01*
X58122554Y-39273928D01*
X58110358Y-39261519D01*
X58072094Y-39226867D01*
X58049445Y-39212946D01*
X58038073Y-39224781D01*
X58012721Y-39265878D01*
X57979883Y-39326220D01*
X57944953Y-39395104D01*
X57913325Y-39461833D01*
X57890393Y-39515704D01*
X57881550Y-39546018D01*
X57809553Y-39546018D01*
X57799517Y-39473693D01*
X57774282Y-39356455D01*
X57740447Y-39229502D01*
X57701754Y-39105726D01*
X57661946Y-38998018D01*
X57629453Y-38929198D01*
X58259126Y-38929198D01*
X58298583Y-38990416D01*
X58378322Y-39043300D01*
X58404674Y-39055655D01*
X58456571Y-39077435D01*
X58486191Y-39086152D01*
X58502274Y-39092637D01*
X58544492Y-39119558D01*
X58598904Y-39160235D01*
X58638322Y-39190504D01*
X58683359Y-39221928D01*
X58707005Y-39234113D01*
X58712563Y-39232016D01*
X58743133Y-39208455D01*
X58789075Y-39166215D01*
X58841053Y-39114721D01*
X58889737Y-39063398D01*
X58925791Y-39021670D01*
X58939884Y-38998961D01*
X58939728Y-38997193D01*
X58922024Y-38967493D01*
X58883338Y-38924947D01*
X58835632Y-38880727D01*
X58790870Y-38846003D01*
X58761016Y-38831946D01*
X58743611Y-38830128D01*
X58681409Y-38810610D01*
X58608093Y-38776219D01*
X58539730Y-38735117D01*
X58492386Y-38695466D01*
X58488356Y-38690884D01*
X58453838Y-38655820D01*
X58432780Y-38641446D01*
X58418384Y-38649452D01*
X58384078Y-38683038D01*
X58341964Y-38732588D01*
X58301390Y-38786885D01*
X58271703Y-38834712D01*
X58260697Y-38861111D01*
X58259126Y-38929198D01*
X57629453Y-38929198D01*
X57624767Y-38919271D01*
X57601975Y-38876456D01*
X57565464Y-38800669D01*
X57529885Y-38720376D01*
X57520751Y-38699591D01*
X57486523Y-38633766D01*
X57439751Y-38560447D01*
X57376268Y-38473848D01*
X57291911Y-38368178D01*
X57182513Y-38237652D01*
X57152546Y-38197963D01*
X57111845Y-38106422D01*
X57104881Y-38002521D01*
X57130495Y-37878254D01*
X57135174Y-37862756D01*
X57152985Y-37799128D01*
X57157878Y-37760681D01*
X57149682Y-37734584D01*
X57128225Y-37708004D01*
X57088838Y-37672127D01*
X57037275Y-37638103D01*
X56991123Y-37618120D01*
X56963484Y-37619235D01*
X56962527Y-37620377D01*
X56953801Y-37651668D01*
X56950217Y-37704019D01*
X56941096Y-37753368D01*
X56908935Y-37814334D01*
X56863483Y-37860899D01*
X56815220Y-37879446D01*
X56766513Y-37894005D01*
X56712480Y-37940189D01*
X56652218Y-38020292D01*
X56584013Y-38136597D01*
X56506148Y-38291393D01*
X56447715Y-38418187D01*
X56396582Y-38544306D01*
X56362399Y-38655313D01*
X56342440Y-38762628D01*
X56333982Y-38877671D01*
X56334300Y-39011863D01*
X56338302Y-39081967D01*
X56355772Y-39177070D01*
X56390704Y-39263561D01*
X56411063Y-39306457D01*
X56429606Y-39354815D01*
X56432301Y-39378084D01*
X56427843Y-39380711D01*
X56400410Y-39369871D01*
X56362196Y-39331443D01*
X56320111Y-39273395D01*
X56281064Y-39203693D01*
X56256371Y-39137778D01*
X56234617Y-39011262D01*
X56232316Y-38851932D01*
X56249327Y-38657321D01*
X56254346Y-38603805D01*
X56254597Y-38554596D01*
X56248280Y-38535613D01*
X56239892Y-38536894D01*
X56199012Y-38547944D01*
X56140664Y-38566632D01*
X56092914Y-38579458D01*
X56002829Y-38596659D01*
X55895072Y-38612475D01*
X55783681Y-38625136D01*
X55682689Y-38632876D01*
X55606134Y-38633929D01*
X55542634Y-38630863D01*
X55549909Y-38816071D01*
X55550889Y-38847678D01*
X55549602Y-38935758D01*
X55541733Y-38987687D01*
X55528264Y-39001941D01*
X55510179Y-38976994D01*
X55488462Y-38911321D01*
X55464895Y-38828685D01*
X55386196Y-38613272D01*
X55286699Y-38423822D01*
X55160052Y-38249519D01*
X54999902Y-38079549D01*
X54939593Y-38022840D01*
X54851320Y-37942655D01*
X54760296Y-37862584D01*
X54672189Y-37787366D01*
X54592665Y-37721743D01*
X54527392Y-37670454D01*
X54482036Y-37638240D01*
X54462266Y-37629841D01*
X54460514Y-37641022D01*
X54464483Y-37686646D01*
X54475274Y-37758086D01*
X54491130Y-37845856D01*
X54510296Y-37940469D01*
X54531017Y-38032439D01*
X54551537Y-38112279D01*
X54576630Y-38191821D01*
X54611290Y-38289369D01*
X54647896Y-38383419D01*
X54674760Y-38449525D01*
X54693670Y-38502846D01*
X54698537Y-38536135D01*
X54690563Y-38559864D01*
X54670947Y-38584502D01*
X54593828Y-38680858D01*
X54542147Y-38770583D01*
X54513005Y-38864148D01*
X54500184Y-38975800D01*
X54498937Y-38999759D01*
X54497055Y-39069440D01*
X54501644Y-39124059D01*
X54515917Y-39176798D01*
X54543088Y-39240838D01*
X54586369Y-39329363D01*
X54613255Y-39384832D01*
X54646120Y-39458069D01*
X54666720Y-39511352D01*
X54671429Y-39535874D01*
X54655201Y-39533577D01*
X54615497Y-39509459D01*
X54562300Y-39468196D01*
X54561702Y-39467691D01*
X54415374Y-39369697D01*
X54258169Y-39310410D01*
X54095211Y-39290459D01*
X53931623Y-39310475D01*
X53772528Y-39371088D01*
X53766350Y-39374291D01*
X53687945Y-39408094D01*
X53616187Y-39421281D01*
X53540840Y-39412803D01*
X53451666Y-39381614D01*
X53338427Y-39326664D01*
X53247253Y-39281160D01*
X53169024Y-39248927D01*
X53103076Y-39231941D01*
X53037178Y-39226122D01*
X52992936Y-39226467D01*
X52924104Y-39237912D01*
X52894093Y-39265137D01*
X52682925Y-39265137D01*
X52679355Y-39255227D01*
X52678964Y-39213611D01*
G37*
X52678964Y-39213611D02*
X52696183Y-39149986D01*
X52740491Y-39109268D01*
X52761418Y-39100738D01*
X52835212Y-39090417D01*
X52934332Y-39093160D01*
X53048766Y-39107478D01*
X53168501Y-39131881D01*
X53283523Y-39164879D01*
X53383821Y-39204983D01*
X53395162Y-39210380D01*
X53472344Y-39243868D01*
X53538474Y-39267498D01*
X53580293Y-39276446D01*
X53608967Y-39274948D01*
X53661130Y-39263736D01*
X53719523Y-39238949D01*
X53789070Y-39197506D01*
X53874697Y-39136323D01*
X53981327Y-39052317D01*
X54113884Y-38942407D01*
X54117896Y-38939028D01*
X54211530Y-38860104D01*
X54280241Y-38801307D01*
X54331155Y-38755665D01*
X54371394Y-38716207D01*
X54408083Y-38675959D01*
X54448345Y-38627951D01*
X54499304Y-38565211D01*
X54517194Y-38540157D01*
X54524086Y-38512627D01*
X54516106Y-38473086D01*
X54492683Y-38407947D01*
X54463035Y-38322490D01*
X54424053Y-38191180D01*
X54386881Y-38047565D01*
X54354633Y-37904685D01*
X54330421Y-37775583D01*
X54317356Y-37673299D01*
X54307300Y-37591096D01*
X54290957Y-37516461D01*
X54272031Y-37468748D01*
X54253619Y-37446451D01*
X54194580Y-37400293D01*
X54124265Y-37364600D01*
X54062008Y-37350279D01*
X54007921Y-37339163D01*
X53942915Y-37308892D01*
X53881393Y-37267665D01*
X53835542Y-37223709D01*
X53817550Y-37185251D01*
X53820493Y-37174604D01*
X53837595Y-37164979D01*
X53876111Y-37160608D01*
X53942967Y-37160879D01*
X54045092Y-37165180D01*
X54066295Y-37166292D01*
X54205829Y-37177766D01*
X54312046Y-37197581D01*
X54392786Y-37230000D01*
X54455889Y-37279289D01*
X54509197Y-37349710D01*
X54560548Y-37445529D01*
X54633082Y-37562826D01*
X54748187Y-37684570D01*
X54874617Y-37796611D01*
X54887956Y-37737487D01*
X54889002Y-37732875D01*
X54904072Y-37668841D01*
X54921277Y-37598535D01*
X54927528Y-37509010D01*
X54896782Y-37433135D01*
X54829546Y-37376625D01*
X54727296Y-37341432D01*
X54703374Y-37334496D01*
X54643441Y-37299826D01*
X54597738Y-37251222D01*
X54579550Y-37201288D01*
X54579641Y-37196722D01*
X54584305Y-37179719D01*
X54601463Y-37168912D01*
X54638572Y-37162913D01*
X54703091Y-37160331D01*
X54802480Y-37159779D01*
X54893203Y-37160489D01*
X55002401Y-37166263D01*
X55080043Y-37181421D01*
X55132625Y-37210160D01*
X55166643Y-37256676D01*
X55188591Y-37325166D01*
X55204964Y-37419826D01*
X55209411Y-37443661D01*
X55236193Y-37527588D01*
X55273189Y-37599742D01*
X55297667Y-37639679D01*
X55326189Y-37701625D01*
X55351431Y-37779301D01*
X55375145Y-37879318D01*
X55399081Y-38008286D01*
X55424991Y-38172813D01*
X55428384Y-38195415D01*
X55444446Y-38297586D01*
X55459010Y-38382952D01*
X55470590Y-38443144D01*
X55477700Y-38469794D01*
X55489913Y-38475410D01*
X55538096Y-38480016D01*
X55614049Y-38479825D01*
X55709082Y-38475307D01*
X55814505Y-38466929D01*
X55921629Y-38455160D01*
X56021766Y-38440467D01*
X56109480Y-38423735D01*
X56211885Y-38395622D01*
X56284273Y-38360624D01*
X56334062Y-38314754D01*
X56368669Y-38254027D01*
X56405718Y-38167816D01*
X56460066Y-38048384D01*
X56506894Y-37958784D01*
X56550615Y-37892750D01*
X56595646Y-37844015D01*
X56646400Y-37806312D01*
X56707294Y-37773374D01*
X56754657Y-37747739D01*
X56791614Y-37714777D01*
X56802050Y-37677444D01*
X56783118Y-37626615D01*
X56730225Y-37571932D01*
X56651289Y-37518188D01*
X56554236Y-37469360D01*
X56446989Y-37429426D01*
X56337473Y-37402363D01*
X56233612Y-37392148D01*
X56214421Y-37391418D01*
X56127605Y-37377785D01*
X56048970Y-37352474D01*
X56025904Y-37340796D01*
X55966221Y-37300252D01*
X55916616Y-37253536D01*
X55885888Y-37209866D01*
X55882838Y-37178458D01*
X55904176Y-37172855D01*
X55961508Y-37167654D01*
X56047769Y-37163560D01*
X56156045Y-37160894D01*
X56279424Y-37159978D01*
X56664467Y-37160177D01*
X56778991Y-37225848D01*
X56837569Y-37264956D01*
X56914181Y-37325228D01*
X56998827Y-37398329D01*
X57084662Y-37477710D01*
X57164838Y-37556823D01*
X57232509Y-37629119D01*
X57280831Y-37688049D01*
X57302956Y-37727064D01*
X57305323Y-37753085D01*
X57298778Y-37817010D01*
X57281291Y-37889373D01*
X57256572Y-37980457D01*
X57249175Y-38054905D01*
X57263429Y-38111391D01*
X57300032Y-38159989D01*
X57313598Y-38173061D01*
X57377273Y-38217732D01*
X57429134Y-38222354D01*
X57470264Y-38187100D01*
X57513707Y-38144071D01*
X57591140Y-38093209D01*
X57693994Y-38039680D01*
X57814396Y-37987571D01*
X57944474Y-37940968D01*
X58008894Y-37919800D01*
X58076979Y-37892029D01*
X58118880Y-37859909D01*
X58141272Y-37813945D01*
X58150825Y-37744641D01*
X58154213Y-37642501D01*
X58154365Y-37630540D01*
X58144091Y-37531122D01*
X58109029Y-37463122D01*
X58044385Y-37420950D01*
X57945365Y-37399017D01*
X57922914Y-37396156D01*
X57854453Y-37380660D01*
X57798508Y-37350792D01*
X57735697Y-37297133D01*
X57697158Y-37257552D01*
X57663224Y-37211845D01*
X57657256Y-37184254D01*
X57672379Y-37175059D01*
X57723768Y-37165435D01*
X57800747Y-37160827D01*
X57893438Y-37161120D01*
X57991962Y-37166197D01*
X58086443Y-37175943D01*
X58167001Y-37190242D01*
X58259702Y-37220529D01*
X58351285Y-37280384D01*
X58410603Y-37365639D01*
X58440478Y-37479277D01*
X58445083Y-37543290D01*
X58444954Y-37644550D01*
X58439163Y-37761390D01*
X58428687Y-37885538D01*
X58414505Y-38008724D01*
X58397595Y-38122677D01*
X58378935Y-38219126D01*
X58359503Y-38289800D01*
X58340278Y-38326429D01*
X58321864Y-38339804D01*
X58272617Y-38370005D01*
X58209634Y-38405135D01*
X58103800Y-38461600D01*
X58086818Y-38651230D01*
X58082974Y-38689547D01*
X58071665Y-38772542D01*
X58058895Y-38836039D01*
X58046760Y-38868665D01*
X58036463Y-38884437D01*
X58034417Y-38907202D01*
X58035671Y-38907977D01*
X58054955Y-38895843D01*
X58083648Y-38859065D01*
X58083855Y-38858749D01*
X58117578Y-38810265D01*
X58144724Y-38776101D01*
X58166108Y-38750405D01*
X58205139Y-38700401D01*
X58251967Y-38638518D01*
X58379853Y-38487153D01*
X58477764Y-38397515D01*
X58728217Y-38397515D01*
X58732885Y-38412505D01*
X58763808Y-38450375D01*
X58812093Y-38490623D01*
X58864026Y-38522589D01*
X58905891Y-38535613D01*
X58928503Y-38538482D01*
X58993713Y-38562573D01*
X59067068Y-38604484D01*
X59133286Y-38656117D01*
X59167881Y-38685282D01*
X59199022Y-38695461D01*
X59232937Y-38680915D01*
X59234729Y-38679761D01*
X59275487Y-38640767D01*
X59312629Y-38586953D01*
X59315194Y-38582176D01*
X59335686Y-38537039D01*
X59333621Y-38505211D01*
X59308228Y-38465356D01*
X59299926Y-38455259D01*
X59247494Y-38411334D01*
X59183300Y-38376295D01*
X59167788Y-38369620D01*
X59091858Y-38328937D01*
X59022218Y-38281558D01*
X58945802Y-38220874D01*
X58837009Y-38294139D01*
X58787306Y-38330959D01*
X58744630Y-38370607D01*
X58728217Y-38397515D01*
X58477764Y-38397515D01*
X58580437Y-38303516D01*
X58820219Y-38133916D01*
X58973131Y-38048721D01*
X59333572Y-38048721D01*
X59334760Y-38072264D01*
X59375554Y-38086645D01*
X59392993Y-38089369D01*
X59469410Y-38105869D01*
X59520953Y-38129063D01*
X59562425Y-38165173D01*
X59609859Y-38216355D01*
X59687621Y-38114386D01*
X59722134Y-38066708D01*
X59753350Y-38017375D01*
X59765384Y-37989260D01*
X59763866Y-37984335D01*
X59736616Y-37963465D01*
X59686009Y-37944059D01*
X59673930Y-37940662D01*
X59633088Y-37929451D01*
X59603125Y-37925762D01*
X59571418Y-37931444D01*
X59525344Y-37948349D01*
X59452278Y-37978327D01*
X59444890Y-37981383D01*
X59370709Y-38017825D01*
X59333572Y-38048721D01*
X58973131Y-38048721D01*
X59098634Y-37978796D01*
X59128878Y-37963975D01*
X59288437Y-37891970D01*
X59443862Y-37831471D01*
X59589640Y-37783919D01*
X59720254Y-37750756D01*
X59830189Y-37733425D01*
X59913929Y-37733367D01*
X59965959Y-37752025D01*
X59995010Y-37798786D01*
X59996301Y-37872942D01*
X59967227Y-37968582D01*
X59908759Y-38082611D01*
X59821868Y-38211931D01*
X59757489Y-38295617D01*
X59650729Y-38426328D01*
X59524199Y-38574524D01*
X59382586Y-38735203D01*
X59230575Y-38903362D01*
X59072851Y-39073999D01*
X58914099Y-39242114D01*
X58759006Y-39402704D01*
X58612256Y-39550766D01*
X58478535Y-39681300D01*
X58362528Y-39789303D01*
X58268921Y-39869773D01*
X58255194Y-39880644D01*
X58156704Y-39952211D01*
X58047274Y-40023465D01*
X57948153Y-40080453D01*
X57846714Y-40140632D01*
X57722825Y-40228983D01*
X57603979Y-40328023D01*
X57547426Y-40378869D01*
X57429524Y-40480937D01*
X57328172Y-40561271D01*
X57234517Y-40626206D01*
X57139705Y-40682077D01*
X57034884Y-40735217D01*
X56799787Y-40829739D01*
X56554775Y-40891028D01*
X56290006Y-40921106D01*
X56141832Y-40923775D01*
X55907622Y-40904379D01*
X55668746Y-40854682D01*
X55418717Y-40773191D01*
X55151050Y-40658408D01*
X55125562Y-40646642D01*
X55021756Y-40603278D01*
X54917009Y-40565311D01*
X54830547Y-40539852D01*
X54767370Y-40525848D01*
X54711077Y-40518120D01*
X54655788Y-40518942D01*
X54587418Y-40528631D01*
X54491881Y-40547506D01*
X54398955Y-40563443D01*
X54273118Y-40579490D01*
X54137283Y-40592512D01*
X54008247Y-40600662D01*
X53930381Y-40604264D01*
X53819398Y-40612354D01*
X53735839Y-40625853D01*
X53670157Y-40648590D01*
X53612804Y-40684391D01*
X53554233Y-40737086D01*
X53484895Y-40810503D01*
X53476784Y-40819286D01*
X53422742Y-40874109D01*
X53378769Y-40912795D01*
X53353727Y-40927446D01*
X53330438Y-40914496D01*
X53307786Y-40863976D01*
X53293412Y-40779314D01*
X53288384Y-40664799D01*
X53286015Y-40595312D01*
X53271230Y-40487231D01*
X53240424Y-40373652D01*
X53190747Y-40244916D01*
X53119353Y-40091363D01*
X53105227Y-40061724D01*
X53057708Y-39952221D01*
X53009983Y-39830275D01*
X52970528Y-39717196D01*
X52944737Y-39639187D01*
X52915353Y-39563702D01*
X52884365Y-39506982D01*
X52844600Y-39456492D01*
X52788887Y-39399696D01*
X52782763Y-39393740D01*
X52725047Y-39334783D01*
X52692647Y-39292115D01*
X52682925Y-39265137D01*
X52894093Y-39265137D01*
X52902096Y-39309455D01*
X52947302Y-39372180D01*
X52965569Y-39393993D01*
X53014228Y-39460589D01*
X53049393Y-39520205D01*
X53082532Y-39589698D01*
X53180347Y-39519425D01*
X53246105Y-39475819D01*
X53323307Y-39440323D01*
X53391181Y-39433338D01*
X53460002Y-39452402D01*
X53515241Y-39482321D01*
X53580419Y-39530556D01*
X53636956Y-39584324D01*
X53675569Y-39634624D01*
X53686977Y-39672458D01*
X53664855Y-39701216D01*
X53609594Y-39740319D01*
X53528117Y-39784446D01*
X53517148Y-39789856D01*
X53437697Y-39832245D01*
X53369279Y-39873772D01*
X53325670Y-39906154D01*
X53324064Y-39907653D01*
X53281080Y-39940282D01*
X53247683Y-39953780D01*
X53231881Y-39967964D01*
X53233929Y-40007954D01*
X53253157Y-40062889D01*
X53287005Y-40121822D01*
X53289345Y-40125287D01*
X53316871Y-40179849D01*
X53348785Y-40261150D01*
X53380899Y-40356050D01*
X53409024Y-40451410D01*
X53428970Y-40534088D01*
X53436550Y-40590944D01*
X53438807Y-40624921D01*
X53454582Y-40657885D01*
X53484456Y-40651321D01*
X53527298Y-40605051D01*
X53557560Y-40562498D01*
X53583749Y-40521737D01*
X53595329Y-40498935D01*
X53589474Y-40499933D01*
X53563355Y-40530571D01*
X53523118Y-40573487D01*
X53488280Y-40585716D01*
X53463839Y-40557536D01*
X53447861Y-40488238D01*
X53443348Y-40455994D01*
X53442639Y-40451196D01*
X53605884Y-40451196D01*
X53616467Y-40461779D01*
X53627050Y-40451196D01*
X53616467Y-40440613D01*
X53605884Y-40451196D01*
X53442639Y-40451196D01*
X53435075Y-40399968D01*
X53430000Y-40369853D01*
X53437380Y-40359336D01*
X53473053Y-40338940D01*
X53525516Y-40317289D01*
X53580579Y-40300018D01*
X53624053Y-40292765D01*
X53642395Y-40303762D01*
X53639525Y-40345363D01*
X53632274Y-40387336D01*
X53638877Y-40395676D01*
X53656692Y-40370292D01*
X53682436Y-40313613D01*
X53695328Y-40283631D01*
X53722760Y-40238150D01*
X53742026Y-40233434D01*
X53751166Y-40268613D01*
X53748220Y-40342816D01*
X53736468Y-40456686D01*
X53821016Y-40468027D01*
X53879004Y-40471539D01*
X53981048Y-40469041D01*
X54105767Y-40459775D01*
X54242698Y-40444751D01*
X54381378Y-40424977D01*
X54511345Y-40401463D01*
X54528733Y-40397901D01*
X54613841Y-40381453D01*
X54675689Y-40373988D01*
X54729883Y-40375804D01*
X54792026Y-40387199D01*
X54877724Y-40408471D01*
X54884070Y-40410120D01*
X54995900Y-40444172D01*
X55118030Y-40488522D01*
X55225134Y-40534015D01*
X55248446Y-40544973D01*
X55392691Y-40610051D01*
X55518214Y-40660518D01*
X55640608Y-40702243D01*
X55775467Y-40741091D01*
X55885930Y-40764485D01*
X56068350Y-40783872D01*
X56262484Y-40786007D01*
X56452392Y-40770935D01*
X56622134Y-40738702D01*
X56630961Y-40736346D01*
X56879457Y-40650846D01*
X57110601Y-40534533D01*
X57319784Y-40391044D01*
X57502394Y-40224013D01*
X57653821Y-40037078D01*
X57769453Y-39833875D01*
X57792721Y-39779627D01*
X57810954Y-39717834D01*
X57816415Y-39652570D01*
X57812142Y-39564669D01*
X57809553Y-39546018D01*
X57881550Y-39546018D01*
X57884678Y-39559164D01*
X57914720Y-39597378D01*
X57965575Y-39636267D01*
X58023578Y-39666466D01*
X58075066Y-39678613D01*
X58127654Y-39684267D01*
X58179917Y-39700868D01*
X58201068Y-39708137D01*
X58231374Y-39702486D01*
X58273758Y-39675982D01*
X58337275Y-39624213D01*
X58342186Y-39619996D01*
X58398227Y-39568337D01*
X58437957Y-39525392D01*
X58453050Y-39500085D01*
X58451646Y-39490619D01*
X58425494Y-39449139D01*
X58375896Y-39404860D01*
X58315465Y-39367610D01*
X58256818Y-39347217D01*
X58188722Y-39322756D01*
X58122554Y-39273928D01*
X58110358Y-39261519D01*
X58072094Y-39226867D01*
X58049445Y-39212946D01*
X58038073Y-39224781D01*
X58012721Y-39265878D01*
X57979883Y-39326220D01*
X57944953Y-39395104D01*
X57913325Y-39461833D01*
X57890393Y-39515704D01*
X57881550Y-39546018D01*
X57809553Y-39546018D01*
X57799517Y-39473693D01*
X57774282Y-39356455D01*
X57740447Y-39229502D01*
X57701754Y-39105726D01*
X57661946Y-38998018D01*
X57629453Y-38929198D01*
X58259126Y-38929198D01*
X58298583Y-38990416D01*
X58378322Y-39043300D01*
X58404674Y-39055655D01*
X58456571Y-39077435D01*
X58486191Y-39086152D01*
X58502274Y-39092637D01*
X58544492Y-39119558D01*
X58598904Y-39160235D01*
X58638322Y-39190504D01*
X58683359Y-39221928D01*
X58707005Y-39234113D01*
X58712563Y-39232016D01*
X58743133Y-39208455D01*
X58789075Y-39166215D01*
X58841053Y-39114721D01*
X58889737Y-39063398D01*
X58925791Y-39021670D01*
X58939884Y-38998961D01*
X58939728Y-38997193D01*
X58922024Y-38967493D01*
X58883338Y-38924947D01*
X58835632Y-38880727D01*
X58790870Y-38846003D01*
X58761016Y-38831946D01*
X58743611Y-38830128D01*
X58681409Y-38810610D01*
X58608093Y-38776219D01*
X58539730Y-38735117D01*
X58492386Y-38695466D01*
X58488356Y-38690884D01*
X58453838Y-38655820D01*
X58432780Y-38641446D01*
X58418384Y-38649452D01*
X58384078Y-38683038D01*
X58341964Y-38732588D01*
X58301390Y-38786885D01*
X58271703Y-38834712D01*
X58260697Y-38861111D01*
X58259126Y-38929198D01*
X57629453Y-38929198D01*
X57624767Y-38919271D01*
X57601975Y-38876456D01*
X57565464Y-38800669D01*
X57529885Y-38720376D01*
X57520751Y-38699591D01*
X57486523Y-38633766D01*
X57439751Y-38560447D01*
X57376268Y-38473848D01*
X57291911Y-38368178D01*
X57182513Y-38237652D01*
X57152546Y-38197963D01*
X57111845Y-38106422D01*
X57104881Y-38002521D01*
X57130495Y-37878254D01*
X57135174Y-37862756D01*
X57152985Y-37799128D01*
X57157878Y-37760681D01*
X57149682Y-37734584D01*
X57128225Y-37708004D01*
X57088838Y-37672127D01*
X57037275Y-37638103D01*
X56991123Y-37618120D01*
X56963484Y-37619235D01*
X56962527Y-37620377D01*
X56953801Y-37651668D01*
X56950217Y-37704019D01*
X56941096Y-37753368D01*
X56908935Y-37814334D01*
X56863483Y-37860899D01*
X56815220Y-37879446D01*
X56766513Y-37894005D01*
X56712480Y-37940189D01*
X56652218Y-38020292D01*
X56584013Y-38136597D01*
X56506148Y-38291393D01*
X56447715Y-38418187D01*
X56396582Y-38544306D01*
X56362399Y-38655313D01*
X56342440Y-38762628D01*
X56333982Y-38877671D01*
X56334300Y-39011863D01*
X56338302Y-39081967D01*
X56355772Y-39177070D01*
X56390704Y-39263561D01*
X56411063Y-39306457D01*
X56429606Y-39354815D01*
X56432301Y-39378084D01*
X56427843Y-39380711D01*
X56400410Y-39369871D01*
X56362196Y-39331443D01*
X56320111Y-39273395D01*
X56281064Y-39203693D01*
X56256371Y-39137778D01*
X56234617Y-39011262D01*
X56232316Y-38851932D01*
X56249327Y-38657321D01*
X56254346Y-38603805D01*
X56254597Y-38554596D01*
X56248280Y-38535613D01*
X56239892Y-38536894D01*
X56199012Y-38547944D01*
X56140664Y-38566632D01*
X56092914Y-38579458D01*
X56002829Y-38596659D01*
X55895072Y-38612475D01*
X55783681Y-38625136D01*
X55682689Y-38632876D01*
X55606134Y-38633929D01*
X55542634Y-38630863D01*
X55549909Y-38816071D01*
X55550889Y-38847678D01*
X55549602Y-38935758D01*
X55541733Y-38987687D01*
X55528264Y-39001941D01*
X55510179Y-38976994D01*
X55488462Y-38911321D01*
X55464895Y-38828685D01*
X55386196Y-38613272D01*
X55286699Y-38423822D01*
X55160052Y-38249519D01*
X54999902Y-38079549D01*
X54939593Y-38022840D01*
X54851320Y-37942655D01*
X54760296Y-37862584D01*
X54672189Y-37787366D01*
X54592665Y-37721743D01*
X54527392Y-37670454D01*
X54482036Y-37638240D01*
X54462266Y-37629841D01*
X54460514Y-37641022D01*
X54464483Y-37686646D01*
X54475274Y-37758086D01*
X54491130Y-37845856D01*
X54510296Y-37940469D01*
X54531017Y-38032439D01*
X54551537Y-38112279D01*
X54576630Y-38191821D01*
X54611290Y-38289369D01*
X54647896Y-38383419D01*
X54674760Y-38449525D01*
X54693670Y-38502846D01*
X54698537Y-38536135D01*
X54690563Y-38559864D01*
X54670947Y-38584502D01*
X54593828Y-38680858D01*
X54542147Y-38770583D01*
X54513005Y-38864148D01*
X54500184Y-38975800D01*
X54498937Y-38999759D01*
X54497055Y-39069440D01*
X54501644Y-39124059D01*
X54515917Y-39176798D01*
X54543088Y-39240838D01*
X54586369Y-39329363D01*
X54613255Y-39384832D01*
X54646120Y-39458069D01*
X54666720Y-39511352D01*
X54671429Y-39535874D01*
X54655201Y-39533577D01*
X54615497Y-39509459D01*
X54562300Y-39468196D01*
X54561702Y-39467691D01*
X54415374Y-39369697D01*
X54258169Y-39310410D01*
X54095211Y-39290459D01*
X53931623Y-39310475D01*
X53772528Y-39371088D01*
X53766350Y-39374291D01*
X53687945Y-39408094D01*
X53616187Y-39421281D01*
X53540840Y-39412803D01*
X53451666Y-39381614D01*
X53338427Y-39326664D01*
X53247253Y-39281160D01*
X53169024Y-39248927D01*
X53103076Y-39231941D01*
X53037178Y-39226122D01*
X52992936Y-39226467D01*
X52924104Y-39237912D01*
X52894093Y-39265137D01*
X52682925Y-39265137D01*
X52679355Y-39255227D01*
X52678964Y-39213611D01*
%TD*%
%LPC*%
D13*
%TO.C,SW1*%
X45936320Y-36486680D03*
X41516903Y-40906097D03*
%TD*%
D14*
%TO.C,BT1*%
X42930000Y-46228000D03*
X68830000Y-46228000D03*
D15*
X55880000Y-46228000D03*
%TD*%
M02*
