%FSLAX45Y45*%
G04 Gerber Fmt 4.5, Leading zero omitted, Abs format (unit mm)*
G04 Created by KiCad (PCBNEW (6.0.0)) date 2022-05-29 15:36:29*
%MOMM*%
%LPD*%
G01*
G04 APERTURE LIST*
%TA.AperFunction,Profile*%
%ADD10C,0.038100*%
%TD*%
%ADD11C,0.200000*%
%ADD12C,0.030000*%
%ADD13C,0.120000*%
%ADD14C,0.250000*%
G04 APERTURE END LIST*
D10*
X3632200Y-5384800D02*
X3632200Y-3860800D01*
X6527800Y-5892800D02*
X4648200Y-5892800D01*
X4648200Y-5892800D02*
X3632200Y-5384800D01*
X7543800Y-5384800D02*
X6527800Y-5892800D01*
X3632200Y-3860800D02*
X4648200Y-3352800D01*
X4648200Y-3352800D02*
X6527800Y-3352800D01*
X7543800Y-3860800D02*
X7543800Y-5384800D01*
X6527800Y-3352800D02*
X7543800Y-3860800D01*
D11*
D12*
X3810240Y-4836400D02*
X3840240Y-4866400D01*
X3840240Y-4836400D02*
X3810240Y-4866400D01*
X4137900Y-4264900D02*
X4167900Y-4294900D01*
X4167900Y-4264900D02*
X4137900Y-4294900D01*
X4379200Y-4938000D02*
X4409200Y-4968000D01*
X4409200Y-4938000D02*
X4379200Y-4968000D01*
X7089380Y-4958320D02*
X7119380Y-4988320D01*
X7119380Y-4958320D02*
X7089380Y-4988320D01*
D13*
X4211690Y-4090610D02*
G75*
G03*
X4211690Y-4090610I-60000J0D01*
G01*
X4653632Y-3648668D02*
G75*
G03*
X4653632Y-3648668I-60000J0D01*
G01*
D14*
X3835400Y-3989800D02*
X3835400Y-4239800D01*
X3710400Y-4114800D02*
X3960400Y-4114800D01*
X3835400Y-5005800D02*
X3835400Y-5255800D01*
X3710400Y-5130800D02*
X3960400Y-5130800D01*
X7340600Y-3989800D02*
X7340600Y-4239800D01*
X7215600Y-4114800D02*
X7465600Y-4114800D01*
X7340600Y-5005800D02*
X7340600Y-5255800D01*
X7215600Y-5130800D02*
X7465600Y-5130800D01*
D11*
X3887914Y-6205181D02*
X3887914Y-6005181D01*
X3935533Y-6005181D01*
X3964104Y-6014705D01*
X3983152Y-6033753D01*
X3992676Y-6052800D01*
X4002200Y-6090895D01*
X4002200Y-6119467D01*
X3992676Y-6157562D01*
X3983152Y-6176610D01*
X3964104Y-6195657D01*
X3935533Y-6205181D01*
X3887914Y-6205181D01*
X4087914Y-6205181D02*
X4087914Y-6071848D01*
X4087914Y-6109943D02*
X4097438Y-6090895D01*
X4106962Y-6081372D01*
X4126009Y-6071848D01*
X4145057Y-6071848D01*
X4211724Y-6205181D02*
X4211724Y-6071848D01*
X4211724Y-6005181D02*
X4202200Y-6014705D01*
X4211724Y-6024229D01*
X4221247Y-6014705D01*
X4211724Y-6005181D01*
X4211724Y-6024229D01*
X4335533Y-6205181D02*
X4316485Y-6195657D01*
X4306962Y-6176610D01*
X4306962Y-6005181D01*
X4440295Y-6205181D02*
X4421247Y-6195657D01*
X4411724Y-6176610D01*
X4411724Y-6005181D01*
X4668866Y-6205181D02*
X4668866Y-6005181D01*
X4735533Y-6148038D01*
X4802200Y-6005181D01*
X4802200Y-6205181D01*
X4983152Y-6205181D02*
X4983152Y-6100419D01*
X4973628Y-6081372D01*
X4954581Y-6071848D01*
X4916485Y-6071848D01*
X4897438Y-6081372D01*
X4983152Y-6195657D02*
X4964105Y-6205181D01*
X4916485Y-6205181D01*
X4897438Y-6195657D01*
X4887914Y-6176610D01*
X4887914Y-6157562D01*
X4897438Y-6138514D01*
X4916485Y-6128991D01*
X4964105Y-6128991D01*
X4983152Y-6119467D01*
X5078390Y-6071848D02*
X5078390Y-6271848D01*
X5078390Y-6081372D02*
X5097438Y-6071848D01*
X5135533Y-6071848D01*
X5154581Y-6081372D01*
X5164105Y-6090895D01*
X5173628Y-6109943D01*
X5173628Y-6167086D01*
X5164105Y-6186133D01*
X5154581Y-6195657D01*
X5135533Y-6205181D01*
X5097438Y-6205181D01*
X5078390Y-6195657D01*
X5259343Y-6186133D02*
X5268866Y-6195657D01*
X5259343Y-6205181D01*
X5249819Y-6195657D01*
X5259343Y-6186133D01*
X5259343Y-6205181D01*
X5259343Y-6081372D02*
X5268866Y-6090895D01*
X5259343Y-6100419D01*
X5249819Y-6090895D01*
X5259343Y-6081372D01*
X5259343Y-6100419D01*
D12*
X3600295Y-6519705D02*
X3630295Y-6549705D01*
X3630295Y-6519705D02*
X3600295Y-6549705D01*
D11*
X3926009Y-6425181D02*
X3945057Y-6425181D01*
X3964104Y-6434705D01*
X3973628Y-6444229D01*
X3983152Y-6463276D01*
X3992676Y-6501372D01*
X3992676Y-6548991D01*
X3983152Y-6587086D01*
X3973628Y-6606133D01*
X3964104Y-6615657D01*
X3945057Y-6625181D01*
X3926009Y-6625181D01*
X3906962Y-6615657D01*
X3897438Y-6606133D01*
X3887914Y-6587086D01*
X3878390Y-6548991D01*
X3878390Y-6501372D01*
X3887914Y-6463276D01*
X3897438Y-6444229D01*
X3906962Y-6434705D01*
X3926009Y-6425181D01*
X4078390Y-6606133D02*
X4087914Y-6615657D01*
X4078390Y-6625181D01*
X4068866Y-6615657D01*
X4078390Y-6606133D01*
X4078390Y-6625181D01*
X4154581Y-6425181D02*
X4278390Y-6425181D01*
X4211724Y-6501372D01*
X4240295Y-6501372D01*
X4259343Y-6510895D01*
X4268866Y-6520419D01*
X4278390Y-6539467D01*
X4278390Y-6587086D01*
X4268866Y-6606133D01*
X4259343Y-6615657D01*
X4240295Y-6625181D01*
X4183152Y-6625181D01*
X4164104Y-6615657D01*
X4154581Y-6606133D01*
X4402200Y-6425181D02*
X4421247Y-6425181D01*
X4440295Y-6434705D01*
X4449819Y-6444229D01*
X4459343Y-6463276D01*
X4468866Y-6501372D01*
X4468866Y-6548991D01*
X4459343Y-6587086D01*
X4449819Y-6606133D01*
X4440295Y-6615657D01*
X4421247Y-6625181D01*
X4402200Y-6625181D01*
X4383152Y-6615657D01*
X4373628Y-6606133D01*
X4364105Y-6587086D01*
X4354581Y-6548991D01*
X4354581Y-6501372D01*
X4364105Y-6463276D01*
X4373628Y-6444229D01*
X4383152Y-6434705D01*
X4402200Y-6425181D01*
X4592676Y-6425181D02*
X4611724Y-6425181D01*
X4630771Y-6434705D01*
X4640295Y-6444229D01*
X4649819Y-6463276D01*
X4659343Y-6501372D01*
X4659343Y-6548991D01*
X4649819Y-6587086D01*
X4640295Y-6606133D01*
X4630771Y-6615657D01*
X4611724Y-6625181D01*
X4592676Y-6625181D01*
X4573628Y-6615657D01*
X4564105Y-6606133D01*
X4554581Y-6587086D01*
X4545057Y-6548991D01*
X4545057Y-6501372D01*
X4554581Y-6463276D01*
X4564105Y-6444229D01*
X4573628Y-6434705D01*
X4592676Y-6425181D01*
X4745057Y-6625181D02*
X4745057Y-6491848D01*
X4745057Y-6510895D02*
X4754581Y-6501372D01*
X4773628Y-6491848D01*
X4802200Y-6491848D01*
X4821247Y-6501372D01*
X4830771Y-6520419D01*
X4830771Y-6625181D01*
X4830771Y-6520419D02*
X4840295Y-6501372D01*
X4859343Y-6491848D01*
X4887914Y-6491848D01*
X4906962Y-6501372D01*
X4916485Y-6520419D01*
X4916485Y-6625181D01*
X5011724Y-6625181D02*
X5011724Y-6491848D01*
X5011724Y-6510895D02*
X5021247Y-6501372D01*
X5040295Y-6491848D01*
X5068866Y-6491848D01*
X5087914Y-6501372D01*
X5097438Y-6520419D01*
X5097438Y-6625181D01*
X5097438Y-6520419D02*
X5106962Y-6501372D01*
X5126009Y-6491848D01*
X5154581Y-6491848D01*
X5173628Y-6501372D01*
X5183152Y-6520419D01*
X5183152Y-6625181D01*
X5573628Y-6415657D02*
X5402200Y-6672800D01*
X5830771Y-6425181D02*
X5849819Y-6425181D01*
X5868866Y-6434705D01*
X5878390Y-6444229D01*
X5887914Y-6463276D01*
X5897438Y-6501372D01*
X5897438Y-6548991D01*
X5887914Y-6587086D01*
X5878390Y-6606133D01*
X5868866Y-6615657D01*
X5849819Y-6625181D01*
X5830771Y-6625181D01*
X5811723Y-6615657D01*
X5802200Y-6606133D01*
X5792676Y-6587086D01*
X5783152Y-6548991D01*
X5783152Y-6501372D01*
X5792676Y-6463276D01*
X5802200Y-6444229D01*
X5811723Y-6434705D01*
X5830771Y-6425181D01*
X5983152Y-6606133D02*
X5992676Y-6615657D01*
X5983152Y-6625181D01*
X5973628Y-6615657D01*
X5983152Y-6606133D01*
X5983152Y-6625181D01*
X6116485Y-6425181D02*
X6135533Y-6425181D01*
X6154581Y-6434705D01*
X6164104Y-6444229D01*
X6173628Y-6463276D01*
X6183152Y-6501372D01*
X6183152Y-6548991D01*
X6173628Y-6587086D01*
X6164104Y-6606133D01*
X6154581Y-6615657D01*
X6135533Y-6625181D01*
X6116485Y-6625181D01*
X6097438Y-6615657D01*
X6087914Y-6606133D01*
X6078390Y-6587086D01*
X6068866Y-6548991D01*
X6068866Y-6501372D01*
X6078390Y-6463276D01*
X6087914Y-6444229D01*
X6097438Y-6434705D01*
X6116485Y-6425181D01*
X6373628Y-6625181D02*
X6259343Y-6625181D01*
X6316485Y-6625181D02*
X6316485Y-6425181D01*
X6297438Y-6453753D01*
X6278390Y-6472800D01*
X6259343Y-6482324D01*
X6564104Y-6625181D02*
X6449819Y-6625181D01*
X6506962Y-6625181D02*
X6506962Y-6425181D01*
X6487914Y-6453753D01*
X6468866Y-6472800D01*
X6449819Y-6482324D01*
X6678390Y-6510895D02*
X6659343Y-6501372D01*
X6649819Y-6491848D01*
X6640295Y-6472800D01*
X6640295Y-6463276D01*
X6649819Y-6444229D01*
X6659343Y-6434705D01*
X6678390Y-6425181D01*
X6716485Y-6425181D01*
X6735533Y-6434705D01*
X6745057Y-6444229D01*
X6754581Y-6463276D01*
X6754581Y-6472800D01*
X6745057Y-6491848D01*
X6735533Y-6501372D01*
X6716485Y-6510895D01*
X6678390Y-6510895D01*
X6659343Y-6520419D01*
X6649819Y-6529943D01*
X6640295Y-6548991D01*
X6640295Y-6587086D01*
X6649819Y-6606133D01*
X6659343Y-6615657D01*
X6678390Y-6625181D01*
X6716485Y-6625181D01*
X6735533Y-6615657D01*
X6745057Y-6606133D01*
X6754581Y-6587086D01*
X6754581Y-6548991D01*
X6745057Y-6529943D01*
X6735533Y-6520419D01*
X6716485Y-6510895D01*
X6830771Y-6425181D02*
X6830771Y-6463276D01*
X6906962Y-6425181D02*
X6906962Y-6463276D01*
X7202200Y-6701372D02*
X7192676Y-6691848D01*
X7173628Y-6663276D01*
X7164104Y-6644229D01*
X7154581Y-6615657D01*
X7145057Y-6568038D01*
X7145057Y-6529943D01*
X7154581Y-6482324D01*
X7164104Y-6453753D01*
X7173628Y-6434705D01*
X7192676Y-6406133D01*
X7202200Y-6396610D01*
X7364104Y-6491848D02*
X7364104Y-6625181D01*
X7316485Y-6415657D02*
X7268866Y-6558514D01*
X7392676Y-6558514D01*
X7621247Y-6625181D02*
X7621247Y-6425181D01*
X7706962Y-6625181D02*
X7706962Y-6520419D01*
X7697438Y-6501372D01*
X7678390Y-6491848D01*
X7649819Y-6491848D01*
X7630771Y-6501372D01*
X7621247Y-6510895D01*
X7830771Y-6625181D02*
X7811723Y-6615657D01*
X7802200Y-6606133D01*
X7792676Y-6587086D01*
X7792676Y-6529943D01*
X7802200Y-6510895D01*
X7811723Y-6501372D01*
X7830771Y-6491848D01*
X7859343Y-6491848D01*
X7878390Y-6501372D01*
X7887914Y-6510895D01*
X7897438Y-6529943D01*
X7897438Y-6587086D01*
X7887914Y-6606133D01*
X7878390Y-6615657D01*
X7859343Y-6625181D01*
X7830771Y-6625181D01*
X8011723Y-6625181D02*
X7992676Y-6615657D01*
X7983152Y-6596610D01*
X7983152Y-6425181D01*
X8164104Y-6615657D02*
X8145057Y-6625181D01*
X8106962Y-6625181D01*
X8087914Y-6615657D01*
X8078390Y-6596610D01*
X8078390Y-6520419D01*
X8087914Y-6501372D01*
X8106962Y-6491848D01*
X8145057Y-6491848D01*
X8164104Y-6501372D01*
X8173628Y-6520419D01*
X8173628Y-6539467D01*
X8078390Y-6558514D01*
X8249819Y-6615657D02*
X8268866Y-6625181D01*
X8306962Y-6625181D01*
X8326009Y-6615657D01*
X8335533Y-6596610D01*
X8335533Y-6587086D01*
X8326009Y-6568038D01*
X8306962Y-6558514D01*
X8278390Y-6558514D01*
X8259343Y-6548991D01*
X8249819Y-6529943D01*
X8249819Y-6520419D01*
X8259343Y-6501372D01*
X8278390Y-6491848D01*
X8306962Y-6491848D01*
X8326009Y-6501372D01*
X8402200Y-6701372D02*
X8411724Y-6691848D01*
X8430771Y-6663276D01*
X8440295Y-6644229D01*
X8449819Y-6615657D01*
X8459343Y-6568038D01*
X8459343Y-6529943D01*
X8449819Y-6482324D01*
X8440295Y-6453753D01*
X8430771Y-6434705D01*
X8411724Y-6406133D01*
X8402200Y-6396610D01*
D13*
X3630295Y-6798705D02*
G75*
G03*
X3630295Y-6798705I-60000J0D01*
G01*
D11*
X3992676Y-6889181D02*
X3878390Y-6889181D01*
X3935533Y-6889181D02*
X3935533Y-6689181D01*
X3916485Y-6717753D01*
X3897438Y-6736800D01*
X3878390Y-6746324D01*
X4078390Y-6870133D02*
X4087914Y-6879657D01*
X4078390Y-6889181D01*
X4068866Y-6879657D01*
X4078390Y-6870133D01*
X4078390Y-6889181D01*
X4164104Y-6708229D02*
X4173628Y-6698705D01*
X4192676Y-6689181D01*
X4240295Y-6689181D01*
X4259343Y-6698705D01*
X4268866Y-6708229D01*
X4278390Y-6727276D01*
X4278390Y-6746324D01*
X4268866Y-6774895D01*
X4154581Y-6889181D01*
X4278390Y-6889181D01*
X4402200Y-6689181D02*
X4421247Y-6689181D01*
X4440295Y-6698705D01*
X4449819Y-6708229D01*
X4459343Y-6727276D01*
X4468866Y-6765372D01*
X4468866Y-6812991D01*
X4459343Y-6851086D01*
X4449819Y-6870133D01*
X4440295Y-6879657D01*
X4421247Y-6889181D01*
X4402200Y-6889181D01*
X4383152Y-6879657D01*
X4373628Y-6870133D01*
X4364105Y-6851086D01*
X4354581Y-6812991D01*
X4354581Y-6765372D01*
X4364105Y-6727276D01*
X4373628Y-6708229D01*
X4383152Y-6698705D01*
X4402200Y-6689181D01*
X4592676Y-6689181D02*
X4611724Y-6689181D01*
X4630771Y-6698705D01*
X4640295Y-6708229D01*
X4649819Y-6727276D01*
X4659343Y-6765372D01*
X4659343Y-6812991D01*
X4649819Y-6851086D01*
X4640295Y-6870133D01*
X4630771Y-6879657D01*
X4611724Y-6889181D01*
X4592676Y-6889181D01*
X4573628Y-6879657D01*
X4564105Y-6870133D01*
X4554581Y-6851086D01*
X4545057Y-6812991D01*
X4545057Y-6765372D01*
X4554581Y-6727276D01*
X4564105Y-6708229D01*
X4573628Y-6698705D01*
X4592676Y-6689181D01*
X4745057Y-6889181D02*
X4745057Y-6755848D01*
X4745057Y-6774895D02*
X4754581Y-6765372D01*
X4773628Y-6755848D01*
X4802200Y-6755848D01*
X4821247Y-6765372D01*
X4830771Y-6784419D01*
X4830771Y-6889181D01*
X4830771Y-6784419D02*
X4840295Y-6765372D01*
X4859343Y-6755848D01*
X4887914Y-6755848D01*
X4906962Y-6765372D01*
X4916485Y-6784419D01*
X4916485Y-6889181D01*
X5011724Y-6889181D02*
X5011724Y-6755848D01*
X5011724Y-6774895D02*
X5021247Y-6765372D01*
X5040295Y-6755848D01*
X5068866Y-6755848D01*
X5087914Y-6765372D01*
X5097438Y-6784419D01*
X5097438Y-6889181D01*
X5097438Y-6784419D02*
X5106962Y-6765372D01*
X5126009Y-6755848D01*
X5154581Y-6755848D01*
X5173628Y-6765372D01*
X5183152Y-6784419D01*
X5183152Y-6889181D01*
X5573628Y-6679657D02*
X5402200Y-6936800D01*
X5830771Y-6689181D02*
X5849819Y-6689181D01*
X5868866Y-6698705D01*
X5878390Y-6708229D01*
X5887914Y-6727276D01*
X5897438Y-6765372D01*
X5897438Y-6812991D01*
X5887914Y-6851086D01*
X5878390Y-6870133D01*
X5868866Y-6879657D01*
X5849819Y-6889181D01*
X5830771Y-6889181D01*
X5811723Y-6879657D01*
X5802200Y-6870133D01*
X5792676Y-6851086D01*
X5783152Y-6812991D01*
X5783152Y-6765372D01*
X5792676Y-6727276D01*
X5802200Y-6708229D01*
X5811723Y-6698705D01*
X5830771Y-6689181D01*
X5983152Y-6870133D02*
X5992676Y-6879657D01*
X5983152Y-6889181D01*
X5973628Y-6879657D01*
X5983152Y-6870133D01*
X5983152Y-6889181D01*
X6116485Y-6689181D02*
X6135533Y-6689181D01*
X6154581Y-6698705D01*
X6164104Y-6708229D01*
X6173628Y-6727276D01*
X6183152Y-6765372D01*
X6183152Y-6812991D01*
X6173628Y-6851086D01*
X6164104Y-6870133D01*
X6154581Y-6879657D01*
X6135533Y-6889181D01*
X6116485Y-6889181D01*
X6097438Y-6879657D01*
X6087914Y-6870133D01*
X6078390Y-6851086D01*
X6068866Y-6812991D01*
X6068866Y-6765372D01*
X6078390Y-6727276D01*
X6087914Y-6708229D01*
X6097438Y-6698705D01*
X6116485Y-6689181D01*
X6354581Y-6755848D02*
X6354581Y-6889181D01*
X6306962Y-6679657D02*
X6259343Y-6822514D01*
X6383152Y-6822514D01*
X6440295Y-6689181D02*
X6573628Y-6689181D01*
X6487914Y-6889181D01*
X6640295Y-6708229D02*
X6649819Y-6698705D01*
X6668866Y-6689181D01*
X6716485Y-6689181D01*
X6735533Y-6698705D01*
X6745057Y-6708229D01*
X6754581Y-6727276D01*
X6754581Y-6746324D01*
X6745057Y-6774895D01*
X6630771Y-6889181D01*
X6754581Y-6889181D01*
X6830771Y-6689181D02*
X6830771Y-6727276D01*
X6906962Y-6689181D02*
X6906962Y-6727276D01*
X7202200Y-6965372D02*
X7192676Y-6955848D01*
X7173628Y-6927276D01*
X7164104Y-6908229D01*
X7154581Y-6879657D01*
X7145057Y-6832038D01*
X7145057Y-6793943D01*
X7154581Y-6746324D01*
X7164104Y-6717753D01*
X7173628Y-6698705D01*
X7192676Y-6670133D01*
X7202200Y-6660610D01*
X7268866Y-6708229D02*
X7278390Y-6698705D01*
X7297438Y-6689181D01*
X7345057Y-6689181D01*
X7364104Y-6698705D01*
X7373628Y-6708229D01*
X7383152Y-6727276D01*
X7383152Y-6746324D01*
X7373628Y-6774895D01*
X7259343Y-6889181D01*
X7383152Y-6889181D01*
X7621247Y-6889181D02*
X7621247Y-6689181D01*
X7706962Y-6889181D02*
X7706962Y-6784419D01*
X7697438Y-6765372D01*
X7678390Y-6755848D01*
X7649819Y-6755848D01*
X7630771Y-6765372D01*
X7621247Y-6774895D01*
X7830771Y-6889181D02*
X7811723Y-6879657D01*
X7802200Y-6870133D01*
X7792676Y-6851086D01*
X7792676Y-6793943D01*
X7802200Y-6774895D01*
X7811723Y-6765372D01*
X7830771Y-6755848D01*
X7859343Y-6755848D01*
X7878390Y-6765372D01*
X7887914Y-6774895D01*
X7897438Y-6793943D01*
X7897438Y-6851086D01*
X7887914Y-6870133D01*
X7878390Y-6879657D01*
X7859343Y-6889181D01*
X7830771Y-6889181D01*
X8011723Y-6889181D02*
X7992676Y-6879657D01*
X7983152Y-6860610D01*
X7983152Y-6689181D01*
X8164104Y-6879657D02*
X8145057Y-6889181D01*
X8106962Y-6889181D01*
X8087914Y-6879657D01*
X8078390Y-6860610D01*
X8078390Y-6784419D01*
X8087914Y-6765372D01*
X8106962Y-6755848D01*
X8145057Y-6755848D01*
X8164104Y-6765372D01*
X8173628Y-6784419D01*
X8173628Y-6803467D01*
X8078390Y-6822514D01*
X8249819Y-6879657D02*
X8268866Y-6889181D01*
X8306962Y-6889181D01*
X8326009Y-6879657D01*
X8335533Y-6860610D01*
X8335533Y-6851086D01*
X8326009Y-6832038D01*
X8306962Y-6822514D01*
X8278390Y-6822514D01*
X8259343Y-6812991D01*
X8249819Y-6793943D01*
X8249819Y-6784419D01*
X8259343Y-6765372D01*
X8278390Y-6755848D01*
X8306962Y-6755848D01*
X8326009Y-6765372D01*
X8402200Y-6965372D02*
X8411724Y-6955848D01*
X8430771Y-6927276D01*
X8440295Y-6908229D01*
X8449819Y-6879657D01*
X8459343Y-6832038D01*
X8459343Y-6793943D01*
X8449819Y-6746324D01*
X8440295Y-6717753D01*
X8430771Y-6698705D01*
X8411724Y-6670133D01*
X8402200Y-6660610D01*
X3530295Y-6962705D02*
X3530295Y-7162705D01*
X3430295Y-7062705D02*
X3630295Y-7062705D01*
X3878390Y-6972229D02*
X3887914Y-6962705D01*
X3906962Y-6953181D01*
X3954581Y-6953181D01*
X3973628Y-6962705D01*
X3983152Y-6972229D01*
X3992676Y-6991276D01*
X3992676Y-7010324D01*
X3983152Y-7038895D01*
X3868866Y-7153181D01*
X3992676Y-7153181D01*
X4078390Y-7134133D02*
X4087914Y-7143657D01*
X4078390Y-7153181D01*
X4068866Y-7143657D01*
X4078390Y-7134133D01*
X4078390Y-7153181D01*
X4268866Y-6953181D02*
X4173628Y-6953181D01*
X4164104Y-7048419D01*
X4173628Y-7038895D01*
X4192676Y-7029372D01*
X4240295Y-7029372D01*
X4259343Y-7038895D01*
X4268866Y-7048419D01*
X4278390Y-7067467D01*
X4278390Y-7115086D01*
X4268866Y-7134133D01*
X4259343Y-7143657D01*
X4240295Y-7153181D01*
X4192676Y-7153181D01*
X4173628Y-7143657D01*
X4164104Y-7134133D01*
X4402200Y-6953181D02*
X4421247Y-6953181D01*
X4440295Y-6962705D01*
X4449819Y-6972229D01*
X4459343Y-6991276D01*
X4468866Y-7029372D01*
X4468866Y-7076991D01*
X4459343Y-7115086D01*
X4449819Y-7134133D01*
X4440295Y-7143657D01*
X4421247Y-7153181D01*
X4402200Y-7153181D01*
X4383152Y-7143657D01*
X4373628Y-7134133D01*
X4364105Y-7115086D01*
X4354581Y-7076991D01*
X4354581Y-7029372D01*
X4364105Y-6991276D01*
X4373628Y-6972229D01*
X4383152Y-6962705D01*
X4402200Y-6953181D01*
X4592676Y-6953181D02*
X4611724Y-6953181D01*
X4630771Y-6962705D01*
X4640295Y-6972229D01*
X4649819Y-6991276D01*
X4659343Y-7029372D01*
X4659343Y-7076991D01*
X4649819Y-7115086D01*
X4640295Y-7134133D01*
X4630771Y-7143657D01*
X4611724Y-7153181D01*
X4592676Y-7153181D01*
X4573628Y-7143657D01*
X4564105Y-7134133D01*
X4554581Y-7115086D01*
X4545057Y-7076991D01*
X4545057Y-7029372D01*
X4554581Y-6991276D01*
X4564105Y-6972229D01*
X4573628Y-6962705D01*
X4592676Y-6953181D01*
X4745057Y-7153181D02*
X4745057Y-7019848D01*
X4745057Y-7038895D02*
X4754581Y-7029372D01*
X4773628Y-7019848D01*
X4802200Y-7019848D01*
X4821247Y-7029372D01*
X4830771Y-7048419D01*
X4830771Y-7153181D01*
X4830771Y-7048419D02*
X4840295Y-7029372D01*
X4859343Y-7019848D01*
X4887914Y-7019848D01*
X4906962Y-7029372D01*
X4916485Y-7048419D01*
X4916485Y-7153181D01*
X5011724Y-7153181D02*
X5011724Y-7019848D01*
X5011724Y-7038895D02*
X5021247Y-7029372D01*
X5040295Y-7019848D01*
X5068866Y-7019848D01*
X5087914Y-7029372D01*
X5097438Y-7048419D01*
X5097438Y-7153181D01*
X5097438Y-7048419D02*
X5106962Y-7029372D01*
X5126009Y-7019848D01*
X5154581Y-7019848D01*
X5173628Y-7029372D01*
X5183152Y-7048419D01*
X5183152Y-7153181D01*
X5573628Y-6943657D02*
X5402200Y-7200800D01*
X5830771Y-6953181D02*
X5849819Y-6953181D01*
X5868866Y-6962705D01*
X5878390Y-6972229D01*
X5887914Y-6991276D01*
X5897438Y-7029372D01*
X5897438Y-7076991D01*
X5887914Y-7115086D01*
X5878390Y-7134133D01*
X5868866Y-7143657D01*
X5849819Y-7153181D01*
X5830771Y-7153181D01*
X5811723Y-7143657D01*
X5802200Y-7134133D01*
X5792676Y-7115086D01*
X5783152Y-7076991D01*
X5783152Y-7029372D01*
X5792676Y-6991276D01*
X5802200Y-6972229D01*
X5811723Y-6962705D01*
X5830771Y-6953181D01*
X5983152Y-7134133D02*
X5992676Y-7143657D01*
X5983152Y-7153181D01*
X5973628Y-7143657D01*
X5983152Y-7134133D01*
X5983152Y-7153181D01*
X6116485Y-6953181D02*
X6135533Y-6953181D01*
X6154581Y-6962705D01*
X6164104Y-6972229D01*
X6173628Y-6991276D01*
X6183152Y-7029372D01*
X6183152Y-7076991D01*
X6173628Y-7115086D01*
X6164104Y-7134133D01*
X6154581Y-7143657D01*
X6135533Y-7153181D01*
X6116485Y-7153181D01*
X6097438Y-7143657D01*
X6087914Y-7134133D01*
X6078390Y-7115086D01*
X6068866Y-7076991D01*
X6068866Y-7029372D01*
X6078390Y-6991276D01*
X6087914Y-6972229D01*
X6097438Y-6962705D01*
X6116485Y-6953181D01*
X6278390Y-7153181D02*
X6316485Y-7153181D01*
X6335533Y-7143657D01*
X6345057Y-7134133D01*
X6364104Y-7105562D01*
X6373628Y-7067467D01*
X6373628Y-6991276D01*
X6364104Y-6972229D01*
X6354581Y-6962705D01*
X6335533Y-6953181D01*
X6297438Y-6953181D01*
X6278390Y-6962705D01*
X6268866Y-6972229D01*
X6259343Y-6991276D01*
X6259343Y-7038895D01*
X6268866Y-7057943D01*
X6278390Y-7067467D01*
X6297438Y-7076991D01*
X6335533Y-7076991D01*
X6354581Y-7067467D01*
X6364104Y-7057943D01*
X6373628Y-7038895D01*
X6487914Y-7038895D02*
X6468866Y-7029372D01*
X6459343Y-7019848D01*
X6449819Y-7000800D01*
X6449819Y-6991276D01*
X6459343Y-6972229D01*
X6468866Y-6962705D01*
X6487914Y-6953181D01*
X6526009Y-6953181D01*
X6545057Y-6962705D01*
X6554581Y-6972229D01*
X6564104Y-6991276D01*
X6564104Y-7000800D01*
X6554581Y-7019848D01*
X6545057Y-7029372D01*
X6526009Y-7038895D01*
X6487914Y-7038895D01*
X6468866Y-7048419D01*
X6459343Y-7057943D01*
X6449819Y-7076991D01*
X6449819Y-7115086D01*
X6459343Y-7134133D01*
X6468866Y-7143657D01*
X6487914Y-7153181D01*
X6526009Y-7153181D01*
X6545057Y-7143657D01*
X6554581Y-7134133D01*
X6564104Y-7115086D01*
X6564104Y-7076991D01*
X6554581Y-7057943D01*
X6545057Y-7048419D01*
X6526009Y-7038895D01*
X6735533Y-7019848D02*
X6735533Y-7153181D01*
X6687914Y-6943657D02*
X6640295Y-7086514D01*
X6764104Y-7086514D01*
X6830771Y-6953181D02*
X6830771Y-6991276D01*
X6906962Y-6953181D02*
X6906962Y-6991276D01*
X7202200Y-7229372D02*
X7192676Y-7219848D01*
X7173628Y-7191276D01*
X7164104Y-7172229D01*
X7154581Y-7143657D01*
X7145057Y-7096038D01*
X7145057Y-7057943D01*
X7154581Y-7010324D01*
X7164104Y-6981753D01*
X7173628Y-6962705D01*
X7192676Y-6934133D01*
X7202200Y-6924610D01*
X7364104Y-7019848D02*
X7364104Y-7153181D01*
X7316485Y-6943657D02*
X7268866Y-7086514D01*
X7392676Y-7086514D01*
X7621247Y-7153181D02*
X7621247Y-6953181D01*
X7706962Y-7153181D02*
X7706962Y-7048419D01*
X7697438Y-7029372D01*
X7678390Y-7019848D01*
X7649819Y-7019848D01*
X7630771Y-7029372D01*
X7621247Y-7038895D01*
X7830771Y-7153181D02*
X7811723Y-7143657D01*
X7802200Y-7134133D01*
X7792676Y-7115086D01*
X7792676Y-7057943D01*
X7802200Y-7038895D01*
X7811723Y-7029372D01*
X7830771Y-7019848D01*
X7859343Y-7019848D01*
X7878390Y-7029372D01*
X7887914Y-7038895D01*
X7897438Y-7057943D01*
X7897438Y-7115086D01*
X7887914Y-7134133D01*
X7878390Y-7143657D01*
X7859343Y-7153181D01*
X7830771Y-7153181D01*
X8011723Y-7153181D02*
X7992676Y-7143657D01*
X7983152Y-7124610D01*
X7983152Y-6953181D01*
X8164104Y-7143657D02*
X8145057Y-7153181D01*
X8106962Y-7153181D01*
X8087914Y-7143657D01*
X8078390Y-7124610D01*
X8078390Y-7048419D01*
X8087914Y-7029372D01*
X8106962Y-7019848D01*
X8145057Y-7019848D01*
X8164104Y-7029372D01*
X8173628Y-7048419D01*
X8173628Y-7067467D01*
X8078390Y-7086514D01*
X8249819Y-7143657D02*
X8268866Y-7153181D01*
X8306962Y-7153181D01*
X8326009Y-7143657D01*
X8335533Y-7124610D01*
X8335533Y-7115086D01*
X8326009Y-7096038D01*
X8306962Y-7086514D01*
X8278390Y-7086514D01*
X8259343Y-7076991D01*
X8249819Y-7057943D01*
X8249819Y-7048419D01*
X8259343Y-7029372D01*
X8278390Y-7019848D01*
X8306962Y-7019848D01*
X8326009Y-7029372D01*
X8402200Y-7229372D02*
X8411724Y-7219848D01*
X8430771Y-7191276D01*
X8440295Y-7172229D01*
X8449819Y-7143657D01*
X8459343Y-7096038D01*
X8459343Y-7057943D01*
X8449819Y-7010324D01*
X8440295Y-6981753D01*
X8430771Y-6962705D01*
X8411724Y-6934133D01*
X8402200Y-6924610D01*
M02*
